Hubballi-Regular-exp2.ufo
<glyph name="dollar" format="1">
  <advance width="584"/>
  <unicode hex="0024"/>
  <outline>
    <contour>
      <point x="431" y="457" type="curve" smooth="yes"/>
      <point x="380" y="475"/>
      <point x="344" y="485"/>
      <point x="270" y="485" type="curve" smooth="yes"/>
      <point x="203" y="485"/>
      <point x="147" y="456"/>
      <point x="147" y="414" type="curve" smooth="yes"/>
      <point x="147" y="372"/>
      <point x="183" y="334"/>
      <point x="299" y="315" type="curve" smooth="yes"/>
      <point x="472" y="281"/>
      <point x="514" y="214"/>
      <point x="514" y="140" type="curve" smooth="yes"/>
      <point x="514" y="65"/>
      <point x="459" y="-15"/>
      <point x="293" y="-15" type="curve" smooth="yes"/>
      <point x="219" y="-15"/>
      <point x="149" y="0"/>
      <point x="85" y="31" type="curve" smooth="yes"/>
      <point x="69" y="39"/>
      <point x="62" y="59"/>
      <point x="69" y="75" type="curve" smooth="yes"/>
      <point x="77" y="91"/>
      <point x="97" y="98"/>
      <point x="113" y="91" type="curve" smooth="yes"/>
      <point x="169" y="64"/>
      <point x="229" y="51"/>
      <point x="293" y="51" type="curve" smooth="yes"/>
      <point x="389" y="51"/>
      <point x="448" y="87"/>
      <point x="448" y="140" type="curve" smooth="yes"/>
      <point x="448" y="194"/>
      <point x="396" y="229"/>
      <point x="289" y="249" type="curve" smooth="yes"/>
      <point x="97" y="282"/>
      <point x="81" y="356"/>
      <point x="81" y="414" type="curve" smooth="yes"/>
      <point x="81" y="478"/>
      <point x="141" y="551"/>
      <point x="270" y="551" type="curve" smooth="yes"/>
      <point x="354" y="551"/>
      <point x="396" y="539"/>
      <point x="453" y="519" type="curve" smooth="yes"/>
      <point x="470" y="513"/>
      <point x="479" y="494"/>
      <point x="473" y="477" type="curve" smooth="yes"/>
      <point x="467" y="460"/>
      <point x="448" y="451"/>
    </contour>
    <contour>
      <point x="322" y="610" type="curve" smooth="yes"/>
      <point x="322" y="-80" type="line" smooth="yes"/>
      <point x="322" y="-98"/>
      <point x="307" y="-113"/>
      <point x="289" y="-113" type="curve" smooth="yes"/>
      <point x="271" y="-113"/>
      <point x="256" y="-98"/>
      <point x="256" y="-80" type="curve" smooth="yes"/>
      <point x="256" y="610" type="line" smooth="yes"/>
      <point x="256" y="628"/>
      <point x="271" y="643"/>
      <point x="289" y="643" type="curve" smooth="yes"/>
      <point x="307" y="643"/>
      <point x="322" y="628"/>
    </contour>
  </outline>
</glyph>
<glyph name="seven" format="1">
  <advance width="476"/>
  <unicode hex="0037"/>
  <outline>
    <contour>
      <point x="445" y="495" type="curve" smooth="yes"/>
      <point x="407" y="424"/>
      <point x="304" y="285"/>
      <point x="275" y="234" type="curve" smooth="yes"/>
      <point x="250" y="190"/>
      <point x="230" y="135"/>
      <point x="230" y="82" type="curve" smooth="yes"/>
      <point x="230" y="27" type="line" smooth="yes"/>
      <point x="230" y="9"/>
      <point x="215" y="-6"/>
      <point x="197" y="-6" type="curve" smooth="yes"/>
      <point x="179" y="-6"/>
      <point x="164" y="9"/>
      <point x="164" y="27" type="curve" smooth="yes"/>
      <point x="164" y="82" type="line" smooth="yes"/>
      <point x="164" y="147"/>
      <point x="188" y="212"/>
      <point x="217" y="266" type="curve" smooth="yes"/>
      <point x="246" y="317"/>
      <point x="349" y="456"/>
      <point x="387" y="527" type="curve" smooth="yes"/>
      <point x="395" y="542"/>
      <point x="416" y="549"/>
      <point x="432" y="540" type="curve" smooth="yes"/>
      <point x="447" y="532"/>
      <point x="454" y="511"/>
    </contour>
    <contour>
      <point x="409" y="479" type="curve" smooth="yes"/>
      <point x="66" y="479" type="line" smooth="yes"/>
      <point x="48" y="479"/>
      <point x="33" y="494"/>
      <point x="33" y="512" type="curve" smooth="yes"/>
      <point x="33" y="530"/>
      <point x="48" y="545"/>
      <point x="66" y="545" type="curve" smooth="yes"/>
      <point x="409" y="545" type="line" smooth="yes"/>
      <point x="427" y="545"/>
      <point x="442" y="530"/>
      <point x="442" y="512" type="curve" smooth="yes"/>
      <point x="442" y="494"/>
      <point x="427" y="479"/>
    </contour>
  </outline>
</glyph>
<glyph name="nine" format="1">
  <advance width="546"/>
  <unicode hex="0039"/>
  <outline>
    <contour>
      <point x="165" y="69" type="curve" smooth="yes"/>
      <point x="188" y="63"/>
      <point x="208" y="57"/>
      <point x="238" y="57" type="curve" smooth="yes"/>
      <point x="359" y="57"/>
      <point x="413" y="139"/>
      <point x="413" y="272" type="curve" smooth="yes"/>
      <point x="413" y="403"/>
      <point x="355" y="483"/>
      <point x="256" y="483" type="curve" smooth="yes"/>
      <point x="169" y="483"/>
      <point x="125" y="425"/>
      <point x="125" y="366" type="curve" smooth="yes"/>
      <point x="125" y="293"/>
      <point x="170" y="253"/>
      <point x="247" y="253" type="curve" smooth="yes"/>
      <point x="327" y="253"/>
      <point x="376" y="302"/>
      <point x="415" y="364" type="curve" smooth="yes"/>
      <point x="424" y="379"/>
      <point x="445" y="384"/>
      <point x="460" y="375" type="curve" smooth="yes"/>
      <point x="475" y="366"/>
      <point x="480" y="345"/>
      <point x="471" y="330" type="curve" smooth="yes"/>
      <point x="420" y="246"/>
      <point x="351" y="187"/>
      <point x="247" y="187" type="curve" smooth="yes"/>
      <point x="126" y="187"/>
      <point x="59" y="253"/>
      <point x="59" y="366" type="curve"/>
      <point x="59" y="455"/>
      <point x="121" y="549"/>
      <point x="256" y="549" type="curve" smooth="yes"/>
      <point x="385" y="549"/>
      <point x="479" y="457"/>
      <point x="479" y="272" type="curve" smooth="yes"/>
      <point x="479" y="89"/>
      <point x="395" y="-9"/>
      <point x="238" y="-9" type="curve" smooth="yes"/>
      <point x="202" y="-9"/>
      <point x="176" y="-3"/>
      <point x="147" y="5" type="curve" smooth="yes"/>
      <point x="130" y="10"/>
      <point x="120" y="28"/>
      <point x="124" y="46" type="curve" smooth="yes"/>
      <point x="129" y="63"/>
      <point x="147" y="73"/>
    </contour>
  </outline>
</glyph>
<glyph name="at" format="1">
  <advance width="675"/>
  <unicode hex="0040"/>
  <outline>
    <contour>
      <point x="460" y="384" type="curve" smooth="yes"/>
      <point x="460" y="254" type="line" smooth="yes"/>
      <point x="460" y="218"/>
      <point x="479" y="190"/>
      <point x="509" y="190" type="curve" smooth="yes"/>
      <point x="545" y="190"/>
      <point x="563" y="231"/>
      <point x="563" y="279" type="curve" smooth="yes"/>
      <point x="563" y="389"/>
      <point x="480" y="489"/>
      <point x="341" y="489" type="curve" smooth="yes"/>
      <point x="210" y="489"/>
      <point x="114" y="387"/>
      <point x="114" y="265" type="curve" smooth="yes"/>
      <point x="114" y="143"/>
      <point x="209" y="50"/>
      <point x="344" y="50" type="curve" smooth="yes"/>
      <point x="401" y="50"/>
      <point x="448" y="63"/>
      <point x="484" y="78" type="curve" smooth="yes"/>
      <point x="500" y="85"/>
      <point x="520" y="78"/>
      <point x="527" y="61" type="curve" smooth="yes"/>
      <point x="534" y="45"/>
      <point x="527" y="25"/>
      <point x="510" y="18" type="curve" smooth="yes"/>
      <point x="468" y="-1"/>
      <point x="411" y="-16"/>
      <point x="344" y="-16" type="curve" smooth="yes"/>
      <point x="167" y="-16"/>
      <point x="48" y="107"/>
      <point x="48" y="265" type="curve"/>
      <point x="48" y="423"/>
      <point x="172" y="555"/>
      <point x="341" y="555" type="curve" smooth="yes"/>
      <point x="524" y="555"/>
      <point x="629" y="421"/>
      <point x="629" y="279" type="curve" smooth="yes"/>
      <point x="629" y="171"/>
      <point x="573" y="124"/>
      <point x="509" y="124" type="curve" smooth="yes"/>
      <point x="449" y="124"/>
      <point x="394" y="168"/>
      <point x="394" y="254" type="curve" smooth="yes"/>
      <point x="394" y="384" type="line" smooth="yes"/>
      <point x="394" y="402"/>
      <point x="409" y="417"/>
      <point x="427" y="417" type="curve" smooth="yes"/>
      <point x="445" y="417"/>
      <point x="460" y="402"/>
    </contour>
    <contour>
      <point x="409" y="329" type="curve" smooth="yes"/>
      <point x="388" y="343"/>
      <point x="366" y="351"/>
      <point x="336" y="351" type="curve" smooth="yes"/>
      <point x="292" y="351"/>
      <point x="258" y="315"/>
      <point x="258" y="261" type="curve" smooth="yes"/>
      <point x="258" y="219"/>
      <point x="285" y="191"/>
      <point x="318" y="191" type="curve" smooth="yes"/>
      <point x="348" y="191"/>
      <point x="377" y="210"/>
      <point x="397" y="246" type="curve" smooth="yes"/>
      <point x="406" y="261"/>
      <point x="427" y="266"/>
      <point x="443" y="258" type="curve" smooth="yes"/>
      <point x="458" y="249"/>
      <point x="463" y="228"/>
      <point x="455" y="212" type="curve" smooth="yes"/>
      <point x="419" y="152"/>
      <point x="368" y="125"/>
      <point x="318" y="125" type="curve" smooth="yes"/>
      <point x="255" y="125"/>
      <point x="192" y="173"/>
      <point x="192" y="261" type="curve" smooth="yes"/>
      <point x="192" y="361"/>
      <point x="260" y="417"/>
      <point x="336" y="417" type="curve" smooth="yes"/>
      <point x="380" y="417"/>
      <point x="414" y="405"/>
      <point x="445" y="385" type="curve" smooth="yes"/>
      <point x="460" y="375"/>
      <point x="464" y="354"/>
      <point x="455" y="339" type="curve" smooth="yes"/>
      <point x="445" y="324"/>
      <point x="424" y="320"/>
    </contour>
  </outline>
</glyph>
<glyph name="R" format="1">
  <advance width="539"/>
  <unicode hex="0052"/>
  <outline>
    <contour>
      <point x="154" y="259" type="curve" smooth="yes"/>
      <point x="275" y="259" type="line" smooth="yes"/>
      <point x="360" y="259"/>
      <point x="408" y="307"/>
      <point x="408" y="369" type="curve" smooth="yes"/>
      <point x="408" y="436"/>
      <point x="352" y="479"/>
      <point x="275" y="479" type="curve" smooth="yes"/>
      <point x="128" y="479" type="line"/>
      <point x="161" y="512" type="line"/>
      <point x="161" y="27" type="line" smooth="yes"/>
      <point x="161" y="9"/>
      <point x="146" y="-6"/>
      <point x="128" y="-6" type="curve" smooth="yes"/>
      <point x="110" y="-6"/>
      <point x="95" y="9"/>
      <point x="95" y="27" type="curve" smooth="yes"/>
      <point x="95" y="512" type="line" smooth="yes"/>
      <point x="95" y="530"/>
      <point x="110" y="545"/>
      <point x="128" y="545" type="curve" smooth="yes"/>
      <point x="275" y="545" type="line" smooth="yes"/>
      <point x="398" y="545"/>
      <point x="474" y="470"/>
      <point x="474" y="369" type="curve" smooth="yes"/>
      <point x="474" y="275"/>
      <point x="412" y="193"/>
      <point x="275" y="193" type="curve" smooth="yes"/>
      <point x="154" y="193" type="line" smooth="yes"/>
      <point x="136" y="193"/>
      <point x="121" y="208"/>
      <point x="121" y="226" type="curve" smooth="yes"/>
      <point x="121" y="244"/>
      <point x="136" y="259"/>
    </contour>
    <contour>
      <point x="335" y="234" type="curve" smooth="yes"/>
      <point x="494" y="48" type="line" smooth="yes"/>
      <point x="506" y="35"/>
      <point x="504" y="13"/>
      <point x="490" y="2" type="curve" smooth="yes"/>
      <point x="477" y="-10"/>
      <point x="455" y="-8"/>
      <point x="444" y="6" type="curve" smooth="yes"/>
      <point x="285" y="192" type="line" smooth="yes"/>
      <point x="273" y="205"/>
      <point x="275" y="227"/>
      <point x="289" y="238" type="curve" smooth="yes"/>
      <point x="302" y="250"/>
      <point x="324" y="248"/>
    </contour>
  </outline>
</glyph>
<glyph name="c" format="1">
  <advance width="443"/>
  <unicode hex="0063"/>
  <outline>
    <contour>
      <point x="344" y="323" type="curve" smooth="yes"/>
      <point x="320" y="331"/>
      <point x="291" y="336"/>
      <point x="265" y="336" type="curve" smooth="yes"/>
      <point x="169" y="336"/>
      <point x="112" y="275"/>
      <point x="112" y="189" type="curve" smooth="yes"/>
      <point x="112" y="114"/>
      <point x="169" y="60"/>
      <point x="264" y="60" type="curve" smooth="yes"/>
      <point x="300" y="60"/>
      <point x="329" y="67"/>
      <point x="354" y="77" type="curve" smooth="yes"/>
      <point x="371" y="83"/>
      <point x="390" y="75"/>
      <point x="397" y="58" type="curve" smooth="yes"/>
      <point x="403" y="41"/>
      <point x="395" y="22"/>
      <point x="378" y="15" type="curve" smooth="yes"/>
      <point x="347" y="3"/>
      <point x="310" y="-6"/>
      <point x="264" y="-6" type="curve" smooth="yes"/>
      <point x="121" y="-6"/>
      <point x="46" y="82"/>
      <point x="46" y="189" type="curve"/>
      <point x="46" y="311"/>
      <point x="125" y="402"/>
      <point x="265" y="402" type="curve" smooth="yes"/>
      <point x="297" y="402"/>
      <point x="334" y="395"/>
      <point x="364" y="385" type="curve" smooth="yes"/>
      <point x="381" y="380"/>
      <point x="391" y="360"/>
      <point x="385" y="344" type="curve" smooth="yes"/>
      <point x="380" y="327"/>
      <point x="360" y="317"/>
    </contour>
  </outline>
</glyph>
<glyph name="f" format="1">
  <advance width="328"/>
  <unicode hex="0066"/>
  <outline>
    <contour>
      <point x="277" y="531" type="curve" smooth="yes"/>
      <point x="201" y="527"/>
      <point x="172" y="496"/>
      <point x="172" y="442" type="curve" smooth="yes"/>
      <point x="172" y="27" type="line" smooth="yes"/>
      <point x="172" y="9"/>
      <point x="157" y="-6"/>
      <point x="139" y="-6" type="curve" smooth="yes"/>
      <point x="121" y="-6"/>
      <point x="106" y="9"/>
      <point x="106" y="27" type="curve" smooth="yes"/>
      <point x="106" y="442" type="line" smooth="yes"/>
      <point x="106" y="528"/>
      <point x="141" y="589"/>
      <point x="273" y="597" type="curve" smooth="yes"/>
      <point x="291" y="598"/>
      <point x="307" y="584"/>
      <point x="308" y="566" type="curve" smooth="yes"/>
      <point x="309" y="548"/>
      <point x="295" y="532"/>
    </contour>
    <contour>
      <point x="51" y="402" type="curve" smooth="yes"/>
      <point x="277" y="402" type="line" smooth="yes"/>
      <point x="295" y="402"/>
      <point x="310" y="387"/>
      <point x="310" y="369" type="curve" smooth="yes"/>
      <point x="310" y="351"/>
      <point x="295" y="336"/>
      <point x="277" y="336" type="curve" smooth="yes"/>
      <point x="51" y="336" type="line" smooth="yes"/>
      <point x="33" y="336"/>
      <point x="18" y="351"/>
      <point x="18" y="369" type="curve" smooth="yes"/>
      <point x="18" y="387"/>
      <point x="33" y="402"/>
    </contour>
  </outline>
</glyph>
<glyph name="t" format="1">
  <advance width="364"/>
  <unicode hex="0074"/>
  <outline>
    <contour>
      <point x="172" y="495" type="curve" smooth="yes"/>
      <point x="172" y="144" type="line" smooth="yes"/>
      <point x="172" y="87"/>
      <point x="212" y="61"/>
      <point x="285" y="60" type="curve" smooth="yes"/>
      <point x="302" y="60"/>
      <point x="317" y="44"/>
      <point x="317" y="26" type="curve" smooth="yes"/>
      <point x="317" y="9"/>
      <point x="301" y="-6"/>
      <point x="283" y="-6" type="curve" smooth="yes"/>
      <point x="154" y="-3"/>
      <point x="106" y="53"/>
      <point x="106" y="144" type="curve" smooth="yes"/>
      <point x="106" y="495" type="line" smooth="yes"/>
      <point x="106" y="513"/>
      <point x="121" y="528"/>
      <point x="139" y="528" type="curve" smooth="yes"/>
      <point x="157" y="528"/>
      <point x="172" y="513"/>
    </contour>
    <contour>
      <point x="51" y="402" type="curve" smooth="yes"/>
      <point x="297" y="402" type="line" smooth="yes"/>
      <point x="315" y="402"/>
      <point x="330" y="387"/>
      <point x="330" y="369" type="curve" smooth="yes"/>
      <point x="330" y="351"/>
      <point x="315" y="336"/>
      <point x="297" y="336" type="curve" smooth="yes"/>
      <point x="51" y="336" type="line" smooth="yes"/>
      <point x="33" y="336"/>
      <point x="18" y="351"/>
      <point x="18" y="369" type="curve" smooth="yes"/>
      <point x="18" y="387"/>
      <point x="33" y="402"/>
    </contour>
  </outline>
</glyph>
<glyph name="asciitilde" format="1">
  <advance width="565"/>
  <unicode hex="007E"/>
  <outline>
    <contour>
      <point x="77" y="226" type="curve" smooth="yes"/>
      <point x="119" y="310"/>
      <point x="158" y="342"/>
      <point x="206" y="342" type="curve" smooth="yes"/>
      <point x="248" y="342"/>
      <point x="275" y="317"/>
      <point x="310" y="279" type="curve" smooth="yes"/>
      <point x="330" y="256"/>
      <point x="345" y="237"/>
      <point x="368" y="237" type="curve" smooth="yes"/>
      <point x="403" y="237"/>
      <point x="418" y="274"/>
      <point x="444" y="327" type="curve" smooth="yes"/>
      <point x="452" y="343"/>
      <point x="472" y="350"/>
      <point x="488" y="343" type="curve" smooth="yes"/>
      <point x="504" y="335"/>
      <point x="511" y="315"/>
      <point x="504" y="299" type="curve" smooth="yes"/>
      <point x="458" y="204"/>
      <point x="421" y="171"/>
      <point x="368" y="171" type="curve" smooth="yes"/>
      <point x="329" y="171"/>
      <point x="298" y="192"/>
      <point x="260" y="235" type="curve" smooth="yes"/>
      <point x="243" y="255"/>
      <point x="230" y="276"/>
      <point x="206" y="276" type="curve" smooth="yes"/>
      <point x="176" y="276"/>
      <point x="159" y="242"/>
      <point x="137" y="196" type="curve" smooth="yes"/>
      <point x="129" y="180"/>
      <point x="108" y="174"/>
      <point x="92" y="181" type="curve" smooth="yes"/>
      <point x="76" y="189"/>
      <point x="70" y="210"/>
    </contour>
  </outline>
</glyph>
<glyph name="currency" format="1">
  <advance width="531.0"/>
  <unicode hex="00A4"/>
  <outline>
    <contour>
      <point x="265" y="423" type="curve" smooth="yes"/>
      <point x="382" y="423"/>
      <point x="456" y="335"/>
      <point x="456" y="226" type="curve" smooth="yes"/>
      <point x="456" y="121"/>
      <point x="382" y="39"/>
      <point x="265" y="39" type="curve" smooth="yes"/>
      <point x="149" y="39"/>
      <point x="74" y="122"/>
      <point x="74" y="228" type="curve" smooth="yes"/>
      <point x="74" y="334"/>
      <point x="147" y="423"/>
    </contour>
    <contour>
      <point x="265" y="357" type="curve" smooth="yes"/>
      <point x="187" y="357"/>
      <point x="140" y="298"/>
      <point x="140" y="228" type="curve" smooth="yes"/>
      <point x="140" y="158"/>
      <point x="189" y="105"/>
      <point x="265" y="105" type="curve" smooth="yes"/>
      <point x="340" y="105"/>
      <point x="390" y="157"/>
      <point x="390" y="226" type="curve" smooth="yes"/>
      <point x="390" y="297"/>
      <point x="342" y="357"/>
    </contour>
    <contour>
      <point x="425" y="6" type="curve" smooth="yes"/>
      <point x="354" y="84" type="line" smooth="yes"/>
      <point x="342" y="97"/>
      <point x="343" y="118"/>
      <point x="356" y="130" type="curve" smooth="yes"/>
      <point x="369" y="142"/>
      <point x="390" y="141"/>
      <point x="402" y="128" type="curve" smooth="yes"/>
      <point x="473" y="50" type="line" smooth="yes"/>
      <point x="485" y="37"/>
      <point x="484" y="16"/>
      <point x="471" y="4" type="curve" smooth="yes"/>
      <point x="458" y="-8"/>
      <point x="437" y="-7"/>
    </contour>
    <contour>
      <point x="128" y="331" type="curve" smooth="yes"/>
      <point x="63" y="402" type="line" smooth="yes"/>
      <point x="51" y="415"/>
      <point x="52" y="436"/>
      <point x="65" y="448" type="curve" smooth="yes"/>
      <point x="78" y="460"/>
      <point x="99" y="459"/>
      <point x="111" y="446" type="curve" smooth="yes"/>
      <point x="176" y="375" type="line" smooth="yes"/>
      <point x="188" y="362"/>
      <point x="187" y="341"/>
      <point x="174" y="329" type="curve" smooth="yes"/>
      <point x="161" y="317"/>
      <point x="140" y="318"/>
    </contour>
    <contour>
      <point x="354" y="376" type="curve" smooth="yes"/>
      <point x="419" y="448" type="line" smooth="yes"/>
      <point x="430" y="461"/>
      <point x="452" y="462"/>
      <point x="465" y="450" type="curve" smooth="yes"/>
      <point x="478" y="439"/>
      <point x="479" y="417"/>
      <point x="467" y="404" type="curve" smooth="yes"/>
      <point x="402" y="332" type="line" smooth="yes"/>
      <point x="391" y="319"/>
      <point x="369" y="318"/>
      <point x="356" y="330" type="curve" smooth="yes"/>
      <point x="343" y="341"/>
      <point x="342" y="363"/>
    </contour>
    <contour>
      <point x="58" y="50" type="curve" smooth="yes"/>
      <point x="126" y="125" type="line" smooth="yes"/>
      <point x="138" y="138"/>
      <point x="159" y="139"/>
      <point x="172" y="127" type="curve" smooth="yes"/>
      <point x="185" y="115"/>
      <point x="186" y="94"/>
      <point x="174" y="81" type="curve" smooth="yes"/>
      <point x="106" y="6" type="line" smooth="yes"/>
      <point x="94" y="-7"/>
      <point x="73" y="-8"/>
      <point x="60" y="4" type="curve" smooth="yes"/>
      <point x="47" y="16"/>
      <point x="46" y="37"/>
    </contour>
  </outline>
</glyph>
<glyph name="brokenbar" format="1">
  <advance width="310"/>
  <unicode hex="00A6"/>
  <outline>
    <contour>
      <point x="188" y="153" type="curve" smooth="yes"/>
      <point x="188" y="-74" type="line" smooth="yes"/>
      <point x="188" y="-92"/>
      <point x="173" y="-107"/>
      <point x="155" y="-107" type="curve" smooth="yes"/>
      <point x="137" y="-107"/>
      <point x="122" y="-92"/>
      <point x="122" y="-74" type="curve" smooth="yes"/>
      <point x="122" y="153" type="line" smooth="yes"/>
      <point x="122" y="171"/>
      <point x="137" y="186"/>
      <point x="155" y="186" type="curve" smooth="yes"/>
      <point x="173" y="186"/>
      <point x="188" y="171"/>
    </contour>
    <contour>
      <point x="188" y="539" type="curve" smooth="yes"/>
      <point x="188" y="312" type="line" smooth="yes"/>
      <point x="188" y="294"/>
      <point x="173" y="279"/>
      <point x="155" y="279" type="curve" smooth="yes"/>
      <point x="137" y="279"/>
      <point x="122" y="294"/>
      <point x="122" y="312" type="curve" smooth="yes"/>
      <point x="122" y="539" type="line" smooth="yes"/>
      <point x="122" y="557"/>
      <point x="137" y="572"/>
      <point x="155" y="572" type="curve" smooth="yes"/>
      <point x="173" y="572"/>
      <point x="188" y="557"/>
    </contour>
  </outline>
</glyph>
<glyph name="registered" format="1">
  <advance width="570"/>
  <unicode hex="00AE"/>
  <outline>
    <contour>
      <point x="282" y="570" type="curve" smooth="yes"/>
      <point x="187" y="570"/>
      <point x="123" y="504"/>
      <point x="123" y="410" type="curve" smooth="yes"/>
      <point x="123" y="320"/>
      <point x="188" y="243"/>
      <point x="289" y="243" type="curve" smooth="yes"/>
      <point x="383" y="243"/>
      <point x="453" y="313"/>
      <point x="453" y="407" type="curve" smooth="yes"/>
      <point x="453" y="501"/>
      <point x="383" y="570"/>
    </contour>
    <contour>
      <point x="240" y="414" type="curve" smooth="yes"/>
      <point x="287" y="414" type="line" smooth="yes"/>
      <point x="306" y="414"/>
      <point x="317" y="425"/>
      <point x="317" y="440" type="curve" smooth="yes"/>
      <point x="317" y="457"/>
      <point x="303" y="463"/>
      <point x="287" y="463" type="curve" smooth="yes"/>
      <point x="230" y="463" type="line"/>
      <point x="263" y="496" type="line"/>
      <point x="263" y="320" type="line" smooth="yes"/>
      <point x="263" y="302"/>
      <point x="248" y="287"/>
      <point x="230" y="287" type="curve" smooth="yes"/>
      <point x="212" y="287"/>
      <point x="197" y="302"/>
      <point x="197" y="320" type="curve" smooth="yes"/>
      <point x="197" y="496" type="line" smooth="yes"/>
      <point x="197" y="514"/>
      <point x="212" y="529"/>
      <point x="230" y="529" type="curve" smooth="yes"/>
      <point x="287" y="529" type="line" smooth="yes"/>
      <point x="347" y="529"/>
      <point x="383" y="493"/>
      <point x="383" y="440" type="curve" smooth="yes"/>
      <point x="383" y="391"/>
      <point x="354" y="348"/>
      <point x="287" y="348" type="curve" smooth="yes"/>
      <point x="240" y="348" type="line" smooth="yes"/>
      <point x="222" y="348"/>
      <point x="207" y="363"/>
      <point x="207" y="381" type="curve" smooth="yes"/>
      <point x="207" y="399"/>
      <point x="222" y="414"/>
    </contour>
    <contour>
      <point x="339" y="396" type="curve" smooth="yes"/>
      <point x="386" y="341" type="line" smooth="yes"/>
      <point x="398" y="328"/>
      <point x="396" y="306"/>
      <point x="382" y="295" type="curve" smooth="yes"/>
      <point x="369" y="283"/>
      <point x="347" y="285"/>
      <point x="336" y="299" type="curve" smooth="yes"/>
      <point x="289" y="354" type="line" smooth="yes"/>
      <point x="277" y="367"/>
      <point x="279" y="389"/>
      <point x="293" y="400" type="curve" smooth="yes"/>
      <point x="306" y="412"/>
      <point x="328" y="410"/>
    </contour>
    <contour>
      <point x="282" y="636" type="curve" smooth="yes"/>
      <point x="423" y="636"/>
      <point x="519" y="537"/>
      <point x="519" y="407" type="curve" smooth="yes"/>
      <point x="519" y="275"/>
      <point x="421" y="177"/>
      <point x="289" y="177" type="curve" smooth="yes"/>
      <point x="148" y="177"/>
      <point x="57" y="284"/>
      <point x="57" y="410" type="curve" smooth="yes"/>
      <point x="57" y="544"/>
      <point x="149" y="636"/>
    </contour>
  </outline>
</glyph>
<glyph name="knAA" format="1">
  <advance width="760"/>
  <unicode hex="0C86"/>
  <outline>
    <contour>
      <point x="134" y="366" type="curve" smooth="yes"/>
      <point x="159" y="334"/>
      <point x="188" y="313"/>
      <point x="221" y="313" type="curve" smooth="yes"/>
      <point x="252" y="313"/>
      <point x="278" y="331"/>
      <point x="278" y="363" type="curve" smooth="yes"/>
      <point x="278" y="394"/>
      <point x="255" y="419"/>
      <point x="219" y="419" type="curve" smooth="yes"/>
      <point x="159" y="419"/>
      <point x="123" y="330"/>
      <point x="123" y="253" type="curve" smooth="yes"/>
      <point x="123" y="144"/>
      <point x="216" y="60"/>
      <point x="380" y="60" type="curve" smooth="yes"/>
      <point x="501" y="60"/>
      <point x="573" y="107"/>
      <point x="573" y="160" type="curve" smooth="yes"/>
      <point x="573" y="189"/>
      <point x="553" y="214"/>
      <point x="535" y="235" type="curve" smooth="yes"/>
      <point x="508" y="267"/>
      <point x="482" y="303"/>
      <point x="482" y="348" type="curve" smooth="yes"/>
      <point x="482" y="410"/>
      <point x="529" y="468"/>
      <point x="601" y="468" type="curve" smooth="yes"/>
      <point x="675" y="468"/>
      <point x="725" y="415"/>
      <point x="725" y="344" type="curve" smooth="yes"/>
      <point x="725" y="272"/>
      <point x="666" y="186"/>
      <point x="479" y="186" type="curve" smooth="yes"/>
      <point x="365" y="186" type="line" smooth="yes"/>
      <point x="347" y="186"/>
      <point x="332" y="201"/>
      <point x="332" y="219" type="curve" smooth="yes"/>
      <point x="332" y="237"/>
      <point x="347" y="252"/>
      <point x="365" y="252" type="curve" smooth="yes"/>
      <point x="479" y="252" type="line" smooth="yes"/>
      <point x="588" y="252"/>
      <point x="659" y="292"/>
      <point x="659" y="344" type="curve" smooth="yes"/>
      <point x="659" y="377"/>
      <point x="635" y="402"/>
      <point x="601" y="402" type="curve" smooth="yes"/>
      <point x="569" y="402"/>
      <point x="548" y="376"/>
      <point x="548" y="348" type="curve" smooth="yes"/>
      <point x="548" y="319"/>
      <point x="568" y="297"/>
      <point x="585" y="277" type="curve" smooth="yes"/>
      <point x="613" y="244"/>
      <point x="639" y="205"/>
      <point x="639" y="160" type="curve" smooth="yes"/>
      <point x="639" y="89"/>
      <point x="581" y="-6"/>
      <point x="380" y="-6" type="curve" smooth="yes"/>
      <point x="160" y="-6"/>
      <point x="57" y="116"/>
      <point x="57" y="253" type="curve"/>
      <point x="57" y="382"/>
      <point x="135" y="485"/>
      <point x="219" y="485" type="curve" smooth="yes"/>
      <point x="299" y="485"/>
      <point x="344" y="430"/>
      <point x="344" y="363" type="curve" smooth="yes"/>
      <point x="344" y="295"/>
      <point x="292" y="247"/>
      <point x="221" y="247" type="curve" smooth="yes"/>
      <point x="170" y="247"/>
      <point x="121" y="274"/>
      <point x="82" y="326" type="curve" smooth="yes"/>
      <point x="71" y="340"/>
      <point x="74" y="361"/>
      <point x="88" y="372" type="curve" smooth="yes"/>
      <point x="102" y="383"/>
      <point x="123" y="380"/>
    </contour>
  </outline>
</glyph>
<glyph name="knvL" format="1">
  <advance width="892"/>
  <unicode hex="0C8C"/>
  <outline>
    <contour>
      <point x="76" y="242" type="curve" smooth="yes"/>
      <point x="59" y="272"/>
      <point x="49" y="302"/>
      <point x="49" y="338" type="curve" smooth="yes"/>
      <point x="49" y="410"/>
      <point x="99" y="477"/>
      <point x="189" y="477" type="curve" smooth="yes"/>
      <point x="263" y="477"/>
      <point x="321" y="426"/>
      <point x="365" y="346" type="curve"/>
      <point x="336" y="363" type="line"/>
      <point x="341" y="363" type="line"/>
      <point x="312" y="346" type="line"/>
      <point x="359" y="427"/>
      <point x="417" y="476"/>
      <point x="493" y="476" type="curve" smooth="yes"/>
      <point x="578" y="476"/>
      <point x="629" y="411"/>
      <point x="629" y="342" type="curve" smooth="yes"/>
      <point x="629" y="295"/>
      <point x="611" y="262"/>
      <point x="587" y="239" type="curve" smooth="yes"/>
      <point x="569" y="220"/>
      <point x="537" y="198"/>
      <point x="493" y="173" type="curve" smooth="yes"/>
      <point x="460" y="153"/>
      <point x="443" y="139"/>
      <point x="443" y="116" type="curve" smooth="yes"/>
      <point x="443" y="106"/>
      <point x="449" y="96"/>
      <point x="457" y="88" type="curve"/>
      <point x="472" y="74"/>
      <point x="513" y="60"/>
      <point x="581" y="60" type="curve" smooth="yes"/>
      <point x="660" y="60"/>
      <point x="703" y="81"/>
      <point x="732" y="109" type="curve" smooth="yes"/>
      <point x="755" y="133"/>
      <point x="771" y="168"/>
      <point x="771" y="213" type="curve" smooth="yes"/>
      <point x="771" y="265"/>
      <point x="754" y="354"/>
      <point x="715" y="420" type="curve" smooth="yes"/>
      <point x="706" y="435"/>
      <point x="711" y="456"/>
      <point x="726" y="465" type="curve" smooth="yes"/>
      <point x="741" y="474"/>
      <point x="762" y="469"/>
      <point x="771" y="454" type="curve" smooth="yes"/>
      <point x="818" y="376"/>
      <point x="837" y="273"/>
      <point x="837" y="213" type="curve" smooth="yes"/>
      <point x="837" y="147"/>
      <point x="813" y="97"/>
      <point x="778" y="63" type="curve" smooth="yes"/>
      <point x="741" y="25"/>
      <point x="686" y="-6"/>
      <point x="581" y="-6" type="curve" smooth="yes"/>
      <point x="485" y="-6"/>
      <point x="432" y="20"/>
      <point x="409" y="42" type="curve"/>
      <point x="389" y="64"/>
      <point x="377" y="90"/>
      <point x="377" y="116" type="curve" smooth="yes"/>
      <point x="377" y="157"/>
      <point x="392" y="191"/>
      <point x="461" y="231" type="curve" smooth="yes"/>
      <point x="497" y="252"/>
      <point x="525" y="270"/>
      <point x="541" y="285" type="curve" smooth="yes"/>
      <point x="553" y="298"/>
      <point x="563" y="317"/>
      <point x="563" y="342" type="curve" smooth="yes"/>
      <point x="563" y="377"/>
      <point x="536" y="410"/>
      <point x="493" y="410" type="curve" smooth="yes"/>
      <point x="439" y="410"/>
      <point x="401" y="369"/>
      <point x="370" y="314" type="curve" smooth="yes"/>
      <point x="364" y="304"/>
      <point x="352" y="297"/>
      <point x="341" y="297" type="curve" smooth="yes"/>
      <point x="336" y="297" type="line" smooth="yes"/>
      <point x="325" y="297"/>
      <point x="312" y="305"/>
      <point x="307" y="314" type="curve" smooth="yes"/>
      <point x="277" y="368"/>
      <point x="241" y="411"/>
      <point x="189" y="411" type="curve" smooth="yes"/>
      <point x="141" y="411"/>
      <point x="115" y="376"/>
      <point x="115" y="338" type="curve" smooth="yes"/>
      <point x="115" y="314"/>
      <point x="123" y="294"/>
      <point x="134" y="274" type="curve" smooth="yes"/>
      <point x="142" y="259"/>
      <point x="137" y="238"/>
      <point x="121" y="229" type="curve" smooth="yes"/>
      <point x="106" y="221"/>
      <point x="85" y="226"/>
    </contour>
  </outline>
</glyph>
<glyph name="knAU" format="1">
  <advance width="728"/>
  <unicode hex="0C94"/>
  <outline>
    <contour>
      <point x="90" y="670" type="curve" smooth="yes"/>
      <point x="439" y="670" type="line" smooth="yes"/>
      <point x="616" y="670"/>
      <point x="683" y="584"/>
      <point x="683" y="480" type="curve" smooth="yes"/>
      <point x="683" y="370"/>
      <point x="621" y="315"/>
      <point x="548" y="315" type="curve" smooth="yes"/>
      <point x="470" y="315"/>
      <point x="429" y="369"/>
      <point x="428" y="425" type="curve" smooth="yes"/>
      <point x="427" y="490"/>
      <point x="473" y="554"/>
      <point x="567" y="554" type="curve" smooth="yes"/>
      <point x="598" y="554"/>
      <point x="630" y="550"/>
      <point x="656" y="541" type="curve" smooth="yes"/>
      <point x="673" y="535"/>
      <point x="682" y="516"/>
      <point x="676" y="499" type="curve" smooth="yes"/>
      <point x="670" y="482"/>
      <point x="651" y="473"/>
      <point x="634" y="479" type="curve" smooth="yes"/>
      <point x="614" y="486"/>
      <point x="590" y="488"/>
      <point x="567" y="488" type="curve" smooth="yes"/>
      <point x="523" y="488"/>
      <point x="493" y="460"/>
      <point x="494" y="427" type="curve" smooth="yes"/>
      <point x="495" y="401"/>
      <point x="516" y="381"/>
      <point x="548" y="381" type="curve" smooth="yes"/>
      <point x="592" y="381"/>
      <point x="617" y="424"/>
      <point x="617" y="480" type="curve" smooth="yes"/>
      <point x="617" y="556"/>
      <point x="554" y="604"/>
      <point x="439" y="604" type="curve" smooth="yes"/>
      <point x="90" y="604" type="line" smooth="yes"/>
      <point x="72" y="604"/>
      <point x="57" y="619"/>
      <point x="57" y="637" type="curve" smooth="yes"/>
      <point x="57" y="655"/>
      <point x="72" y="670"/>
    </contour>
    <contour>
      <point x="95" y="509" type="curve" smooth="yes"/>
      <point x="171" y="509" type="line" smooth="yes"/>
      <point x="248" y="509"/>
      <point x="296" y="551"/>
      <point x="295" y="629" type="curve" smooth="yes"/>
      <point x="295" y="646"/>
      <point x="310" y="662"/>
      <point x="328" y="662" type="curve" smooth="yes"/>
      <point x="345" y="662"/>
      <point x="361" y="647"/>
      <point x="361" y="629" type="curve" smooth="yes"/>
      <point x="362" y="511"/>
      <point x="292" y="443"/>
      <point x="171" y="443" type="curve" smooth="yes"/>
      <point x="95" y="443" type="line" smooth="yes"/>
      <point x="77" y="443"/>
      <point x="62" y="458"/>
      <point x="62" y="476" type="curve" smooth="yes"/>
      <point x="62" y="494"/>
      <point x="77" y="509"/>
    </contour>
    <component base="knO" xOffset="2"/>
    <component base="knO" xOffset="2"/>
  </outline>
</glyph>
<glyph name="knKA" format="1">
  <advance width="683"/>
  <unicode hex="0C95"/>
  <outline>
    <contour>
      <point x="88" y="470" type="curve" smooth="yes"/>
      <point x="470" y="470" type="line" smooth="yes"/>
      <point x="529" y="470"/>
      <point x="564" y="490"/>
      <point x="590" y="532" type="curve" smooth="yes"/>
      <point x="599" y="547"/>
      <point x="620" y="552"/>
      <point x="635" y="543" type="curve" smooth="yes"/>
      <point x="650" y="534"/>
      <point x="655" y="513"/>
      <point x="646" y="498" type="curve" smooth="yes"/>
      <point x="608" y="436"/>
      <point x="557" y="404"/>
      <point x="470" y="404" type="curve" smooth="yes"/>
      <point x="88" y="404" type="line" smooth="yes"/>
      <point x="70" y="404"/>
      <point x="55" y="419"/>
      <point x="55" y="437" type="curve" smooth="yes"/>
      <point x="55" y="455"/>
      <point x="70" y="470"/>
    </contour>
    <contour>
      <point x="84" y="315" type="curve" smooth="yes"/>
      <point x="597" y="315" type="line" smooth="yes"/>
      <point x="615" y="315"/>
      <point x="630" y="300"/>
      <point x="630" y="282" type="curve" smooth="yes"/>
      <point x="630" y="264"/>
      <point x="615" y="249"/>
      <point x="597" y="249" type="curve" smooth="yes"/>
      <point x="84" y="249" type="line" smooth="yes"/>
      <point x="66" y="249"/>
      <point x="51" y="264"/>
      <point x="51" y="282" type="curve" smooth="yes"/>
      <point x="51" y="300"/>
      <point x="66" y="315"/>
    </contour>
    <contour>
      <point x="309" y="285" type="curve" smooth="yes"/>
      <point x="309" y="409" type="line" smooth="yes"/>
      <point x="309" y="427"/>
      <point x="324" y="442"/>
      <point x="342" y="442" type="curve" smooth="yes"/>
      <point x="360" y="442"/>
      <point x="375" y="427"/>
      <point x="375" y="409" type="curve" smooth="yes"/>
      <point x="375" y="285" type="line" smooth="yes"/>
      <point x="375" y="267"/>
      <point x="360" y="252"/>
      <point x="342" y="252" type="curve" smooth="yes"/>
      <point x="324" y="252"/>
      <point x="309" y="267"/>
    </contour>
    <contour>
      <point x="304" y="247" type="curve" smooth="yes"/>
      <point x="247" y="238"/>
      <point x="208" y="199"/>
      <point x="208" y="151" type="curve" smooth="yes"/>
      <point x="208" y="100"/>
      <point x="249" y="52"/>
      <point x="341" y="52" type="curve" smooth="yes"/>
      <point x="436" y="52"/>
      <point x="476" y="100"/>
      <point x="476" y="151" type="curve" smooth="yes"/>
      <point x="476" y="199"/>
      <point x="436" y="239"/>
      <point x="379" y="247" type="curve" smooth="yes"/>
      <point x="362" y="250"/>
      <point x="349" y="267"/>
      <point x="351" y="285" type="curve" smooth="yes"/>
      <point x="354" y="302"/>
      <point x="371" y="315"/>
      <point x="389" y="313" type="curve" smooth="yes"/>
      <point x="484" y="299"/>
      <point x="542" y="227"/>
      <point x="542" y="151" type="curve" smooth="yes"/>
      <point x="542" y="76"/>
      <point x="499" y="-14"/>
      <point x="341" y="-14" type="curve" smooth="yes"/>
      <point x="187" y="-14"/>
      <point x="142" y="74"/>
      <point x="142" y="151" type="curve" smooth="yes"/>
      <point x="142" y="227"/>
      <point x="199" y="298"/>
      <point x="294" y="313" type="curve" smooth="yes"/>
      <point x="311" y="315"/>
      <point x="329" y="303"/>
      <point x="332" y="285" type="curve" smooth="yes"/>
      <point x="334" y="268"/>
      <point x="322" y="250"/>
    </contour>
  </outline>
</glyph>
<glyph name="knDHA" format="1">
  <advance width="731"/>
  <unicode hex="0CA7"/>
  <outline>
    <contour>
      <point x="396" y="-89" type="curve" smooth="yes"/>
      <point x="396" y="-192" type="line" smooth="yes"/>
      <point x="396" y="-210"/>
      <point x="381" y="-225"/>
      <point x="363" y="-225" type="curve" smooth="yes"/>
      <point x="345" y="-225"/>
      <point x="330" y="-210"/>
      <point x="330" y="-192" type="curve" smooth="yes"/>
      <point x="330" y="-89" type="line" smooth="yes"/>
      <point x="330" y="-71"/>
      <point x="345" y="-56"/>
      <point x="363" y="-56" type="curve" smooth="yes"/>
      <point x="381" y="-56"/>
      <point x="396" y="-71"/>
    </contour>
    <component base="knDa" xOffset="5"/>
    <component base="knDA"/>
    <component base="knDa" xOffset="5"/>
    <component base="knDA"/>
  </outline>
</glyph>
<glyph name="knNA" format="1">
  <advance width="648"/>
  <unicode hex="0CA8"/>
  <outline>
    <contour>
      <point x="96" y="470" type="curve" smooth="yes"/>
      <point x="420" y="470" type="line" smooth="yes"/>
      <point x="479" y="470"/>
      <point x="514" y="490"/>
      <point x="540" y="532" type="curve" smooth="yes"/>
      <point x="549" y="547"/>
      <point x="570" y="552"/>
      <point x="585" y="543" type="curve" smooth="yes"/>
      <point x="600" y="534"/>
      <point x="605" y="513"/>
      <point x="596" y="498" type="curve" smooth="yes"/>
      <point x="558" y="436"/>
      <point x="507" y="404"/>
      <point x="420" y="404" type="curve" smooth="yes"/>
      <point x="96" y="404" type="line" smooth="yes"/>
      <point x="78" y="404"/>
      <point x="63" y="419"/>
      <point x="63" y="437" type="curve" smooth="yes"/>
      <point x="63" y="455"/>
      <point x="78" y="470"/>
    </contour>
    <contour>
      <point x="72" y="17" type="curve" smooth="yes"/>
      <point x="72" y="106"/>
      <point x="91" y="173"/>
      <point x="123" y="205" type="curve" smooth="yes"/>
      <point x="143" y="226"/>
      <point x="172" y="242"/>
      <point x="210" y="242" type="curve" smooth="yes"/>
      <point x="257" y="242"/>
      <point x="310" y="219"/>
      <point x="356" y="143" type="curve" smooth="yes"/>
      <point x="385" y="96"/>
      <point x="405" y="60"/>
      <point x="453" y="60" type="curve" smooth="yes"/>
      <point x="493" y="60"/>
      <point x="531" y="100"/>
      <point x="531" y="172" type="curve" smooth="yes"/>
      <point x="531" y="262"/>
      <point x="454" y="350"/>
      <point x="359" y="409" type="curve" smooth="yes"/>
      <point x="344" y="418"/>
      <point x="339" y="439"/>
      <point x="348" y="454" type="curve" smooth="yes"/>
      <point x="357" y="469"/>
      <point x="378" y="474"/>
      <point x="393" y="465" type="curve" smooth="yes"/>
      <point x="512" y="392"/>
      <point x="597" y="280"/>
      <point x="597" y="172" type="curve" smooth="yes"/>
      <point x="597" y="40"/>
      <point x="517" y="-6"/>
      <point x="453" y="-6" type="curve" smooth="yes"/>
      <point x="383" y="-6"/>
      <point x="345" y="34"/>
      <point x="300" y="109" type="curve" smooth="yes"/>
      <point x="272" y="155"/>
      <point x="241" y="176"/>
      <point x="210" y="176" type="curve" smooth="yes"/>
      <point x="192" y="176"/>
      <point x="179" y="168"/>
      <point x="169" y="159" type="curve" smooth="yes"/>
      <point x="145" y="135"/>
      <point x="138" y="82"/>
      <point x="138" y="17" type="curve" smooth="yes"/>
      <point x="138" y="-1"/>
      <point x="123" y="-16"/>
      <point x="105" y="-16" type="curve" smooth="yes"/>
      <point x="87" y="-16"/>
      <point x="72" y="-1"/>
    </contour>
  </outline>
</glyph>
<glyph name="knPHA" format="1">
  <advance width="726"/>
  <unicode hex="0CAB"/>
  <outline>
    <contour>
      <point x="397" y="-89" type="curve" smooth="yes"/>
      <point x="397" y="-192" type="line" smooth="yes"/>
      <point x="397" y="-210"/>
      <point x="382" y="-225"/>
      <point x="364" y="-225" type="curve" smooth="yes"/>
      <point x="346" y="-225"/>
      <point x="331" y="-210"/>
      <point x="331" y="-192" type="curve" smooth="yes"/>
      <point x="331" y="-89" type="line" smooth="yes"/>
      <point x="331" y="-71"/>
      <point x="346" y="-56"/>
      <point x="364" y="-56" type="curve" smooth="yes"/>
      <point x="382" y="-56"/>
      <point x="397" y="-71"/>
    </contour>
    <component base="knPa" xOffset="5"/>
    <component base="knPA"/>
    <component base="knPa" xOffset="5"/>
    <component base="knPA"/>
  </outline>
</glyph>
<glyph name="knBA" format="1">
  <advance width="733"/>
  <unicode hex="0CAC"/>
  <outline>
    <contour>
      <point x="57" y="428" type="curve" smooth="yes"/>
      <point x="89" y="464"/>
      <point x="128" y="485"/>
      <point x="173" y="485" type="curve" smooth="yes"/>
      <point x="247" y="485"/>
      <point x="291" y="435"/>
      <point x="291" y="375" type="curve" smooth="yes"/>
      <point x="291" y="329"/>
      <point x="269" y="287"/>
      <point x="200" y="231" type="curve" smooth="yes"/>
      <point x="161" y="200"/>
      <point x="133" y="168"/>
      <point x="133" y="129" type="curve" smooth="yes"/>
      <point x="133" y="90"/>
      <point x="163" y="60"/>
      <point x="212" y="60" type="curve" smooth="yes"/>
      <point x="268" y="60"/>
      <point x="306" y="90"/>
      <point x="341" y="145" type="curve" smooth="yes"/>
      <point x="346" y="154"/>
      <point x="359" y="161"/>
      <point x="369" y="161" type="curve" smooth="yes"/>
      <point x="374" y="161" type="line" smooth="yes"/>
      <point x="385" y="161"/>
      <point x="397" y="154"/>
      <point x="403" y="144" type="curve" smooth="yes"/>
      <point x="434" y="89"/>
      <point x="472" y="60"/>
      <point x="526" y="60" type="curve" smooth="yes"/>
      <point x="579" y="60"/>
      <point x="617" y="106"/>
      <point x="617" y="179" type="curve" smooth="yes"/>
      <point x="617" y="269"/>
      <point x="570" y="353"/>
      <point x="494" y="411" type="curve" smooth="yes"/>
      <point x="480" y="421"/>
      <point x="477" y="443"/>
      <point x="488" y="457" type="curve" smooth="yes"/>
      <point x="498" y="471"/>
      <point x="520" y="474"/>
      <point x="534" y="463" type="curve" smooth="yes"/>
      <point x="628" y="393"/>
      <point x="683" y="289"/>
      <point x="683" y="179" type="curve" smooth="yes"/>
      <point x="683" y="54"/>
      <point x="609" y="-6"/>
      <point x="526" y="-6" type="curve" smooth="yes"/>
      <point x="448" y="-6"/>
      <point x="392" y="31"/>
      <point x="345" y="112" type="curve"/>
      <point x="374" y="95" type="line"/>
      <point x="369" y="95" type="line"/>
      <point x="397" y="111" type="line"/>
      <point x="348" y="30"/>
      <point x="290" y="-6"/>
      <point x="212" y="-6" type="curve" smooth="yes"/>
      <point x="115" y="-6"/>
      <point x="67" y="58"/>
      <point x="67" y="129" type="curve" smooth="yes"/>
      <point x="67" y="186"/>
      <point x="101" y="236"/>
      <point x="158" y="283" type="curve" smooth="yes"/>
      <point x="203" y="319"/>
      <point x="225" y="343"/>
      <point x="225" y="375" type="curve" smooth="yes"/>
      <point x="225" y="401"/>
      <point x="203" y="419"/>
      <point x="173" y="419" type="curve" smooth="yes"/>
      <point x="146" y="419"/>
      <point x="125" y="404"/>
      <point x="107" y="384" type="curve" smooth="yes"/>
      <point x="95" y="371"/>
      <point x="73" y="370"/>
      <point x="60" y="381" type="curve" smooth="yes"/>
      <point x="47" y="393"/>
      <point x="46" y="415"/>
    </contour>
  </outline>
</glyph>
<glyph name="knYA" format="1">
  <advance width="1214"/>
  <unicode hex="0CAF"/>
  <outline>
    <contour>
      <point x="52" y="227" type="curve"/>
      <point x="52" y="348"/>
      <point x="159" y="470"/>
      <point x="296" y="470" type="curve" smooth="yes"/>
      <point x="435" y="470"/>
      <point x="540" y="346"/>
      <point x="540" y="227" type="curve" smooth="yes"/>
      <point x="540" y="94"/>
      <point x="446" y="-10"/>
      <point x="296" y="-10" type="curve" smooth="yes"/>
      <point x="144" y="-10"/>
      <point x="52" y="92"/>
    </contour>
    <contour>
      <point x="118" y="227" type="curve" smooth="yes"/>
      <point x="118" y="128"/>
      <point x="186" y="56"/>
      <point x="296" y="56" type="curve" smooth="yes"/>
      <point x="404" y="56"/>
      <point x="474" y="130"/>
      <point x="474" y="227" type="curve" smooth="yes"/>
      <point x="474" y="314"/>
      <point x="397" y="404"/>
      <point x="296" y="404" type="curve" smooth="yes"/>
      <point x="197" y="404"/>
      <point x="118" y="316"/>
    </contour>
    <contour>
      <point x="584" y="470" type="curve" smooth="yes"/>
      <point x="696" y="470" type="line" smooth="yes"/>
      <point x="755" y="470"/>
      <point x="790" y="490"/>
      <point x="816" y="532" type="curve" smooth="yes"/>
      <point x="825" y="547"/>
      <point x="846" y="552"/>
      <point x="861" y="543" type="curve" smooth="yes"/>
      <point x="876" y="534"/>
      <point x="881" y="513"/>
      <point x="872" y="498" type="curve" smooth="yes"/>
      <point x="834" y="436"/>
      <point x="783" y="404"/>
      <point x="696" y="404" type="curve" smooth="yes"/>
      <point x="584" y="404" type="line" smooth="yes"/>
      <point x="566" y="404"/>
      <point x="551" y="419"/>
      <point x="551" y="437" type="curve" smooth="yes"/>
      <point x="551" y="455"/>
      <point x="566" y="470"/>
    </contour>
    <component base="knsignU" xOffset="598"/>
    <component base="knsignU" xOffset="909"/>
    <component base="knsignU" xOffset="598"/>
    <component base="knsignU" xOffset="909"/>
  </outline>
</glyph>
<glyph name="knRA" format="1">
  <advance width="643"/>
  <unicode hex="0CB0"/>
  <outline>
    <contour>
      <point x="80" y="227" type="curve" smooth="yes"/>
      <point x="80" y="355"/>
      <point x="188" y="470"/>
      <point x="329" y="470" type="curve" smooth="yes"/>
      <point x="474" y="470"/>
      <point x="572" y="353"/>
      <point x="572" y="227" type="curve" smooth="yes"/>
      <point x="572" y="94"/>
      <point x="479" y="-10"/>
      <point x="327" y="-10" type="curve" smooth="yes"/>
      <point x="177" y="-10"/>
      <point x="80" y="92"/>
    </contour>
    <contour>
      <point x="84" y="470" type="curve" smooth="yes"/>
      <point x="452" y="470" type="line" smooth="yes"/>
      <point x="511" y="470"/>
      <point x="546" y="490"/>
      <point x="572" y="532" type="curve" smooth="yes"/>
      <point x="581" y="547"/>
      <point x="602" y="552"/>
      <point x="617" y="543" type="curve" smooth="yes"/>
      <point x="632" y="534"/>
      <point x="637" y="513"/>
      <point x="628" y="498" type="curve" smooth="yes"/>
      <point x="590" y="436"/>
      <point x="539" y="404"/>
      <point x="452" y="404" type="curve" smooth="yes"/>
      <point x="84" y="404" type="line" smooth="yes"/>
      <point x="66" y="404"/>
      <point x="51" y="419"/>
      <point x="51" y="437" type="curve" smooth="yes"/>
      <point x="51" y="455"/>
      <point x="66" y="470"/>
    </contour>
    <contour>
      <point x="146" y="227" type="curve" smooth="yes"/>
      <point x="146" y="128"/>
      <point x="219" y="56"/>
      <point x="327" y="56" type="curve" smooth="yes"/>
      <point x="437" y="56"/>
      <point x="506" y="130"/>
      <point x="506" y="227" type="curve" smooth="yes"/>
      <point x="506" y="319"/>
      <point x="434" y="404"/>
      <point x="329" y="404" type="curve" smooth="yes"/>
      <point x="226" y="404"/>
      <point x="146" y="321"/>
    </contour>
  </outline>
</glyph>
<glyph name="knLA" format="1">
  <advance width="711"/>
  <unicode hex="0CB2"/>
  <outline>
    <contour>
      <point x="132" y="366" type="curve" smooth="yes"/>
      <point x="157" y="334"/>
      <point x="186" y="313"/>
      <point x="219" y="313" type="curve" smooth="yes"/>
      <point x="250" y="313"/>
      <point x="276" y="331"/>
      <point x="276" y="363" type="curve" smooth="yes"/>
      <point x="276" y="394"/>
      <point x="253" y="419"/>
      <point x="217" y="419" type="curve" smooth="yes"/>
      <point x="157" y="419"/>
      <point x="121" y="330"/>
      <point x="121" y="253" type="curve" smooth="yes"/>
      <point x="121" y="145"/>
      <point x="210" y="60"/>
      <point x="364" y="60" type="curve" smooth="yes"/>
      <point x="524" y="60"/>
      <point x="589" y="155"/>
      <point x="589" y="249" type="curve" smooth="yes"/>
      <point x="589" y="318"/>
      <point x="553" y="374"/>
      <point x="504" y="410" type="curve" smooth="yes"/>
      <point x="489" y="421"/>
      <point x="486" y="442"/>
      <point x="496" y="456" type="curve" smooth="yes"/>
      <point x="507" y="471"/>
      <point x="528" y="474"/>
      <point x="542" y="464" type="curve" smooth="yes"/>
      <point x="609" y="416"/>
      <point x="655" y="340"/>
      <point x="655" y="249" type="curve" smooth="yes"/>
      <point x="655" y="127"/>
      <point x="580" y="-6"/>
      <point x="364" y="-6" type="curve" smooth="yes"/>
      <point x="158" y="-6"/>
      <point x="55" y="115"/>
      <point x="55" y="253" type="curve"/>
      <point x="55" y="382"/>
      <point x="133" y="485"/>
      <point x="217" y="485" type="curve" smooth="yes"/>
      <point x="297" y="485"/>
      <point x="342" y="430"/>
      <point x="342" y="363" type="curve" smooth="yes"/>
      <point x="342" y="295"/>
      <point x="290" y="247"/>
      <point x="219" y="247" type="curve" smooth="yes"/>
      <point x="168" y="247"/>
      <point x="119" y="274"/>
      <point x="80" y="326" type="curve" smooth="yes"/>
      <point x="69" y="340"/>
      <point x="72" y="361"/>
      <point x="86" y="372" type="curve" smooth="yes"/>
      <point x="100" y="383"/>
      <point x="121" y="380"/>
    </contour>
  </outline>
</glyph>
<glyph name="knsignvR" format="1">
  <advance width="155"/>
  <unicode hex="0CC3"/>
  <outline>
    <contour>
      <point x="-199" y="-208" type="curve" smooth="yes"/>
      <point x="-185" y="-218"/>
      <point x="-170" y="-229"/>
      <point x="-139" y="-229" type="curve" smooth="yes"/>
      <point x="-117" y="-229"/>
      <point x="-96" y="-213"/>
      <point x="-96" y="-185" type="curve" smooth="yes"/>
      <point x="-96" y="-166"/>
      <point x="-109" y="-148"/>
      <point x="-136" y="-148" type="curve" smooth="yes"/>
      <point x="-169" y="-148"/>
      <point x="-189" y="-181"/>
      <point x="-189" y="-216" type="curve" smooth="yes"/>
      <point x="-189" y="-258"/>
      <point x="-176" y="-292"/>
      <point x="-148" y="-320" type="curve" smooth="yes"/>
      <point x="-123" y="-345"/>
      <point x="-83" y="-357"/>
      <point x="-42" y="-357" type="curve" smooth="yes"/>
      <point x="2" y="-357"/>
      <point x="37" y="-344"/>
      <point x="62" y="-319" type="curve" smooth="yes"/>
      <point x="90" y="-291"/>
      <point x="103" y="-248"/>
      <point x="103" y="-193" type="curve" smooth="yes"/>
      <point x="103" y="-140"/>
      <point x="80" y="-50"/>
      <point x="48" y="38" type="curve" smooth="yes"/>
      <point x="42" y="53"/>
      <point x="50" y="71"/>
      <point x="66" y="76" type="curve" smooth="yes"/>
      <point x="81" y="82"/>
      <point x="99" y="74"/>
      <point x="104" y="58" type="curve" smooth="yes"/>
      <point x="140" y="-38"/>
      <point x="163" y="-136"/>
      <point x="163" y="-193" type="curve" smooth="yes"/>
      <point x="163" y="-268"/>
      <point x="142" y="-323"/>
      <point x="104" y="-361" type="curve" smooth="yes"/>
      <point x="69" y="-396"/>
      <point x="20" y="-417"/>
      <point x="-42" y="-417" type="curve" smooth="yes"/>
      <point x="-99" y="-417"/>
      <point x="-155" y="-397"/>
      <point x="-190" y="-362" type="curve" smooth="yes"/>
      <point x="-230" y="-322"/>
      <point x="-249" y="-276"/>
      <point x="-249" y="-216" type="curve" smooth="yes"/>
      <point x="-249" y="-141"/>
      <point x="-199" y="-88"/>
      <point x="-136" y="-88" type="curve" smooth="yes"/>
      <point x="-67" y="-88"/>
      <point x="-36" y="-136"/>
      <point x="-36" y="-185" type="curve" smooth="yes"/>
      <point x="-36" y="-251"/>
      <point x="-87" y="-289"/>
      <point x="-139" y="-289" type="curve" smooth="yes"/>
      <point x="-188" y="-289"/>
      <point x="-213" y="-272"/>
      <point x="-235" y="-256" type="curve" smooth="yes"/>
      <point x="-248" y="-247"/>
      <point x="-251" y="-228"/>
      <point x="-241" y="-214" type="curve" smooth="yes"/>
      <point x="-232" y="-201"/>
      <point x="-213" y="-198"/>
    </contour>
  </outline>
</glyph>
<glyph name="knVirama" format="1">
  <advance width="248"/>
  <unicode hex="0CCD"/>
  <outline>
    <contour>
      <point x="-218" y="470" type="curve" smooth="yes"/>
      <point x="67" y="470" type="line" smooth="yes"/>
      <point x="185" y="470"/>
      <point x="227" y="399"/>
      <point x="227" y="339" type="curve" smooth="yes"/>
      <point x="227" y="273"/>
      <point x="183" y="222"/>
      <point x="112" y="222" type="curve" smooth="yes"/>
      <point x="45" y="222"/>
      <point x="-9" y="269"/>
      <point x="-9" y="347" type="curve" smooth="yes"/>
      <point x="-9" y="415"/>
      <point x="29" y="504"/>
      <point x="147" y="580" type="curve" smooth="yes"/>
      <point x="162" y="589"/>
      <point x="183" y="585"/>
      <point x="193" y="570" type="curve" smooth="yes"/>
      <point x="202" y="555"/>
      <point x="198" y="534"/>
      <point x="183" y="524" type="curve" smooth="yes"/>
      <point x="93" y="466"/>
      <point x="57" y="401"/>
      <point x="57" y="347" type="curve" smooth="yes"/>
      <point x="57" y="311"/>
      <point x="81" y="288"/>
      <point x="112" y="288" type="curve" smooth="yes"/>
      <point x="143" y="288"/>
      <point x="161" y="311"/>
      <point x="161" y="339" type="curve" smooth="yes"/>
      <point x="161" y="375"/>
      <point x="125" y="404"/>
      <point x="67" y="404" type="curve" smooth="yes"/>
      <point x="-218" y="404" type="line" smooth="yes"/>
      <point x="-236" y="404"/>
      <point x="-251" y="419"/>
      <point x="-251" y="437" type="curve" smooth="yes"/>
      <point x="-251" y="455"/>
      <point x="-236" y="470"/>
    </contour>
  </outline>
</glyph>
<glyph name="knThree" format="1">
  <advance width="645"/>
  <unicode hex="0CE9"/>
  <outline>
    <contour>
      <point x="299" y="446" type="curve" smooth="yes"/>
      <point x="306" y="428"/>
      <point x="314" y="404"/>
      <point x="314" y="377" type="curve" smooth="yes"/>
      <point x="314" y="310"/>
      <point x="265" y="259"/>
      <point x="182" y="259" type="curve" smooth="yes"/>
      <point x="108" y="259"/>
      <point x="61" y="310"/>
      <point x="61" y="369" type="curve" smooth="yes"/>
      <point x="61" y="421"/>
      <point x="98" y="484"/>
      <point x="191" y="484" type="curve" smooth="yes"/>
      <point x="336" y="484"/>
      <point x="415" y="377"/>
      <point x="415" y="242" type="curve" smooth="yes"/>
      <point x="415" y="128"/>
      <point x="345" y="-10"/>
      <point x="191" y="-10" type="curve" smooth="yes"/>
      <point x="80" y="-10"/>
      <point x="50" y="51"/>
      <point x="50" y="101" type="curve" smooth="yes"/>
      <point x="50" y="148"/>
      <point x="90" y="212"/>
      <point x="180" y="212" type="curve" smooth="yes"/>
      <point x="253" y="212"/>
      <point x="311" y="177"/>
      <point x="373" y="125" type="curve" smooth="yes"/>
      <point x="424" y="82"/>
      <point x="453" y="60"/>
      <point x="491" y="60" type="curve" smooth="yes"/>
      <point x="527" y="60"/>
      <point x="546" y="80"/>
      <point x="559" y="107" type="curve" smooth="yes"/>
      <point x="567" y="123"/>
      <point x="588" y="129"/>
      <point x="604" y="122" type="curve" smooth="yes"/>
      <point x="620" y="114"/>
      <point x="626" y="93"/>
      <point x="619" y="77" type="curve" smooth="yes"/>
      <point x="594" y="28"/>
      <point x="555" y="-6"/>
      <point x="491" y="-6" type="curve" smooth="yes"/>
      <point x="441" y="-6"/>
      <point x="400" y="16"/>
      <point x="331" y="75" type="curve" smooth="yes"/>
      <point x="283" y="115"/>
      <point x="237" y="146"/>
      <point x="180" y="146" type="curve" smooth="yes"/>
      <point x="144" y="146"/>
      <point x="116" y="124"/>
      <point x="116" y="101" type="curve" smooth="yes"/>
      <point x="116" y="75"/>
      <point x="146" y="56"/>
      <point x="191" y="56" type="curve" smooth="yes"/>
      <point x="305" y="56"/>
      <point x="349" y="162"/>
      <point x="349" y="242" type="curve" smooth="yes"/>
      <point x="349" y="337"/>
      <point x="296" y="418"/>
      <point x="191" y="418" type="curve" smooth="yes"/>
      <point x="152" y="418"/>
      <point x="127" y="395"/>
      <point x="127" y="369" type="curve" smooth="yes"/>
      <point x="127" y="342"/>
      <point x="152" y="325"/>
      <point x="182" y="325" type="curve" smooth="yes"/>
      <point x="219" y="325"/>
      <point x="248" y="344"/>
      <point x="248" y="377" type="curve" smooth="yes"/>
      <point x="248" y="394"/>
      <point x="242" y="410"/>
      <point x="237" y="422" type="curve" smooth="yes"/>
      <point x="231" y="438"/>
      <point x="239" y="458"/>
      <point x="256" y="465" type="curve" smooth="yes"/>
      <point x="272" y="471"/>
      <point x="292" y="463"/>
    </contour>
  </outline>
</glyph>
<glyph name="zerowidthjoiner" format="1">
  <advance width="0"/>
  <unicode hex="200D"/>
  <outline>
    <contour>
      <point x="28" y="662" type="curve" smooth="yes"/>
      <point x="28" y="-286" type="line" smooth="yes"/>
      <point x="28" y="-304"/>
      <point x="13" y="-319"/>
      <point x="-5" y="-319" type="curve" smooth="yes"/>
      <point x="-23" y="-319"/>
      <point x="-38" y="-304"/>
      <point x="-38" y="-286" type="curve" smooth="yes"/>
      <point x="-38" y="662" type="line" smooth="yes"/>
      <point x="-38" y="680"/>
      <point x="-23" y="695"/>
      <point x="-5" y="695" type="curve" smooth="yes"/>
      <point x="13" y="695"/>
      <point x="28" y="680"/>
    </contour>
    <contour>
      <point x="-77" y="781" type="curve" smooth="yes"/>
      <point x="113" y="591" type="line" smooth="yes"/>
      <point x="126" y="579"/>
      <point x="126" y="557"/>
      <point x="113" y="545" type="curve" smooth="yes"/>
      <point x="101" y="532"/>
      <point x="79" y="532"/>
      <point x="67" y="545" type="curve" smooth="yes"/>
      <point x="-123" y="735" type="line" smooth="yes"/>
      <point x="-136" y="747"/>
      <point x="-136" y="769"/>
      <point x="-123" y="781" type="curve" smooth="yes"/>
      <point x="-111" y="794"/>
      <point x="-89" y="794"/>
    </contour>
    <contour>
      <point x="-123" y="591" type="curve" smooth="yes"/>
      <point x="67" y="781" type="line" smooth="yes"/>
      <point x="79" y="794"/>
      <point x="101" y="794"/>
      <point x="113" y="781" type="curve" smooth="yes"/>
      <point x="126" y="769"/>
      <point x="126" y="747"/>
      <point x="113" y="735" type="curve" smooth="yes"/>
      <point x="-77" y="545" type="line" smooth="yes"/>
      <point x="-89" y="532"/>
      <point x="-111" y="532"/>
      <point x="-123" y="545" type="curve" smooth="yes"/>
      <point x="-136" y="557"/>
      <point x="-136" y="579"/>
    </contour>
  </outline>
</glyph>
<glyph name="endash" format="1">
  <advance width="516"/>
  <unicode hex="2013"/>
  <outline>
    <contour>
      <point x="114" y="255" type="curve" smooth="yes"/>
      <point x="402" y="255" type="line" smooth="yes"/>
      <point x="420" y="255"/>
      <point x="435" y="240"/>
      <point x="435" y="222" type="curve" smooth="yes"/>
      <point x="435" y="204"/>
      <point x="420" y="189"/>
      <point x="402" y="189" type="curve" smooth="yes"/>
      <point x="114" y="189" type="line" smooth="yes"/>
      <point x="96" y="189"/>
      <point x="81" y="204"/>
      <point x="81" y="222" type="curve" smooth="yes"/>
      <point x="81" y="240"/>
      <point x="96" y="255"/>
    </contour>
  </outline>
</glyph>
<glyph name="quoteleft" format="1">
  <advance width="235"/>
  <unicode hex="2018"/>
  <outline>
    <contour>
      <point x="131" y="385" type="curve" smooth="yes"/>
      <point x="100" y="426"/>
      <point x="83" y="479"/>
      <point x="83" y="532" type="curve" smooth="yes"/>
      <point x="83" y="555"/>
      <point x="86" y="577"/>
      <point x="91" y="591" type="curve" smooth="yes"/>
      <point x="96" y="608"/>
      <point x="116" y="618"/>
      <point x="132" y="612" type="curve" smooth="yes"/>
      <point x="149" y="607"/>
      <point x="159" y="587"/>
      <point x="153" y="571" type="curve" smooth="yes"/>
      <point x="150" y="561"/>
      <point x="149" y="547"/>
      <point x="149" y="532" type="curve" smooth="yes"/>
      <point x="149" y="493"/>
      <point x="162" y="454"/>
      <point x="183" y="425" type="curve" smooth="yes"/>
      <point x="194" y="410"/>
      <point x="191" y="389"/>
      <point x="177" y="379" type="curve" smooth="yes"/>
      <point x="162" y="368"/>
      <point x="141" y="371"/>
    </contour>
  </outline>
</glyph>
<glyph name="uni20BA" format="1">
  <advance width="505"/>
  <unicode hex="20BA"/>
  <outline>
    <contour>
      <point x="179" y="512" type="curve" smooth="yes"/>
      <point x="179" y="27" type="line" smooth="yes"/>
      <point x="179" y="9"/>
      <point x="164" y="-6"/>
      <point x="146" y="-6" type="curve" smooth="yes"/>
      <point x="128" y="-6"/>
      <point x="113" y="9"/>
      <point x="113" y="27" type="curve" smooth="yes"/>
      <point x="113" y="512" type="line" smooth="yes"/>
      <point x="113" y="530"/>
      <point x="128" y="545"/>
      <point x="146" y="545" type="curve" smooth="yes"/>
      <point x="164" y="545"/>
      <point x="179" y="530"/>
    </contour>
    <contour>
      <point x="155" y="60" type="curve" smooth="yes"/>
      <point x="263" y="57" type="line"/>
      <point x="261" y="57" type="line"/>
      <point x="340" y="59"/>
      <point x="393" y="99"/>
      <point x="401" y="175" type="curve" smooth="yes"/>
      <point x="403" y="192"/>
      <point x="420" y="206"/>
      <point x="438" y="204" type="curve" smooth="yes"/>
      <point x="455" y="202"/>
      <point x="469" y="185"/>
      <point x="467" y="167" type="curve" smooth="yes"/>
      <point x="455" y="57"/>
      <point x="380" y="-5"/>
      <point x="263" y="-9" type="curve" smooth="yes"/>
      <point x="262" y="-9"/>
      <point x="262" y="-9"/>
      <point x="261" y="-9" type="curve" smooth="yes"/>
      <point x="153" y="-6" type="line" smooth="yes"/>
      <point x="135" y="-5"/>
      <point x="121" y="10"/>
      <point x="121" y="28" type="curve" smooth="yes"/>
      <point x="122" y="46"/>
      <point x="137" y="60"/>
    </contour>
    <contour>
      <point x="315" y="400" type="curve" smooth="yes"/>
      <point x="79" y="310" type="line" smooth="yes"/>
      <point x="62" y="304"/>
      <point x="43" y="313"/>
      <point x="36" y="329" type="curve" smooth="yes"/>
      <point x="30" y="346"/>
      <point x="39" y="365"/>
      <point x="55" y="372" type="curve" smooth="yes"/>
      <point x="291" y="462" type="line" smooth="yes"/>
      <point x="308" y="468"/>
      <point x="327" y="459"/>
      <point x="334" y="443" type="curve" smooth="yes"/>
      <point x="340" y="426"/>
      <point x="331" y="407"/>
    </contour>
    <contour>
      <point x="315" y="241" type="curve" smooth="yes"/>
      <point x="79" y="151" type="line" smooth="yes"/>
      <point x="62" y="145"/>
      <point x="43" y="154"/>
      <point x="36" y="170" type="curve" smooth="yes"/>
      <point x="30" y="187"/>
      <point x="39" y="206"/>
      <point x="55" y="213" type="curve" smooth="yes"/>
      <point x="291" y="303" type="line" smooth="yes"/>
      <point x="308" y="309"/>
      <point x="327" y="300"/>
      <point x="334" y="284" type="curve" smooth="yes"/>
      <point x="340" y="267"/>
      <point x="331" y="248"/>
    </contour>
  </outline>
</glyph>
<glyph name="summation" format="1">
  <advance width="495"/>
  <unicode hex="2211"/>
  <outline>
    <contour>
      <point x="291" y="247" type="curve" smooth="yes"/>
      <point x="94" y="6" type="line" smooth="yes"/>
      <point x="82" y="-8"/>
      <point x="61" y="-10"/>
      <point x="47" y="1" type="curve" smooth="yes"/>
      <point x="33" y="13"/>
      <point x="31" y="34"/>
      <point x="42" y="48" type="curve" smooth="yes"/>
      <point x="239" y="289" type="line" smooth="yes"/>
      <point x="251" y="303"/>
      <point x="272" y="305"/>
      <point x="286" y="294" type="curve" smooth="yes"/>
      <point x="300" y="282"/>
      <point x="302" y="261"/>
    </contour>
    <contour>
      <point x="76" y="60" type="curve" smooth="yes"/>
      <point x="407" y="60" type="line" smooth="yes"/>
      <point x="425" y="60"/>
      <point x="440" y="45"/>
      <point x="440" y="27" type="curve" smooth="yes"/>
      <point x="440" y="9"/>
      <point x="425" y="-6"/>
      <point x="407" y="-6" type="curve" smooth="yes"/>
      <point x="76" y="-6" type="line" smooth="yes"/>
      <point x="58" y="-6"/>
      <point x="43" y="9"/>
      <point x="43" y="27" type="curve" smooth="yes"/>
      <point x="43" y="45"/>
      <point x="58" y="60"/>
    </contour>
    <contour>
      <point x="86" y="545" type="curve" smooth="yes"/>
      <point x="402" y="545" type="line" smooth="yes"/>
      <point x="420" y="545"/>
      <point x="435" y="530"/>
      <point x="435" y="512" type="curve" smooth="yes"/>
      <point x="435" y="494"/>
      <point x="420" y="479"/>
      <point x="402" y="479" type="curve" smooth="yes"/>
      <point x="86" y="479" type="line" smooth="yes"/>
      <point x="68" y="479"/>
      <point x="53" y="494"/>
      <point x="53" y="512" type="curve" smooth="yes"/>
      <point x="53" y="530"/>
      <point x="68" y="545"/>
    </contour>
    <contour>
      <point x="105" y="532" type="curve" smooth="yes"/>
      <point x="292" y="295" type="line" smooth="yes"/>
      <point x="303" y="281"/>
      <point x="300" y="260"/>
      <point x="286" y="249" type="curve" smooth="yes"/>
      <point x="272" y="238"/>
      <point x="251" y="241"/>
      <point x="240" y="255" type="curve" smooth="yes"/>
      <point x="53" y="492" type="line" smooth="yes"/>
      <point x="42" y="506"/>
      <point x="45" y="527"/>
      <point x="59" y="538" type="curve" smooth="yes"/>
      <point x="73" y="549"/>
      <point x="94" y="546"/>
    </contour>
  </outline>
</glyph>
<glyph name="dotaccentcmb.cap" format="1">
  <advance width="0"/>
  <outline>
    <contour>
      <point x="0" y="752" type="curve" smooth="yes"/>
      <point x="24" y="752"/>
      <point x="51" y="731"/>
      <point x="51" y="691" type="curve" smooth="yes"/>
      <point x="51" y="654"/>
      <point x="26" y="633"/>
      <point x="0" y="633" type="curve" smooth="yes"/>
      <point x="-30" y="633"/>
      <point x="-54" y="658"/>
      <point x="-54" y="691" type="curve"/>
      <point x="-54" y="727"/>
      <point x="-28" y="752"/>
    </contour>
    <contour>
      <point x="0" y="686" type="curve" smooth="yes"/>
      <point x="2" y="686"/>
      <point x="12" y="683"/>
      <point x="12" y="691" type="curve" smooth="yes"/>
      <point x="12" y="698"/>
      <point x="4" y="699"/>
      <point x="0" y="699" type="curve" smooth="yes"/>
      <point x="-4" y="699"/>
      <point x="-15" y="702"/>
      <point x="-15" y="691" type="curve"/>
      <point x="-15" y="679"/>
      <point x="-2" y="686"/>
    </contour>
  </outline>
</glyph>
<glyph name="gravecmb.cap" format="1">
  <advance width="0"/>
  <outline>
    <contour>
      <point x="-89" y="759" type="curve" smooth="yes"/>
      <point x="-52" y="738"/>
      <point x="3" y="697"/>
      <point x="31" y="675" type="curve" smooth="yes"/>
      <point x="45" y="664"/>
      <point x="48" y="643"/>
      <point x="37" y="629" type="curve" smooth="yes"/>
      <point x="26" y="615"/>
      <point x="5" y="612"/>
      <point x="-9" y="623" type="curve" smooth="yes"/>
      <point x="-35" y="643"/>
      <point x="-86" y="682"/>
      <point x="-121" y="701" type="curve" smooth="yes"/>
      <point x="-137" y="710"/>
      <point x="-143" y="730"/>
      <point x="-134" y="746" type="curve" smooth="yes"/>
      <point x="-125" y="762"/>
      <point x="-105" y="768"/>
    </contour>
  </outline>
</glyph>
<glyph name="knAIlengthmark.following" format="1">
  <advance width="450"/>
  <outline>
    <contour>
      <point x="98" y="-209" type="curve" smooth="yes"/>
      <point x="119" y="-221"/>
      <point x="135" y="-229"/>
      <point x="160" y="-229" type="curve" smooth="yes"/>
      <point x="182" y="-229"/>
      <point x="202" y="-213"/>
      <point x="202" y="-187" type="curve" smooth="yes"/>
      <point x="202" y="-168"/>
      <point x="189" y="-149"/>
      <point x="162" y="-149" type="curve" smooth="yes"/>
      <point x="129" y="-149"/>
      <point x="111" y="-184"/>
      <point x="111" y="-218" type="curve" smooth="yes"/>
      <point x="111" y="-258"/>
      <point x="126" y="-289"/>
      <point x="153" y="-316" type="curve" smooth="yes"/>
      <point x="178" y="-342"/>
      <point x="221" y="-355"/>
      <point x="263" y="-355" type="curve" smooth="yes"/>
      <point x="307" y="-355"/>
      <point x="345" y="-340"/>
      <point x="368" y="-318" type="curve" smooth="yes"/>
      <point x="387" y="-298"/>
      <point x="398" y="-273"/>
      <point x="398" y="-242" type="curve" smooth="yes"/>
      <point x="398" y="-213"/>
      <point x="386" y="-188"/>
      <point x="368" y="-169" type="curve" smooth="yes"/>
      <point x="356" y="-157"/>
      <point x="336" y="-147"/>
      <point x="321" y="-143" type="curve" smooth="yes"/>
      <point x="306" y="-138"/>
      <point x="297" y="-120"/>
      <point x="301" y="-105" type="curve" smooth="yes"/>
      <point x="306" y="-90"/>
      <point x="324" y="-81"/>
      <point x="339" y="-85" type="curve" smooth="yes"/>
      <point x="362" y="-93"/>
      <point x="394" y="-109"/>
      <point x="410" y="-127" type="curve" smooth="yes"/>
      <point x="440" y="-156"/>
      <point x="458" y="-195"/>
      <point x="458" y="-242" type="curve" smooth="yes"/>
      <point x="458" y="-289"/>
      <point x="441" y="-328"/>
      <point x="410" y="-360" type="curve" smooth="yes"/>
      <point x="379" y="-392"/>
      <point x="325" y="-415"/>
      <point x="263" y="-415" type="curve" smooth="yes"/>
      <point x="204" y="-415"/>
      <point x="146" y="-394"/>
      <point x="109" y="-358" type="curve" smooth="yes"/>
      <point x="72" y="-319"/>
      <point x="51" y="-276"/>
      <point x="51" y="-218" type="curve"/>
      <point x="51" y="-144"/>
      <point x="99" y="-89"/>
      <point x="162" y="-89" type="curve" smooth="yes"/>
      <point x="231" y="-89"/>
      <point x="262" y="-140"/>
      <point x="262" y="-187" type="curve" smooth="yes"/>
      <point x="262" y="-251"/>
      <point x="212" y="-289"/>
      <point x="160" y="-289" type="curve" smooth="yes"/>
      <point x="123" y="-289"/>
      <point x="99" y="-279"/>
      <point x="68" y="-261" type="curve" smooth="yes"/>
      <point x="54" y="-253"/>
      <point x="49" y="-234"/>
      <point x="57" y="-220" type="curve" smooth="yes"/>
      <point x="65" y="-206"/>
      <point x="84" y="-201"/>
    </contour>
    <contour>
      <point x="326" y="-83" type="curve" smooth="yes"/>
      <point x="361" y="-73"/>
      <point x="388" y="-57"/>
      <point x="388" y="-27" type="curve" smooth="yes"/>
      <point x="388" y="-6"/>
      <point x="370" y="10"/>
      <point x="349" y="21" type="curve" smooth="yes"/>
      <point x="334" y="28"/>
      <point x="328" y="47"/>
      <point x="335" y="61" type="curve" smooth="yes"/>
      <point x="342" y="76"/>
      <point x="361" y="82"/>
      <point x="375" y="75" type="curve" smooth="yes"/>
      <point x="422" y="52"/>
      <point x="448" y="14"/>
      <point x="448" y="-27" type="curve" smooth="yes"/>
      <point x="448" y="-79"/>
      <point x="413" y="-119"/>
      <point x="344" y="-141" type="curve" smooth="yes"/>
      <point x="328" y="-145"/>
      <point x="311" y="-136"/>
      <point x="306" y="-121" type="curve" smooth="yes"/>
      <point x="302" y="-105"/>
      <point x="311" y="-88"/>
    </contour>
  </outline>
</glyph>
<glyph name="knBAc2.following" format="1">
  <advance width="449"/>
  <outline>
    <contour>
      <point x="34" y="-108" type="curve" smooth="yes"/>
      <point x="59" y="-94"/>
      <point x="79" y="-90"/>
      <point x="104" y="-90" type="curve" smooth="yes"/>
      <point x="151" y="-90"/>
      <point x="196" y="-129"/>
      <point x="196" y="-174" type="curve" smooth="yes"/>
      <point x="196" y="-209"/>
      <point x="177" y="-235"/>
      <point x="131" y="-262" type="curve" smooth="yes"/>
      <point x="111" y="-274"/>
      <point x="96" y="-288"/>
      <point x="96" y="-306" type="curve" smooth="yes"/>
      <point x="96" y="-326"/>
      <point x="115" y="-339"/>
      <point x="141" y="-339" type="curve" smooth="yes"/>
      <point x="174" y="-339"/>
      <point x="201" y="-316"/>
      <point x="233" y="-287" type="curve" smooth="yes"/>
      <point x="237" y="-283"/>
      <point x="247" y="-279"/>
      <point x="253" y="-279" type="curve" smooth="yes"/>
      <point x="257" y="-279" type="line" smooth="yes"/>
      <point x="264" y="-279"/>
      <point x="274" y="-283"/>
      <point x="279" y="-288" type="curve" smooth="yes"/>
      <point x="308" y="-319"/>
      <point x="329" y="-339"/>
      <point x="359" y="-339" type="curve" smooth="yes"/>
      <point x="401" y="-339"/>
      <point x="407" y="-291"/>
      <point x="407" y="-247" type="curve" smooth="yes"/>
      <point x="407" y="-155"/>
      <point x="377" y="-51"/>
      <point x="347" y="38" type="curve" smooth="yes"/>
      <point x="341" y="54"/>
      <point x="350" y="71"/>
      <point x="365" y="76" type="curve" smooth="yes"/>
      <point x="381" y="82"/>
      <point x="398" y="73"/>
      <point x="403" y="58" type="curve" smooth="yes"/>
      <point x="435" y="-37"/>
      <point x="467" y="-149"/>
      <point x="467" y="-247" type="curve" smooth="yes"/>
      <point x="467" y="-347"/>
      <point x="429" y="-399"/>
      <point x="359" y="-399" type="curve" smooth="yes"/>
      <point x="315" y="-399"/>
      <point x="280" y="-377"/>
      <point x="235" y="-330" type="curve"/>
      <point x="257" y="-339" type="line"/>
      <point x="253" y="-339" type="line"/>
      <point x="273" y="-331" type="line"/>
      <point x="227" y="-374"/>
      <point x="186" y="-399"/>
      <point x="141" y="-399" type="curve" smooth="yes"/>
      <point x="69" y="-399"/>
      <point x="36" y="-352"/>
      <point x="36" y="-306" type="curve"/>
      <point x="36" y="-270"/>
      <point x="57" y="-236"/>
      <point x="101" y="-210" type="curve" smooth="yes"/>
      <point x="119" y="-199"/>
      <point x="136" y="-191"/>
      <point x="136" y="-174" type="curve" smooth="yes"/>
      <point x="136" y="-159"/>
      <point x="117" y="-150"/>
      <point x="104" y="-150" type="curve" smooth="yes"/>
      <point x="89" y="-150"/>
      <point x="77" y="-152"/>
      <point x="62" y="-160" type="curve" smooth="yes"/>
      <point x="48" y="-168"/>
      <point x="30" y="-163"/>
      <point x="22" y="-148" type="curve" smooth="yes"/>
      <point x="14" y="-134"/>
      <point x="19" y="-116"/>
    </contour>
  </outline>
</glyph>
<glyph name="knBHAc2.following" format="1">
  <advance width="449"/>
  <outline>
    <contour>
      <point x="282" y="-447" type="curve" smooth="yes"/>
      <point x="282" y="-513" type="line" smooth="yes"/>
      <point x="282" y="-529"/>
      <point x="268" y="-543"/>
      <point x="252" y="-543" type="curve" smooth="yes"/>
      <point x="236" y="-543"/>
      <point x="222" y="-529"/>
      <point x="222" y="-513" type="curve" smooth="yes"/>
      <point x="222" y="-447" type="line" smooth="yes"/>
      <point x="222" y="-431"/>
      <point x="236" y="-417"/>
      <point x="252" y="-417" type="curve" smooth="yes"/>
      <point x="268" y="-417"/>
      <point x="282" y="-431"/>
    </contour>
    <contour>
      <point x="34" y="-108" type="curve" smooth="yes"/>
      <point x="59" y="-94"/>
      <point x="79" y="-90"/>
      <point x="104" y="-90" type="curve" smooth="yes"/>
      <point x="151" y="-90"/>
      <point x="196" y="-129"/>
      <point x="196" y="-174" type="curve" smooth="yes"/>
      <point x="196" y="-209"/>
      <point x="177" y="-235"/>
      <point x="131" y="-262" type="curve" smooth="yes"/>
      <point x="111" y="-274"/>
      <point x="96" y="-288"/>
      <point x="96" y="-306" type="curve" smooth="yes"/>
      <point x="96" y="-326"/>
      <point x="115" y="-339"/>
      <point x="141" y="-339" type="curve" smooth="yes"/>
      <point x="174" y="-339"/>
      <point x="201" y="-316"/>
      <point x="233" y="-287" type="curve" smooth="yes"/>
      <point x="237" y="-283"/>
      <point x="247" y="-279"/>
      <point x="253" y="-279" type="curve" smooth="yes"/>
      <point x="257" y="-279" type="line" smooth="yes"/>
      <point x="264" y="-279"/>
      <point x="274" y="-283"/>
      <point x="279" y="-288" type="curve" smooth="yes"/>
      <point x="308" y="-319"/>
      <point x="329" y="-339"/>
      <point x="359" y="-339" type="curve" smooth="yes"/>
      <point x="401" y="-339"/>
      <point x="407" y="-291"/>
      <point x="407" y="-247" type="curve" smooth="yes"/>
      <point x="407" y="-155"/>
      <point x="377" y="-51"/>
      <point x="347" y="38" type="curve" smooth="yes"/>
      <point x="341" y="54"/>
      <point x="350" y="71"/>
      <point x="365" y="76" type="curve" smooth="yes"/>
      <point x="381" y="82"/>
      <point x="398" y="73"/>
      <point x="403" y="58" type="curve" smooth="yes"/>
      <point x="435" y="-37"/>
      <point x="467" y="-149"/>
      <point x="467" y="-247" type="curve" smooth="yes"/>
      <point x="467" y="-347"/>
      <point x="429" y="-399"/>
      <point x="359" y="-399" type="curve" smooth="yes"/>
      <point x="315" y="-399"/>
      <point x="280" y="-377"/>
      <point x="235" y="-330" type="curve"/>
      <point x="257" y="-339" type="line"/>
      <point x="253" y="-339" type="line"/>
      <point x="273" y="-331" type="line"/>
      <point x="227" y="-374"/>
      <point x="186" y="-399"/>
      <point x="141" y="-399" type="curve" smooth="yes"/>
      <point x="69" y="-399"/>
      <point x="36" y="-352"/>
      <point x="36" y="-306" type="curve"/>
      <point x="36" y="-270"/>
      <point x="57" y="-236"/>
      <point x="101" y="-210" type="curve" smooth="yes"/>
      <point x="119" y="-199"/>
      <point x="136" y="-191"/>
      <point x="136" y="-174" type="curve" smooth="yes"/>
      <point x="136" y="-159"/>
      <point x="117" y="-150"/>
      <point x="104" y="-150" type="curve" smooth="yes"/>
      <point x="89" y="-150"/>
      <point x="77" y="-152"/>
      <point x="62" y="-160" type="curve" smooth="yes"/>
      <point x="48" y="-168"/>
      <point x="30" y="-163"/>
      <point x="22" y="-148" type="curve" smooth="yes"/>
      <point x="14" y="-134"/>
      <point x="19" y="-116"/>
    </contour>
  </outline>
</glyph>
<glyph name="knCAc2.following" format="1">
  <advance width="400"/>
  <outline>
    <contour>
      <point x="393" y="-190" type="curve" smooth="yes"/>
      <point x="569" y="-190" type="line" smooth="yes"/>
      <point x="585" y="-190"/>
      <point x="599" y="-204"/>
      <point x="599" y="-220" type="curve" smooth="yes"/>
      <point x="599" y="-236"/>
      <point x="585" y="-250"/>
      <point x="569" y="-250" type="curve" smooth="yes"/>
      <point x="393" y="-250" type="line" smooth="yes"/>
      <point x="377" y="-250"/>
      <point x="363" y="-236"/>
      <point x="363" y="-220" type="curve" smooth="yes"/>
      <point x="363" y="-204"/>
      <point x="377" y="-190"/>
    </contour>
    <contour>
      <point x="105" y="-117" type="curve" smooth="yes"/>
      <point x="129" y="-103"/>
      <point x="150" y="-99"/>
      <point x="179" y="-99" type="curve" smooth="yes"/>
      <point x="232" y="-99"/>
      <point x="272" y="-136"/>
      <point x="272" y="-183" type="curve" smooth="yes"/>
      <point x="272" y="-218"/>
      <point x="250" y="-245"/>
      <point x="203" y="-275" type="curve" smooth="yes"/>
      <point x="180" y="-291"/>
      <point x="167" y="-311"/>
      <point x="167" y="-330" type="curve" smooth="yes"/>
      <point x="167" y="-350"/>
      <point x="186" y="-363"/>
      <point x="212" y="-363" type="curve" smooth="yes"/>
      <point x="245" y="-363"/>
      <point x="272" y="-340"/>
      <point x="304" y="-311" type="curve" smooth="yes"/>
      <point x="308" y="-307"/>
      <point x="318" y="-303"/>
      <point x="324" y="-303" type="curve" smooth="yes"/>
      <point x="328" y="-303" type="line" smooth="yes"/>
      <point x="335" y="-303"/>
      <point x="345" y="-307"/>
      <point x="350" y="-313" type="curve" smooth="yes"/>
      <point x="379" y="-344"/>
      <point x="406" y="-363"/>
      <point x="439" y="-363" type="curve" smooth="yes"/>
      <point x="470" y="-363"/>
      <point x="491" y="-345"/>
      <point x="491" y="-314" type="curve" smooth="yes"/>
      <point x="491" y="-293"/>
      <point x="482" y="-274"/>
      <point x="469" y="-257" type="curve" smooth="yes"/>
      <point x="459" y="-245"/>
      <point x="462" y="-225"/>
      <point x="475" y="-215" type="curve" smooth="yes"/>
      <point x="487" y="-205"/>
      <point x="507" y="-208"/>
      <point x="517" y="-221" type="curve" smooth="yes"/>
      <point x="538" y="-248"/>
      <point x="551" y="-279"/>
      <point x="551" y="-314" type="curve" smooth="yes"/>
      <point x="551" y="-381"/>
      <point x="508" y="-423"/>
      <point x="439" y="-423" type="curve" smooth="yes"/>
      <point x="392" y="-423"/>
      <point x="349" y="-400"/>
      <point x="306" y="-353" type="curve"/>
      <point x="328" y="-363" type="line"/>
      <point x="324" y="-363" type="line"/>
      <point x="344" y="-355" type="line"/>
      <point x="298" y="-398"/>
      <point x="257" y="-423"/>
      <point x="212" y="-423" type="curve" smooth="yes"/>
      <point x="140" y="-423"/>
      <point x="107" y="-376"/>
      <point x="107" y="-330" type="curve" smooth="yes"/>
      <point x="107" y="-295"/>
      <point x="126" y="-255"/>
      <point x="171" y="-225" type="curve" smooth="yes"/>
      <point x="192" y="-211"/>
      <point x="212" y="-202"/>
      <point x="212" y="-183" type="curve" smooth="yes"/>
      <point x="212" y="-166"/>
      <point x="194" y="-159"/>
      <point x="179" y="-159" type="curve" smooth="yes"/>
      <point x="162" y="-159"/>
      <point x="149" y="-161"/>
      <point x="133" y="-169" type="curve" smooth="yes"/>
      <point x="119" y="-177"/>
      <point x="101" y="-172"/>
      <point x="93" y="-157" type="curve" smooth="yes"/>
      <point x="85" y="-143"/>
      <point x="90" y="-125"/>
    </contour>
  </outline>
</glyph>
<glyph name="knCHAc2.following" format="1">
  <advance width="449"/>
  <outline>
    <contour>
      <point x="280" y="-436" type="curve" smooth="yes"/>
      <point x="280" y="-505" type="line" smooth="yes"/>
      <point x="280" y="-521"/>
      <point x="266" y="-535"/>
      <point x="250" y="-535" type="curve" smooth="yes"/>
      <point x="234" y="-535"/>
      <point x="220" y="-521"/>
      <point x="220" y="-505" type="curve" smooth="yes"/>
      <point x="220" y="-436" type="line" smooth="yes"/>
      <point x="220" y="-420"/>
      <point x="234" y="-406"/>
      <point x="250" y="-406" type="curve" smooth="yes"/>
      <point x="266" y="-406"/>
      <point x="280" y="-420"/>
    </contour>
    <contour>
      <point x="69" y="-181" type="curve" smooth="yes"/>
      <point x="83" y="-192"/>
      <point x="106" y="-200"/>
      <point x="127" y="-200" type="curve" smooth="yes"/>
      <point x="147" y="-200"/>
      <point x="160" y="-186"/>
      <point x="160" y="-168" type="curve" smooth="yes"/>
      <point x="160" y="-150"/>
      <point x="148" y="-136"/>
      <point x="125" y="-136" type="curve" smooth="yes"/>
      <point x="89" y="-136"/>
      <point x="69" y="-183"/>
      <point x="69" y="-233" type="curve" smooth="yes"/>
      <point x="69" y="-285"/>
      <point x="101" y="-318"/>
      <point x="142" y="-318" type="curve" smooth="yes"/>
      <point x="175" y="-318"/>
      <point x="198" y="-303"/>
      <point x="221" y="-270" type="curve" smooth="yes"/>
      <point x="226" y="-263"/>
      <point x="237" y="-257"/>
      <point x="246" y="-257" type="curve" smooth="yes"/>
      <point x="250" y="-257" type="line" smooth="yes"/>
      <point x="258" y="-257"/>
      <point x="269" y="-262"/>
      <point x="274" y="-269" type="curve" smooth="yes"/>
      <point x="299" y="-302"/>
      <point x="320" y="-318"/>
      <point x="350" y="-318" type="curve" smooth="yes"/>
      <point x="387" y="-318"/>
      <point x="407" y="-285"/>
      <point x="407" y="-225" type="curve" smooth="yes"/>
      <point x="407" y="-149"/>
      <point x="379" y="-46"/>
      <point x="346" y="37" type="curve" smooth="yes"/>
      <point x="340" y="52"/>
      <point x="348" y="70"/>
      <point x="363" y="76" type="curve" smooth="yes"/>
      <point x="378" y="82"/>
      <point x="396" y="74"/>
      <point x="402" y="59" type="curve" smooth="yes"/>
      <point x="437" y="-32"/>
      <point x="467" y="-143"/>
      <point x="467" y="-225" type="curve" smooth="yes"/>
      <point x="467" y="-347"/>
      <point x="411" y="-378"/>
      <point x="350" y="-378" type="curve" smooth="yes"/>
      <point x="304" y="-378"/>
      <point x="267" y="-358"/>
      <point x="226" y="-305" type="curve"/>
      <point x="250" y="-317" type="line"/>
      <point x="246" y="-317" type="line"/>
      <point x="271" y="-304" type="line"/>
      <point x="234" y="-357"/>
      <point x="193" y="-378"/>
      <point x="142" y="-378" type="curve" smooth="yes"/>
      <point x="73" y="-378"/>
      <point x="9" y="-327"/>
      <point x="9" y="-233" type="curve" smooth="yes"/>
      <point x="9" y="-129"/>
      <point x="67" y="-76"/>
      <point x="125" y="-76" type="curve" smooth="yes"/>
      <point x="190" y="-76"/>
      <point x="220" y="-118"/>
      <point x="220" y="-168" type="curve" smooth="yes"/>
      <point x="220" y="-220"/>
      <point x="183" y="-260"/>
      <point x="127" y="-260" type="curve" smooth="yes"/>
      <point x="92" y="-260"/>
      <point x="57" y="-246"/>
      <point x="33" y="-229" type="curve" smooth="yes"/>
      <point x="20" y="-220"/>
      <point x="17" y="-200"/>
      <point x="27" y="-187" type="curve" smooth="yes"/>
      <point x="36" y="-174"/>
      <point x="56" y="-171"/>
    </contour>
  </outline>
</glyph>
<glyph name="knCHAc2" format="1">
  <advance width="149"/>
  <outline>
    <contour>
      <point x="-20" y="-436" type="curve" smooth="yes"/>
      <point x="-20" y="-505" type="line" smooth="yes"/>
      <point x="-20" y="-521"/>
      <point x="-34" y="-535"/>
      <point x="-50" y="-535" type="curve" smooth="yes"/>
      <point x="-66" y="-535"/>
      <point x="-80" y="-521"/>
      <point x="-80" y="-505" type="curve" smooth="yes"/>
      <point x="-80" y="-436" type="line" smooth="yes"/>
      <point x="-80" y="-420"/>
      <point x="-66" y="-406"/>
      <point x="-50" y="-406" type="curve" smooth="yes"/>
      <point x="-34" y="-406"/>
      <point x="-20" y="-420"/>
    </contour>
    <contour>
      <point x="-231" y="-181" type="curve" smooth="yes"/>
      <point x="-217" y="-192"/>
      <point x="-194" y="-200"/>
      <point x="-173" y="-200" type="curve" smooth="yes"/>
      <point x="-153" y="-200"/>
      <point x="-140" y="-186"/>
      <point x="-140" y="-168" type="curve" smooth="yes"/>
      <point x="-140" y="-150"/>
      <point x="-152" y="-136"/>
      <point x="-175" y="-136" type="curve" smooth="yes"/>
      <point x="-211" y="-136"/>
      <point x="-231" y="-183"/>
      <point x="-231" y="-233" type="curve" smooth="yes"/>
      <point x="-231" y="-285"/>
      <point x="-199" y="-318"/>
      <point x="-158" y="-318" type="curve" smooth="yes"/>
      <point x="-125" y="-318"/>
      <point x="-102" y="-303"/>
      <point x="-79" y="-270" type="curve" smooth="yes"/>
      <point x="-74" y="-263"/>
      <point x="-63" y="-257"/>
      <point x="-54" y="-257" type="curve" smooth="yes"/>
      <point x="-50" y="-257" type="line" smooth="yes"/>
      <point x="-42" y="-257"/>
      <point x="-31" y="-262"/>
      <point x="-26" y="-269" type="curve" smooth="yes"/>
      <point x="-1" y="-302"/>
      <point x="20" y="-318"/>
      <point x="50" y="-318" type="curve" smooth="yes"/>
      <point x="87" y="-318"/>
      <point x="107" y="-285"/>
      <point x="107" y="-225" type="curve" smooth="yes"/>
      <point x="107" y="-149"/>
      <point x="79" y="-46"/>
      <point x="46" y="37" type="curve" smooth="yes"/>
      <point x="40" y="52"/>
      <point x="48" y="70"/>
      <point x="63" y="76" type="curve" smooth="yes"/>
      <point x="78" y="82"/>
      <point x="96" y="74"/>
      <point x="102" y="59" type="curve" smooth="yes"/>
      <point x="137" y="-32"/>
      <point x="167" y="-143"/>
      <point x="167" y="-225" type="curve" smooth="yes"/>
      <point x="167" y="-347"/>
      <point x="111" y="-378"/>
      <point x="50" y="-378" type="curve" smooth="yes"/>
      <point x="4" y="-378"/>
      <point x="-33" y="-358"/>
      <point x="-74" y="-305" type="curve"/>
      <point x="-50" y="-317" type="line"/>
      <point x="-54" y="-317" type="line"/>
      <point x="-29" y="-304" type="line"/>
      <point x="-66" y="-357"/>
      <point x="-107" y="-378"/>
      <point x="-158" y="-378" type="curve" smooth="yes"/>
      <point x="-227" y="-378"/>
      <point x="-291" y="-327"/>
      <point x="-291" y="-233" type="curve" smooth="yes"/>
      <point x="-291" y="-129"/>
      <point x="-233" y="-76"/>
      <point x="-175" y="-76" type="curve" smooth="yes"/>
      <point x="-110" y="-76"/>
      <point x="-80" y="-118"/>
      <point x="-80" y="-168" type="curve" smooth="yes"/>
      <point x="-80" y="-220"/>
      <point x="-117" y="-260"/>
      <point x="-173" y="-260" type="curve" smooth="yes"/>
      <point x="-208" y="-260"/>
      <point x="-243" y="-246"/>
      <point x="-267" y="-229" type="curve" smooth="yes"/>
      <point x="-280" y="-220"/>
      <point x="-283" y="-200"/>
      <point x="-273" y="-187" type="curve" smooth="yes"/>
      <point x="-264" y="-174"/>
      <point x="-244" y="-171"/>
    </contour>
  </outline>
</glyph>
<glyph name="knCHI" format="1">
  <advance width="764"/>
  <outline>
    <contour>
      <point x="429" y="-89" type="curve" smooth="yes"/>
      <point x="429" y="-192" type="line" smooth="yes"/>
      <point x="429" y="-210"/>
      <point x="414" y="-225"/>
      <point x="396" y="-225" type="curve" smooth="yes"/>
      <point x="378" y="-225"/>
      <point x="363" y="-210"/>
      <point x="363" y="-192" type="curve" smooth="yes"/>
      <point x="363" y="-89" type="line" smooth="yes"/>
      <point x="363" y="-71"/>
      <point x="378" y="-56"/>
      <point x="396" y="-56" type="curve" smooth="yes"/>
      <point x="414" y="-56"/>
      <point x="429" y="-71"/>
    </contour>
    <contour>
      <point x="429" y="-89" type="curve" smooth="yes"/>
      <point x="429" y="-192" type="line" smooth="yes"/>
      <point x="429" y="-210"/>
      <point x="414" y="-225"/>
      <point x="396" y="-225" type="curve" smooth="yes"/>
      <point x="378" y="-225"/>
      <point x="363" y="-210"/>
      <point x="363" y="-192" type="curve" smooth="yes"/>
      <point x="363" y="-89" type="line" smooth="yes"/>
      <point x="363" y="-71"/>
      <point x="378" y="-56"/>
      <point x="396" y="-56" type="curve" smooth="yes"/>
      <point x="414" y="-56"/>
      <point x="429" y="-71"/>
    </contour>
    <contour>
      <point x="147" y="372" type="curve" smooth="yes"/>
      <point x="168" y="341"/>
      <point x="192" y="319"/>
      <point x="224" y="319" type="curve" smooth="yes"/>
      <point x="253" y="319"/>
      <point x="279" y="337"/>
      <point x="279" y="368" type="curve" smooth="yes"/>
      <point x="279" y="399"/>
      <point x="257" y="419"/>
      <point x="224" y="419" type="curve" smooth="yes"/>
      <point x="165" y="419"/>
      <point x="127" y="321"/>
      <point x="127" y="229" type="curve" smooth="yes"/>
      <point x="127" y="137"/>
      <point x="172" y="61"/>
      <point x="251" y="60" type="curve" smooth="yes"/>
      <point x="304" y="59"/>
      <point x="335" y="89"/>
      <point x="364" y="144" type="curve" smooth="yes"/>
      <point x="369" y="153"/>
      <point x="382" y="161"/>
      <point x="393" y="161" type="curve" smooth="yes"/>
      <point x="398" y="161" type="line" smooth="yes"/>
      <point x="409" y="161"/>
      <point x="421" y="154"/>
      <point x="427" y="144" type="curve" smooth="yes"/>
      <point x="457" y="90"/>
      <point x="494" y="60"/>
      <point x="547" y="60" type="curve" smooth="yes"/>
      <point x="606" y="60"/>
      <point x="644" y="117"/>
      <point x="644" y="196" type="curve" smooth="yes"/>
      <point x="644" y="328"/>
      <point x="570" y="490"/>
      <point x="483" y="578" type="curve" smooth="yes"/>
      <point x="434" y="627"/>
      <point x="404" y="644"/>
      <point x="368" y="644" type="curve" smooth="yes"/>
      <point x="332" y="644"/>
      <point x="312" y="619"/>
      <point x="312" y="595" type="curve" smooth="yes"/>
      <point x="312" y="570"/>
      <point x="338" y="549"/>
      <point x="366" y="549" type="curve" smooth="yes"/>
      <point x="403" y="549"/>
      <point x="436" y="572"/>
      <point x="455" y="602" type="curve" smooth="yes"/>
      <point x="464" y="618"/>
      <point x="485" y="622"/>
      <point x="500" y="613" type="curve" smooth="yes"/>
      <point x="516" y="604"/>
      <point x="520" y="583"/>
      <point x="511" y="568" type="curve" smooth="yes"/>
      <point x="480" y="518"/>
      <point x="425" y="483"/>
      <point x="366" y="483" type="curve" smooth="yes"/>
      <point x="298" y="483"/>
      <point x="246" y="538"/>
      <point x="246" y="595" type="curve" smooth="yes"/>
      <point x="246" y="647"/>
      <point x="284" y="710"/>
      <point x="368" y="710" type="curve" smooth="yes"/>
      <point x="418" y="710"/>
      <point x="460" y="693"/>
      <point x="529" y="624" type="curve" smooth="yes"/>
      <point x="628" y="526"/>
      <point x="710" y="344"/>
      <point x="710" y="196" type="curve" smooth="yes"/>
      <point x="710" y="63"/>
      <point x="634" y="-6"/>
      <point x="547" y="-6" type="curve" smooth="yes"/>
      <point x="472" y="-6"/>
      <point x="415" y="32"/>
      <point x="369" y="112" type="curve"/>
      <point x="398" y="95" type="line"/>
      <point x="393" y="95" type="line"/>
      <point x="422" y="112" type="line"/>
      <point x="377" y="29"/>
      <point x="328" y="-7"/>
      <point x="251" y="-6" type="curve" smooth="yes"/>
      <point x="140" y="-5"/>
      <point x="61" y="89"/>
      <point x="61" y="229" type="curve"/>
      <point x="61" y="383"/>
      <point x="145" y="485"/>
      <point x="224" y="485" type="curve" smooth="yes"/>
      <point x="301" y="485"/>
      <point x="345" y="435"/>
      <point x="345" y="368" type="curve" smooth="yes"/>
      <point x="345" y="299"/>
      <point x="291" y="253"/>
      <point x="224" y="253" type="curve" smooth="yes"/>
      <point x="172" y="253"/>
      <point x="128" y="283"/>
      <point x="93" y="336" type="curve" smooth="yes"/>
      <point x="83" y="351"/>
      <point x="87" y="372"/>
      <point x="102" y="381" type="curve" smooth="yes"/>
      <point x="117" y="391"/>
      <point x="138" y="387"/>
    </contour>
  </outline>
</glyph>
<glyph name="knDDAc2.following" format="1">
  <advance width="400"/>
  <outline>
    <contour>
      <point x="324" y="-97" type="curve" smooth="yes"/>
      <point x="484" y="-97"/>
      <point x="562" y="-222"/>
      <point x="562" y="-298" type="curve" smooth="yes"/>
      <point x="562" y="-374"/>
      <point x="505" y="-422"/>
      <point x="434" y="-422" type="curve" smooth="yes"/>
      <point x="375" y="-422"/>
      <point x="341" y="-400"/>
      <point x="300" y="-358" type="curve"/>
      <point x="322" y="-367" type="line"/>
      <point x="321" y="-367" type="line"/>
      <point x="345" y="-356" type="line"/>
      <point x="309" y="-401"/>
      <point x="268" y="-422"/>
      <point x="219" y="-422" type="curve" smooth="yes"/>
      <point x="148" y="-422"/>
      <point x="97" y="-378"/>
      <point x="97" y="-298" type="curve" smooth="yes"/>
      <point x="97" y="-222"/>
      <point x="172" y="-97"/>
    </contour>
    <contour>
      <point x="324" y="-157" type="curve" smooth="yes"/>
      <point x="218" y="-157"/>
      <point x="157" y="-242"/>
      <point x="157" y="-298" type="curve" smooth="yes"/>
      <point x="157" y="-338"/>
      <point x="182" y="-362"/>
      <point x="219" y="-362" type="curve" smooth="yes"/>
      <point x="250" y="-362"/>
      <point x="275" y="-347"/>
      <point x="297" y="-318" type="curve" smooth="yes"/>
      <point x="302" y="-312"/>
      <point x="313" y="-307"/>
      <point x="321" y="-307" type="curve" smooth="yes"/>
      <point x="322" y="-307" type="line" smooth="yes"/>
      <point x="329" y="-307"/>
      <point x="339" y="-311"/>
      <point x="344" y="-316" type="curve" smooth="yes"/>
      <point x="371" y="-344"/>
      <point x="393" y="-362"/>
      <point x="434" y="-362" type="curve" smooth="yes"/>
      <point x="471" y="-362"/>
      <point x="502" y="-338"/>
      <point x="502" y="-298" type="curve" smooth="yes"/>
      <point x="502" y="-242"/>
      <point x="436" y="-157"/>
    </contour>
    <contour>
      <point x="431" y="-189" type="curve" smooth="yes"/>
      <point x="413" y="-201"/>
      <point x="401" y="-217"/>
      <point x="401" y="-237" type="curve" smooth="yes"/>
      <point x="401" y="-255"/>
      <point x="416" y="-266"/>
      <point x="433" y="-266" type="curve" smooth="yes"/>
      <point x="449" y="-266"/>
      <point x="464" y="-259"/>
      <point x="474" y="-249" type="curve" smooth="yes"/>
      <point x="486" y="-238"/>
      <point x="506" y="-239"/>
      <point x="517" y="-250" type="curve" smooth="yes"/>
      <point x="528" y="-262"/>
      <point x="527" y="-282"/>
      <point x="516" y="-293" type="curve" smooth="yes"/>
      <point x="494" y="-313"/>
      <point x="465" y="-326"/>
      <point x="433" y="-326" type="curve" smooth="yes"/>
      <point x="382" y="-326"/>
      <point x="341" y="-287"/>
      <point x="341" y="-237" type="curve" smooth="yes"/>
      <point x="341" y="-197"/>
      <point x="361" y="-163"/>
      <point x="399" y="-139" type="curve" smooth="yes"/>
      <point x="412" y="-130"/>
      <point x="431" y="-134"/>
      <point x="440" y="-148" type="curve" smooth="yes"/>
      <point x="449" y="-161"/>
      <point x="445" y="-180"/>
    </contour>
  </outline>
</glyph>
<glyph name="knDDHAc2.following" format="1">
  <advance width="400"/>
  <outline>
    <contour>
      <point x="324" y="-97" type="curve" smooth="yes"/>
      <point x="484" y="-97"/>
      <point x="562" y="-222"/>
      <point x="562" y="-298" type="curve" smooth="yes"/>
      <point x="562" y="-374"/>
      <point x="505" y="-422"/>
      <point x="434" y="-422" type="curve" smooth="yes"/>
      <point x="375" y="-422"/>
      <point x="341" y="-400"/>
      <point x="300" y="-358" type="curve"/>
      <point x="322" y="-367" type="line"/>
      <point x="321" y="-367" type="line"/>
      <point x="345" y="-356" type="line"/>
      <point x="309" y="-401"/>
      <point x="268" y="-422"/>
      <point x="219" y="-422" type="curve" smooth="yes"/>
      <point x="148" y="-422"/>
      <point x="97" y="-378"/>
      <point x="97" y="-298" type="curve" smooth="yes"/>
      <point x="97" y="-222"/>
      <point x="172" y="-97"/>
    </contour>
    <contour>
      <point x="353" y="-480" type="curve" smooth="yes"/>
      <point x="353" y="-546" type="line" smooth="yes"/>
      <point x="353" y="-562"/>
      <point x="339" y="-576"/>
      <point x="323" y="-576" type="curve" smooth="yes"/>
      <point x="307" y="-576"/>
      <point x="293" y="-562"/>
      <point x="293" y="-546" type="curve" smooth="yes"/>
      <point x="293" y="-480" type="line" smooth="yes"/>
      <point x="293" y="-464"/>
      <point x="307" y="-450"/>
      <point x="323" y="-450" type="curve" smooth="yes"/>
      <point x="339" y="-450"/>
      <point x="353" y="-464"/>
    </contour>
    <contour>
      <point x="324" y="-157" type="curve" smooth="yes"/>
      <point x="218" y="-157"/>
      <point x="157" y="-242"/>
      <point x="157" y="-298" type="curve" smooth="yes"/>
      <point x="157" y="-338"/>
      <point x="182" y="-362"/>
      <point x="219" y="-362" type="curve" smooth="yes"/>
      <point x="250" y="-362"/>
      <point x="275" y="-347"/>
      <point x="297" y="-318" type="curve" smooth="yes"/>
      <point x="302" y="-312"/>
      <point x="313" y="-307"/>
      <point x="321" y="-307" type="curve" smooth="yes"/>
      <point x="322" y="-307" type="line" smooth="yes"/>
      <point x="329" y="-307"/>
      <point x="339" y="-311"/>
      <point x="344" y="-316" type="curve" smooth="yes"/>
      <point x="371" y="-344"/>
      <point x="393" y="-362"/>
      <point x="434" y="-362" type="curve" smooth="yes"/>
      <point x="471" y="-362"/>
      <point x="502" y="-338"/>
      <point x="502" y="-298" type="curve" smooth="yes"/>
      <point x="502" y="-242"/>
      <point x="436" y="-157"/>
    </contour>
    <contour>
      <point x="431" y="-189" type="curve" smooth="yes"/>
      <point x="413" y="-201"/>
      <point x="401" y="-217"/>
      <point x="401" y="-237" type="curve" smooth="yes"/>
      <point x="401" y="-255"/>
      <point x="416" y="-266"/>
      <point x="433" y="-266" type="curve" smooth="yes"/>
      <point x="449" y="-266"/>
      <point x="464" y="-259"/>
      <point x="474" y="-249" type="curve" smooth="yes"/>
      <point x="486" y="-238"/>
      <point x="506" y="-239"/>
      <point x="517" y="-250" type="curve" smooth="yes"/>
      <point x="528" y="-262"/>
      <point x="527" y="-282"/>
      <point x="516" y="-293" type="curve" smooth="yes"/>
      <point x="494" y="-313"/>
      <point x="465" y="-326"/>
      <point x="433" y="-326" type="curve" smooth="yes"/>
      <point x="382" y="-326"/>
      <point x="341" y="-287"/>
      <point x="341" y="-237" type="curve" smooth="yes"/>
      <point x="341" y="-197"/>
      <point x="361" y="-163"/>
      <point x="399" y="-139" type="curve" smooth="yes"/>
      <point x="412" y="-130"/>
      <point x="431" y="-134"/>
      <point x="440" y="-148" type="curve" smooth="yes"/>
      <point x="449" y="-161"/>
      <point x="445" y="-180"/>
    </contour>
  </outline>
</glyph>
<glyph name="knGAc2.following" format="1">
  <advance width="400"/>
  <outline>
    <contour>
      <point x="429" y="-344" type="curve" smooth="yes"/>
      <point x="436" y="-324"/>
      <point x="447" y="-302"/>
      <point x="447" y="-267" type="curve" smooth="yes"/>
      <point x="447" y="-196"/>
      <point x="398" y="-129"/>
      <point x="334" y="-129" type="curve" smooth="yes"/>
      <point x="270" y="-129"/>
      <point x="220" y="-197"/>
      <point x="220" y="-267" type="curve" smooth="yes"/>
      <point x="220" y="-301"/>
      <point x="229" y="-322"/>
      <point x="238" y="-342" type="curve" smooth="yes"/>
      <point x="244" y="-357"/>
      <point x="237" y="-375"/>
      <point x="222" y="-382" type="curve" smooth="yes"/>
      <point x="207" y="-388"/>
      <point x="189" y="-381"/>
      <point x="182" y="-366" type="curve" smooth="yes"/>
      <point x="171" y="-340"/>
      <point x="160" y="-311"/>
      <point x="160" y="-267" type="curve" smooth="yes"/>
      <point x="160" y="-161"/>
      <point x="242" y="-69"/>
      <point x="334" y="-69" type="curve" smooth="yes"/>
      <point x="426" y="-69"/>
      <point x="507" y="-158"/>
      <point x="507" y="-267" type="curve" smooth="yes"/>
      <point x="507" y="-312"/>
      <point x="494" y="-340"/>
      <point x="485" y="-364" type="curve" smooth="yes"/>
      <point x="480" y="-379"/>
      <point x="462" y="-388"/>
      <point x="447" y="-382" type="curve" smooth="yes"/>
      <point x="432" y="-377"/>
      <point x="423" y="-359"/>
    </contour>
  </outline>
</glyph>
<glyph name="knGHAc2.following" format="1">
  <advance width="449"/>
  <outline>
    <contour>
      <point x="462" y="-133" type="curve" smooth="yes"/>
      <point x="479" y="-168"/>
      <point x="504" y="-190"/>
      <point x="535" y="-190" type="curve" smooth="yes"/>
      <point x="557" y="-190"/>
      <point x="569" y="-175"/>
      <point x="569" y="-155" type="curve" smooth="yes"/>
      <point x="569" y="-142"/>
      <point x="567" y="-131"/>
      <point x="564" y="-119" type="curve" smooth="yes"/>
      <point x="560" y="-104"/>
      <point x="569" y="-87"/>
      <point x="585" y="-82" type="curve" smooth="yes"/>
      <point x="600" y="-78"/>
      <point x="617" y="-87"/>
      <point x="622" y="-103" type="curve" smooth="yes"/>
      <point x="627" y="-119"/>
      <point x="629" y="-136"/>
      <point x="629" y="-155" type="curve" smooth="yes"/>
      <point x="629" y="-211"/>
      <point x="593" y="-250"/>
      <point x="535" y="-250" type="curve" smooth="yes"/>
      <point x="484" y="-250"/>
      <point x="437" y="-220"/>
      <point x="408" y="-159" type="curve" smooth="yes"/>
      <point x="401" y="-144"/>
      <point x="407" y="-126"/>
      <point x="422" y="-119" type="curve" smooth="yes"/>
      <point x="437" y="-112"/>
      <point x="455" y="-118"/>
    </contour>
    <contour>
      <point x="272" y="-430" type="curve" smooth="yes"/>
      <point x="272" y="-496" type="line" smooth="yes"/>
      <point x="272" y="-512"/>
      <point x="258" y="-526"/>
      <point x="242" y="-526" type="curve" smooth="yes"/>
      <point x="226" y="-526"/>
      <point x="212" y="-512"/>
      <point x="212" y="-496" type="curve" smooth="yes"/>
      <point x="212" y="-430" type="line" smooth="yes"/>
      <point x="212" y="-414"/>
      <point x="226" y="-400"/>
      <point x="242" y="-400" type="curve" smooth="yes"/>
      <point x="258" y="-400"/>
      <point x="272" y="-414"/>
    </contour>
    <contour>
      <point x="266" y="-254" type="curve" smooth="yes"/>
      <point x="295" y="-288"/>
      <point x="322" y="-308"/>
      <point x="352" y="-308" type="curve" smooth="yes"/>
      <point x="395" y="-308"/>
      <point x="407" y="-267"/>
      <point x="407" y="-212" type="curve" smooth="yes"/>
      <point x="407" y="-154"/>
      <point x="378" y="-52"/>
      <point x="348" y="38" type="curve" smooth="yes"/>
      <point x="342" y="54"/>
      <point x="351" y="71"/>
      <point x="366" y="76" type="curve" smooth="yes"/>
      <point x="382" y="82"/>
      <point x="399" y="73"/>
      <point x="404" y="58" type="curve" smooth="yes"/>
      <point x="438" y="-40"/>
      <point x="467" y="-150"/>
      <point x="467" y="-212" type="curve" smooth="yes"/>
      <point x="467" y="-327"/>
      <point x="421" y="-368"/>
      <point x="352" y="-368" type="curve" smooth="yes"/>
      <point x="308" y="-368"/>
      <point x="265" y="-346"/>
      <point x="220" y="-294" type="curve" smooth="yes"/>
      <point x="210" y="-281"/>
      <point x="211" y="-262"/>
      <point x="223" y="-251" type="curve" smooth="yes"/>
      <point x="236" y="-241"/>
      <point x="255" y="-242"/>
    </contour>
    <contour>
      <point x="122" y="-221" type="curve" smooth="yes"/>
      <point x="100" y="-232"/>
      <point x="83" y="-250"/>
      <point x="83" y="-272" type="curve" smooth="yes"/>
      <point x="83" y="-293"/>
      <point x="101" y="-310"/>
      <point x="129" y="-310" type="curve" smooth="yes"/>
      <point x="165" y="-310"/>
      <point x="191" y="-285"/>
      <point x="217" y="-254" type="curve" smooth="yes"/>
      <point x="228" y="-242"/>
      <point x="247" y="-241"/>
      <point x="260" y="-251" type="curve" smooth="yes"/>
      <point x="272" y="-262"/>
      <point x="273" y="-281"/>
      <point x="263" y="-294" type="curve" smooth="yes"/>
      <point x="223" y="-339"/>
      <point x="181" y="-370"/>
      <point x="129" y="-370" type="curve" smooth="yes"/>
      <point x="57" y="-370"/>
      <point x="23" y="-321"/>
      <point x="23" y="-272" type="curve" smooth="yes"/>
      <point x="23" y="-230"/>
      <point x="48" y="-192"/>
      <point x="94" y="-167" type="curve" smooth="yes"/>
      <point x="108" y="-160"/>
      <point x="127" y="-166"/>
      <point x="135" y="-180" type="curve" smooth="yes"/>
      <point x="142" y="-194"/>
      <point x="136" y="-213"/>
    </contour>
  </outline>
</glyph>
<glyph name="knHAc2.following" format="1">
  <advance width="400"/>
  <outline>
    <contour>
      <point x="345" y="-231" type="curve" smooth="yes"/>
      <point x="345" y="-307"/>
      <point x="287" y="-373"/>
      <point x="192" y="-373" type="curve" smooth="yes"/>
      <point x="103" y="-373"/>
      <point x="47" y="-308"/>
      <point x="47" y="-231" type="curve"/>
      <point x="47" y="-158"/>
      <point x="104" y="-91"/>
      <point x="192" y="-91" type="curve" smooth="yes"/>
      <point x="290" y="-91"/>
      <point x="345" y="-159"/>
    </contour>
    <contour>
      <point x="605" y="-231" type="curve" smooth="yes"/>
      <point x="605" y="-308"/>
      <point x="552" y="-373"/>
      <point x="458" y="-373" type="curve" smooth="yes"/>
      <point x="369" y="-373"/>
      <point x="307" y="-307"/>
      <point x="307" y="-231" type="curve" smooth="yes"/>
      <point x="307" y="-159"/>
      <point x="368" y="-91"/>
      <point x="458" y="-91" type="curve" smooth="yes"/>
      <point x="551" y="-91"/>
      <point x="605" y="-158"/>
    </contour>
    <contour>
      <point x="285" y="-231" type="curve" smooth="yes"/>
      <point x="285" y="-187"/>
      <point x="248" y="-151"/>
      <point x="192" y="-151" type="curve" smooth="yes"/>
      <point x="142" y="-151"/>
      <point x="107" y="-188"/>
      <point x="107" y="-231" type="curve" smooth="yes"/>
      <point x="107" y="-276"/>
      <point x="141" y="-313"/>
      <point x="192" y="-313" type="curve" smooth="yes"/>
      <point x="247" y="-313"/>
      <point x="285" y="-277"/>
    </contour>
    <contour>
      <point x="545" y="-231" type="curve" smooth="yes"/>
      <point x="545" y="-188"/>
      <point x="511" y="-151"/>
      <point x="458" y="-151" type="curve" smooth="yes"/>
      <point x="406" y="-151"/>
      <point x="367" y="-187"/>
      <point x="367" y="-231" type="curve" smooth="yes"/>
      <point x="367" y="-277"/>
      <point x="407" y="-313"/>
      <point x="458" y="-313" type="curve" smooth="yes"/>
      <point x="512" y="-313"/>
      <point x="545" y="-276"/>
    </contour>
  </outline>
</glyph>
<glyph name="knJAc2" format="1">
  <advance width="0"/>
  <outline>
    <contour>
      <point x="86" y="-122" type="curve" smooth="yes"/>
      <point x="89" y="-134"/>
      <point x="90" y="-141"/>
      <point x="90" y="-154" type="curve" smooth="yes"/>
      <point x="90" y="-207"/>
      <point x="65" y="-251"/>
      <point x="-15" y="-251" type="curve" smooth="yes"/>
      <point x="-75" y="-251"/>
      <point x="-140" y="-220"/>
      <point x="-200" y="-165" type="curve" smooth="yes"/>
      <point x="-212" y="-154"/>
      <point x="-213" y="-135"/>
      <point x="-202" y="-123" type="curve" smooth="yes"/>
      <point x="-191" y="-111"/>
      <point x="-172" y="-110"/>
      <point x="-160" y="-121" type="curve" smooth="yes"/>
      <point x="-112" y="-164"/>
      <point x="-63" y="-191"/>
      <point x="-15" y="-191" type="curve" smooth="yes"/>
      <point x="15" y="-191"/>
      <point x="30" y="-177"/>
      <point x="30" y="-154" type="curve"/>
      <point x="30" y="-147"/>
      <point x="29" y="-142"/>
      <point x="28" y="-136" type="curve" smooth="yes"/>
      <point x="24" y="-120"/>
      <point x="35" y="-103"/>
      <point x="50" y="-100" type="curve" smooth="yes"/>
      <point x="66" y="-96"/>
      <point x="83" y="-107"/>
    </contour>
    <contour>
      <point x="-295" y="-119" type="curve" smooth="yes"/>
      <point x="-271" y="-105"/>
      <point x="-250" y="-101"/>
      <point x="-221" y="-101" type="curve" smooth="yes"/>
      <point x="-168" y="-101"/>
      <point x="-128" y="-138"/>
      <point x="-128" y="-185" type="curve" smooth="yes"/>
      <point x="-128" y="-220"/>
      <point x="-150" y="-247"/>
      <point x="-197" y="-277" type="curve" smooth="yes"/>
      <point x="-219" y="-293"/>
      <point x="-233" y="-311"/>
      <point x="-233" y="-330" type="curve" smooth="yes"/>
      <point x="-233" y="-350"/>
      <point x="-214" y="-363"/>
      <point x="-188" y="-363" type="curve" smooth="yes"/>
      <point x="-155" y="-363"/>
      <point x="-128" y="-340"/>
      <point x="-96" y="-311" type="curve" smooth="yes"/>
      <point x="-92" y="-307"/>
      <point x="-82" y="-303"/>
      <point x="-76" y="-303" type="curve" smooth="yes"/>
      <point x="-72" y="-303" type="line" smooth="yes"/>
      <point x="-65" y="-303"/>
      <point x="-55" y="-307"/>
      <point x="-50" y="-313" type="curve" smooth="yes"/>
      <point x="-21" y="-344"/>
      <point x="6" y="-363"/>
      <point x="39" y="-363" type="curve" smooth="yes"/>
      <point x="68" y="-363"/>
      <point x="86" y="-345"/>
      <point x="86" y="-322" type="curve" smooth="yes"/>
      <point x="86" y="-312"/>
      <point x="84" y="-307"/>
      <point x="82" y="-299" type="curve" smooth="yes"/>
      <point x="78" y="-283"/>
      <point x="87" y="-266"/>
      <point x="103" y="-262" type="curve" smooth="yes"/>
      <point x="119" y="-258"/>
      <point x="136" y="-267"/>
      <point x="140" y="-283" type="curve" smooth="yes"/>
      <point x="144" y="-297"/>
      <point x="146" y="-306"/>
      <point x="146" y="-322" type="curve" smooth="yes"/>
      <point x="146" y="-375"/>
      <point x="110" y="-423"/>
      <point x="39" y="-423" type="curve" smooth="yes"/>
      <point x="-8" y="-423"/>
      <point x="-51" y="-400"/>
      <point x="-94" y="-353" type="curve"/>
      <point x="-72" y="-363" type="line"/>
      <point x="-76" y="-363" type="line"/>
      <point x="-56" y="-355" type="line"/>
      <point x="-102" y="-398"/>
      <point x="-143" y="-423"/>
      <point x="-188" y="-423" type="curve" smooth="yes"/>
      <point x="-260" y="-423"/>
      <point x="-293" y="-376"/>
      <point x="-293" y="-330" type="curve" smooth="yes"/>
      <point x="-293" y="-295"/>
      <point x="-275" y="-257"/>
      <point x="-229" y="-227" type="curve" smooth="yes"/>
      <point x="-208" y="-213"/>
      <point x="-188" y="-204"/>
      <point x="-188" y="-185" type="curve" smooth="yes"/>
      <point x="-188" y="-168"/>
      <point x="-206" y="-161"/>
      <point x="-221" y="-161" type="curve" smooth="yes"/>
      <point x="-238" y="-161"/>
      <point x="-251" y="-163"/>
      <point x="-267" y="-171" type="curve" smooth="yes"/>
      <point x="-281" y="-179"/>
      <point x="-299" y="-174"/>
      <point x="-307" y="-159" type="curve" smooth="yes"/>
      <point x="-315" y="-145"/>
      <point x="-310" y="-127"/>
    </contour>
  </outline>
</glyph>
<glyph name="knKAc2.following" format="1">
  <advance width="449"/>
  <outline>
    <contour>
      <point x="319" y="-139" type="curve" smooth="yes"/>
      <point x="349" y="-91"/>
      <point x="359" y="-59"/>
      <point x="359" y="-20" type="curve" smooth="yes"/>
      <point x="359" y="-2"/>
      <point x="354" y="18"/>
      <point x="348" y="39" type="curve" smooth="yes"/>
      <point x="342" y="54"/>
      <point x="351" y="71"/>
      <point x="367" y="76" type="curve" smooth="yes"/>
      <point x="382" y="82"/>
      <point x="399" y="73"/>
      <point x="404" y="57" type="curve" smooth="yes"/>
      <point x="414" y="30"/>
      <point x="419" y="4"/>
      <point x="419" y="-20" type="curve" smooth="yes"/>
      <point x="419" y="-69"/>
      <point x="407" y="-111"/>
      <point x="369" y="-171" type="curve" smooth="yes"/>
      <point x="361" y="-185"/>
      <point x="342" y="-189"/>
      <point x="328" y="-180" type="curve" smooth="yes"/>
      <point x="314" y="-172"/>
      <point x="310" y="-153"/>
    </contour>
    <contour>
      <point x="183" y="-124" type="curve" smooth="yes"/>
      <point x="533" y="-124" type="line" smooth="yes"/>
      <point x="549" y="-124"/>
      <point x="563" y="-138"/>
      <point x="563" y="-154" type="curve" smooth="yes"/>
      <point x="563" y="-170"/>
      <point x="549" y="-184"/>
      <point x="533" y="-184" type="curve" smooth="yes"/>
      <point x="183" y="-184" type="line" smooth="yes"/>
      <point x="167" y="-184"/>
      <point x="153" y="-170"/>
      <point x="153" y="-154" type="curve" smooth="yes"/>
      <point x="153" y="-138"/>
      <point x="167" y="-124"/>
    </contour>
    <contour>
      <point x="334" y="-186" type="curve" smooth="yes"/>
      <point x="298" y="-192"/>
      <point x="274" y="-218"/>
      <point x="274" y="-251" type="curve" smooth="yes"/>
      <point x="274" y="-286"/>
      <point x="300" y="-318"/>
      <point x="358" y="-318" type="curve" smooth="yes"/>
      <point x="417" y="-318"/>
      <point x="442" y="-285"/>
      <point x="442" y="-251" type="curve" smooth="yes"/>
      <point x="442" y="-218"/>
      <point x="418" y="-192"/>
      <point x="383" y="-186" type="curve" smooth="yes"/>
      <point x="367" y="-183"/>
      <point x="356" y="-167"/>
      <point x="358" y="-151" type="curve" smooth="yes"/>
      <point x="361" y="-135"/>
      <point x="377" y="-124"/>
      <point x="393" y="-126" type="curve" smooth="yes"/>
      <point x="460" y="-138"/>
      <point x="502" y="-190"/>
      <point x="502" y="-251" type="curve" smooth="yes"/>
      <point x="502" y="-309"/>
      <point x="469" y="-378"/>
      <point x="358" y="-378" type="curve" smooth="yes"/>
      <point x="248" y="-378"/>
      <point x="214" y="-310"/>
      <point x="214" y="-251" type="curve" smooth="yes"/>
      <point x="214" y="-190"/>
      <point x="256" y="-138"/>
      <point x="324" y="-126" type="curve" smooth="yes"/>
      <point x="340" y="-124"/>
      <point x="356" y="-135"/>
      <point x="359" y="-151" type="curve" smooth="yes"/>
      <point x="361" y="-167"/>
      <point x="350" y="-183"/>
    </contour>
  </outline>
</glyph>
<glyph name="knKHAc2.following" format="1">
  <advance width="449"/>
  <outline>
    <contour>
      <point x="84" y="-100" type="curve" smooth="yes"/>
      <point x="101" y="-94"/>
      <point x="125" y="-87"/>
      <point x="156" y="-87" type="curve" smooth="yes"/>
      <point x="233" y="-87"/>
      <point x="297" y="-138"/>
      <point x="297" y="-222" type="curve" smooth="yes"/>
      <point x="297" y="-299"/>
      <point x="228" y="-382"/>
      <point x="117" y="-382" type="curve" smooth="yes"/>
      <point x="52" y="-382"/>
      <point x="16" y="-341"/>
      <point x="16" y="-294" type="curve" smooth="yes"/>
      <point x="16" y="-246"/>
      <point x="48" y="-206"/>
      <point x="106" y="-206" type="curve" smooth="yes"/>
      <point x="146" y="-206"/>
      <point x="196" y="-229"/>
      <point x="243" y="-274" type="curve" smooth="yes"/>
      <point x="276" y="-306"/>
      <point x="308" y="-318"/>
      <point x="342" y="-318" type="curve" smooth="yes"/>
      <point x="386" y="-318"/>
      <point x="406" y="-277"/>
      <point x="406" y="-221" type="curve" smooth="yes"/>
      <point x="406" y="-145"/>
      <point x="379" y="-25"/>
      <point x="349" y="35" type="curve" smooth="yes"/>
      <point x="342" y="49"/>
      <point x="348" y="68"/>
      <point x="363" y="75" type="curve" smooth="yes"/>
      <point x="377" y="82"/>
      <point x="396" y="76"/>
      <point x="403" y="61" type="curve" smooth="yes"/>
      <point x="435" y="-5"/>
      <point x="466" y="-137"/>
      <point x="466" y="-221" type="curve" smooth="yes"/>
      <point x="466" y="-329"/>
      <point x="414" y="-378"/>
      <point x="342" y="-378" type="curve" smooth="yes"/>
      <point x="294" y="-378"/>
      <point x="248" y="-362"/>
      <point x="201" y="-318" type="curve" smooth="yes"/>
      <point x="168" y="-287"/>
      <point x="134" y="-266"/>
      <point x="106" y="-266" type="curve" smooth="yes"/>
      <point x="88" y="-266"/>
      <point x="76" y="-278"/>
      <point x="76" y="-294" type="curve" smooth="yes"/>
      <point x="76" y="-313"/>
      <point x="96" y="-322"/>
      <point x="117" y="-322" type="curve" smooth="yes"/>
      <point x="186" y="-322"/>
      <point x="237" y="-273"/>
      <point x="237" y="-222" type="curve" smooth="yes"/>
      <point x="237" y="-174"/>
      <point x="199" y="-147"/>
      <point x="156" y="-147" type="curve" smooth="yes"/>
      <point x="133" y="-147"/>
      <point x="115" y="-152"/>
      <point x="102" y="-156" type="curve" smooth="yes"/>
      <point x="87" y="-162"/>
      <point x="70" y="-153"/>
      <point x="65" y="-137" type="curve" smooth="yes"/>
      <point x="59" y="-122"/>
      <point x="68" y="-105"/>
    </contour>
  </outline>
</glyph>
<glyph name="knLAc2" format="1">
  <advance width="0"/>
  <outline>
    <contour>
      <point x="99" y="-286" type="curve" smooth="yes"/>
      <point x="104" y="-272"/>
      <point x="109" y="-260"/>
      <point x="109" y="-239" type="curve" smooth="yes"/>
      <point x="109" y="-198"/>
      <point x="79" y="-170"/>
      <point x="36" y="-170" type="curve" smooth="yes"/>
      <point x="-10" y="-170"/>
      <point x="-40" y="-209"/>
      <point x="-62" y="-264" type="curve" smooth="yes"/>
      <point x="-66" y="-275"/>
      <point x="-79" y="-283"/>
      <point x="-90" y="-283" type="curve" smooth="yes"/>
      <point x="-96" y="-283" type="line" smooth="yes"/>
      <point x="-107" y="-283"/>
      <point x="-120" y="-274"/>
      <point x="-124" y="-264" type="curve" smooth="yes"/>
      <point x="-145" y="-208"/>
      <point x="-180" y="-169"/>
      <point x="-228" y="-169" type="curve" smooth="yes"/>
      <point x="-272" y="-169"/>
      <point x="-297" y="-197"/>
      <point x="-297" y="-230" type="curve" smooth="yes"/>
      <point x="-297" y="-249"/>
      <point x="-290" y="-265"/>
      <point x="-281" y="-281" type="curve" smooth="yes"/>
      <point x="-273" y="-295"/>
      <point x="-278" y="-314"/>
      <point x="-292" y="-322" type="curve" smooth="yes"/>
      <point x="-306" y="-330"/>
      <point x="-325" y="-325"/>
      <point x="-333" y="-311" type="curve" smooth="yes"/>
      <point x="-348" y="-285"/>
      <point x="-357" y="-259"/>
      <point x="-357" y="-230" type="curve" smooth="yes"/>
      <point x="-357" y="-167"/>
      <point x="-314" y="-109"/>
      <point x="-228" y="-109" type="curve" smooth="yes"/>
      <point x="-158" y="-109"/>
      <point x="-101" y="-156"/>
      <point x="-68" y="-242" type="curve"/>
      <point x="-96" y="-223" type="line"/>
      <point x="-90" y="-223" type="line"/>
      <point x="-118" y="-242" type="line"/>
      <point x="-82" y="-155"/>
      <point x="-30" y="-110"/>
      <point x="36" y="-110" type="curve" smooth="yes"/>
      <point x="117" y="-110"/>
      <point x="169" y="-164"/>
      <point x="169" y="-239" type="curve" smooth="yes"/>
      <point x="169" y="-268"/>
      <point x="162" y="-286"/>
      <point x="155" y="-306" type="curve" smooth="yes"/>
      <point x="150" y="-321"/>
      <point x="132" y="-330"/>
      <point x="117" y="-324" type="curve" smooth="yes"/>
      <point x="102" y="-319"/>
      <point x="93" y="-301"/>
    </contour>
  </outline>
</glyph>
<glyph name="knLLAc2.following" format="1">
  <advance width="449"/>
  <outline>
    <contour>
      <point x="109" y="-185" type="curve" smooth="yes"/>
      <point x="124" y="-194"/>
      <point x="144" y="-200"/>
      <point x="168" y="-200" type="curve" smooth="yes"/>
      <point x="188" y="-200"/>
      <point x="211" y="-192"/>
      <point x="211" y="-170" type="curve" smooth="yes"/>
      <point x="211" y="-153"/>
      <point x="191" y="-142"/>
      <point x="169" y="-142" type="curve" smooth="yes"/>
      <point x="133" y="-142"/>
      <point x="110" y="-171"/>
      <point x="110" y="-201" type="curve" smooth="yes"/>
      <point x="110" y="-230"/>
      <point x="121" y="-248"/>
      <point x="137" y="-265" type="curve" smooth="yes"/>
      <point x="158" y="-285"/>
      <point x="198" y="-302"/>
      <point x="263" y="-302" type="curve" smooth="yes"/>
      <point x="321" y="-302"/>
      <point x="353" y="-284"/>
      <point x="372" y="-266" type="curve" smooth="yes"/>
      <point x="393" y="-245"/>
      <point x="404" y="-218"/>
      <point x="404" y="-178" type="curve" smooth="yes"/>
      <point x="404" y="-129"/>
      <point x="384" y="-54"/>
      <point x="347" y="37" type="curve" smooth="yes"/>
      <point x="341" y="52"/>
      <point x="349" y="70"/>
      <point x="364" y="76" type="curve" smooth="yes"/>
      <point x="379" y="82"/>
      <point x="397" y="74"/>
      <point x="403" y="59" type="curve" smooth="yes"/>
      <point x="444" y="-40"/>
      <point x="464" y="-123"/>
      <point x="464" y="-178" type="curve" smooth="yes"/>
      <point x="464" y="-238"/>
      <point x="445" y="-277"/>
      <point x="414" y="-308" type="curve" smooth="yes"/>
      <point x="389" y="-334"/>
      <point x="345" y="-362"/>
      <point x="263" y="-362" type="curve" smooth="yes"/>
      <point x="174" y="-362"/>
      <point x="124" y="-335"/>
      <point x="95" y="-307" type="curve" smooth="yes"/>
      <point x="67" y="-280"/>
      <point x="50" y="-248"/>
      <point x="50" y="-201" type="curve"/>
      <point x="50" y="-139"/>
      <point x="95" y="-82"/>
      <point x="169" y="-82" type="curve" smooth="yes"/>
      <point x="237" y="-82"/>
      <point x="271" y="-129"/>
      <point x="271" y="-170" type="curve" smooth="yes"/>
      <point x="271" y="-224"/>
      <point x="227" y="-260"/>
      <point x="168" y="-260" type="curve" smooth="yes"/>
      <point x="132" y="-260"/>
      <point x="104" y="-250"/>
      <point x="81" y="-239" type="curve" smooth="yes"/>
      <point x="67" y="-231"/>
      <point x="61" y="-212"/>
      <point x="68" y="-198" type="curve" smooth="yes"/>
      <point x="76" y="-184"/>
      <point x="95" y="-178"/>
    </contour>
    <contour>
      <point x="228" y="-352" type="curve" smooth="yes"/>
      <point x="221" y="-358"/>
      <point x="214" y="-368"/>
      <point x="214" y="-380" type="curve" smooth="yes"/>
      <point x="214" y="-399"/>
      <point x="237" y="-407"/>
      <point x="262" y="-407" type="curve" smooth="yes"/>
      <point x="288" y="-407"/>
      <point x="314" y="-399"/>
      <point x="314" y="-378" type="curve" smooth="yes"/>
      <point x="314" y="-364"/>
      <point x="306" y="-355"/>
      <point x="299" y="-347" type="curve" smooth="yes"/>
      <point x="288" y="-335"/>
      <point x="289" y="-316"/>
      <point x="301" y="-305" type="curve" smooth="yes"/>
      <point x="313" y="-294"/>
      <point x="332" y="-295"/>
      <point x="343" y="-307" type="curve" smooth="yes"/>
      <point x="360" y="-325"/>
      <point x="374" y="-346"/>
      <point x="374" y="-378" type="curve" smooth="yes"/>
      <point x="374" y="-423"/>
      <point x="342" y="-467"/>
      <point x="262" y="-467" type="curve" smooth="yes"/>
      <point x="183" y="-467"/>
      <point x="154" y="-423"/>
      <point x="154" y="-380" type="curve" smooth="yes"/>
      <point x="154" y="-350"/>
      <point x="171" y="-322"/>
      <point x="190" y="-306" type="curve" smooth="yes"/>
      <point x="202" y="-296"/>
      <point x="221" y="-297"/>
      <point x="232" y="-310" type="curve" smooth="yes"/>
      <point x="242" y="-322"/>
      <point x="241" y="-341"/>
    </contour>
  </outline>
</glyph>
<glyph name="knMAc2.following" format="1">
  <advance width="441"/>
  <outline>
    <contour>
      <point x="396" y="57" type="curve" smooth="yes"/>
      <point x="398" y="49"/>
      <point x="400" y="30"/>
      <point x="400" y="13" type="curve" smooth="yes"/>
      <point x="400" y="-59"/>
      <point x="352" y="-127"/>
      <point x="352" y="-187" type="curve" smooth="yes"/>
      <point x="352" y="-220"/>
      <point x="379" y="-245"/>
      <point x="426" y="-245" type="curve" smooth="yes"/>
      <point x="457" y="-245"/>
      <point x="483" y="-226"/>
      <point x="483" y="-200" type="curve" smooth="yes"/>
      <point x="483" y="-173"/>
      <point x="445" y="-152"/>
      <point x="398" y="-152" type="curve" smooth="yes"/>
      <point x="293" y="-152"/>
      <point x="237" y="-213"/>
      <point x="237" y="-275" type="curve" smooth="yes"/>
      <point x="237" y="-341"/>
      <point x="305" y="-388"/>
      <point x="409" y="-388" type="curve" smooth="yes"/>
      <point x="444" y="-388"/>
      <point x="481" y="-383"/>
      <point x="510" y="-370" type="curve" smooth="yes"/>
      <point x="525" y="-364"/>
      <point x="543" y="-371"/>
      <point x="550" y="-386" type="curve" smooth="yes"/>
      <point x="556" y="-401"/>
      <point x="549" y="-419"/>
      <point x="534" y="-426" type="curve" smooth="yes"/>
      <point x="497" y="-441"/>
      <point x="452" y="-448"/>
      <point x="409" y="-448" type="curve" smooth="yes"/>
      <point x="251" y="-448"/>
      <point x="177" y="-363"/>
      <point x="177" y="-275" type="curve" smooth="yes"/>
      <point x="177" y="-191"/>
      <point x="241" y="-92"/>
      <point x="398" y="-92" type="curve" smooth="yes"/>
      <point x="505" y="-92"/>
      <point x="543" y="-155"/>
      <point x="543" y="-200" type="curve" smooth="yes"/>
      <point x="543" y="-254"/>
      <point x="499" y="-305"/>
      <point x="426" y="-305" type="curve" smooth="yes"/>
      <point x="329" y="-305"/>
      <point x="292" y="-248"/>
      <point x="292" y="-187" type="curve" smooth="yes"/>
      <point x="292" y="-127"/>
      <point x="340" y="-59"/>
      <point x="340" y="13" type="curve" smooth="yes"/>
      <point x="340" y="24"/>
      <point x="340" y="35"/>
      <point x="338" y="41" type="curve" smooth="yes"/>
      <point x="334" y="56"/>
      <point x="343" y="73"/>
      <point x="359" y="78" type="curve" smooth="yes"/>
      <point x="374" y="82"/>
      <point x="391" y="73"/>
    </contour>
  </outline>
</glyph>
<glyph name="knNGAA" format="1">
  <advance width="1089"/>
  <outline>
    <contour>
      <point x="603" y="470" type="curve" smooth="yes"/>
      <point x="753" y="470" type="line" smooth="yes"/>
      <point x="917" y="470"/>
      <point x="1037" y="363"/>
      <point x="1037" y="171" type="curve" smooth="yes"/>
      <point x="1037" y="50"/>
      <point x="971" y="-10"/>
      <point x="894" y="-10" type="curve" smooth="yes"/>
      <point x="813" y="-10"/>
      <point x="769" y="48"/>
      <point x="768" y="110" type="curve" smooth="yes"/>
      <point x="767" y="180"/>
      <point x="817" y="250"/>
      <point x="915" y="250" type="curve" smooth="yes"/>
      <point x="947" y="250"/>
      <point x="981" y="245"/>
      <point x="1009" y="236" type="curve" smooth="yes"/>
      <point x="1026" y="231"/>
      <point x="1036" y="212"/>
      <point x="1030" y="195" type="curve" smooth="yes"/>
      <point x="1025" y="178"/>
      <point x="1006" y="168"/>
      <point x="989" y="174" type="curve" smooth="yes"/>
      <point x="967" y="181"/>
      <point x="941" y="184"/>
      <point x="915" y="184" type="curve" smooth="yes"/>
      <point x="865" y="184"/>
      <point x="833" y="150"/>
      <point x="834" y="112" type="curve" smooth="yes"/>
      <point x="835" y="82"/>
      <point x="857" y="56"/>
      <point x="894" y="56" type="curve" smooth="yes"/>
      <point x="943" y="56"/>
      <point x="971" y="106"/>
      <point x="971" y="171" type="curve" smooth="yes"/>
      <point x="971" y="319"/>
      <point x="881" y="404"/>
      <point x="753" y="404" type="curve" smooth="yes"/>
      <point x="603" y="404" type="line" smooth="yes"/>
      <point x="585" y="404"/>
      <point x="570" y="419"/>
      <point x="570" y="437" type="curve" smooth="yes"/>
      <point x="570" y="455"/>
      <point x="585" y="470"/>
    </contour>
    <component base="knNGA.base"/>
    <component base="knNGA.base"/>
  </outline>
</glyph>
<glyph name="knNGAc2.following" format="1">
  <advance width="400"/>
  <outline>
    <contour>
      <point x="373" y="-256" type="curve" smooth="yes"/>
      <point x="352" y="-256"/>
      <point x="332" y="-240"/>
      <point x="332" y="-214" type="curve" smooth="yes"/>
      <point x="332" y="-192"/>
      <point x="351" y="-173"/>
      <point x="373" y="-173" type="curve" smooth="yes"/>
      <point x="395" y="-173"/>
      <point x="414" y="-192"/>
      <point x="414" y="-214" type="curve" smooth="yes"/>
      <point x="414" y="-240"/>
      <point x="394" y="-256"/>
    </contour>
    <contour>
      <point x="209" y="-195" type="curve" smooth="yes"/>
      <point x="277" y="-87"/>
      <point x="326" y="-64"/>
      <point x="380" y="-64" type="curve" smooth="yes"/>
      <point x="428" y="-64"/>
      <point x="469" y="-89"/>
      <point x="511" y="-141" type="curve" smooth="yes"/>
      <point x="521" y="-154"/>
      <point x="520" y="-173"/>
      <point x="507" y="-183" type="curve" smooth="yes"/>
      <point x="494" y="-193"/>
      <point x="475" y="-192"/>
      <point x="465" y="-179" type="curve" smooth="yes"/>
      <point x="437" y="-145"/>
      <point x="412" y="-124"/>
      <point x="380" y="-124" type="curve" smooth="yes"/>
      <point x="340" y="-124"/>
      <point x="307" y="-151"/>
      <point x="261" y="-227" type="curve" smooth="yes"/>
      <point x="252" y="-241"/>
      <point x="233" y="-245"/>
      <point x="219" y="-237" type="curve" smooth="yes"/>
      <point x="205" y="-228"/>
      <point x="201" y="-209"/>
    </contour>
    <contour>
      <point x="105" y="-117" type="curve" smooth="yes"/>
      <point x="129" y="-103"/>
      <point x="150" y="-99"/>
      <point x="179" y="-99" type="curve" smooth="yes"/>
      <point x="232" y="-99"/>
      <point x="272" y="-136"/>
      <point x="272" y="-183" type="curve" smooth="yes"/>
      <point x="272" y="-218"/>
      <point x="250" y="-245"/>
      <point x="203" y="-275" type="curve" smooth="yes"/>
      <point x="180" y="-291"/>
      <point x="167" y="-311"/>
      <point x="167" y="-330" type="curve" smooth="yes"/>
      <point x="167" y="-350"/>
      <point x="186" y="-363"/>
      <point x="212" y="-363" type="curve" smooth="yes"/>
      <point x="245" y="-363"/>
      <point x="272" y="-340"/>
      <point x="304" y="-311" type="curve" smooth="yes"/>
      <point x="308" y="-307"/>
      <point x="318" y="-303"/>
      <point x="324" y="-303" type="curve" smooth="yes"/>
      <point x="328" y="-303" type="line" smooth="yes"/>
      <point x="335" y="-303"/>
      <point x="345" y="-307"/>
      <point x="350" y="-313" type="curve" smooth="yes"/>
      <point x="379" y="-344"/>
      <point x="406" y="-363"/>
      <point x="439" y="-363" type="curve" smooth="yes"/>
      <point x="468" y="-363"/>
      <point x="486" y="-345"/>
      <point x="486" y="-322" type="curve" smooth="yes"/>
      <point x="486" y="-312"/>
      <point x="484" y="-307"/>
      <point x="482" y="-299" type="curve" smooth="yes"/>
      <point x="478" y="-283"/>
      <point x="487" y="-266"/>
      <point x="503" y="-262" type="curve" smooth="yes"/>
      <point x="519" y="-258"/>
      <point x="536" y="-267"/>
      <point x="540" y="-283" type="curve" smooth="yes"/>
      <point x="544" y="-297"/>
      <point x="546" y="-306"/>
      <point x="546" y="-322" type="curve" smooth="yes"/>
      <point x="546" y="-375"/>
      <point x="510" y="-423"/>
      <point x="439" y="-423" type="curve" smooth="yes"/>
      <point x="392" y="-423"/>
      <point x="349" y="-400"/>
      <point x="306" y="-353" type="curve"/>
      <point x="328" y="-363" type="line"/>
      <point x="324" y="-363" type="line"/>
      <point x="344" y="-355" type="line"/>
      <point x="298" y="-398"/>
      <point x="257" y="-423"/>
      <point x="212" y="-423" type="curve" smooth="yes"/>
      <point x="140" y="-423"/>
      <point x="107" y="-376"/>
      <point x="107" y="-330" type="curve" smooth="yes"/>
      <point x="107" y="-295"/>
      <point x="126" y="-255"/>
      <point x="171" y="-225" type="curve" smooth="yes"/>
      <point x="192" y="-211"/>
      <point x="212" y="-202"/>
      <point x="212" y="-183" type="curve" smooth="yes"/>
      <point x="212" y="-166"/>
      <point x="194" y="-159"/>
      <point x="179" y="-159" type="curve" smooth="yes"/>
      <point x="162" y="-159"/>
      <point x="149" y="-161"/>
      <point x="133" y="-169" type="curve" smooth="yes"/>
      <point x="119" y="-177"/>
      <point x="101" y="-172"/>
      <point x="93" y="-157" type="curve" smooth="yes"/>
      <point x="85" y="-143"/>
      <point x="90" y="-125"/>
    </contour>
    <contour>
      <point x="373" y="-196" type="curve" smooth="yes"/>
      <point x="364" y="-196"/>
      <point x="354" y="-202"/>
      <point x="354" y="-214" type="curve" smooth="yes"/>
      <point x="354" y="-224"/>
      <point x="363" y="-233"/>
      <point x="373" y="-233" type="curve" smooth="yes"/>
      <point x="383" y="-233"/>
      <point x="392" y="-224"/>
      <point x="392" y="-214" type="curve" smooth="yes"/>
      <point x="392" y="-202"/>
      <point x="382" y="-196"/>
    </contour>
  </outline>
</glyph>
<glyph name="knNYAc2.following" format="1">
  <advance width="400"/>
  <outline>
    <contour>
      <point x="427" y="-169" type="curve" smooth="yes"/>
      <point x="454" y="-127"/>
      <point x="496" y="-97"/>
      <point x="543" y="-97" type="curve" smooth="yes"/>
      <point x="608" y="-97"/>
      <point x="642" y="-140"/>
      <point x="642" y="-193" type="curve" smooth="yes"/>
      <point x="642" y="-209"/>
      <point x="640" y="-223"/>
      <point x="636" y="-237" type="curve" smooth="yes"/>
      <point x="632" y="-253"/>
      <point x="615" y="-262"/>
      <point x="599" y="-258" type="curve" smooth="yes"/>
      <point x="583" y="-254"/>
      <point x="574" y="-237"/>
      <point x="578" y="-221" type="curve" smooth="yes"/>
      <point x="580" y="-213"/>
      <point x="582" y="-203"/>
      <point x="582" y="-193" type="curve" smooth="yes"/>
      <point x="582" y="-172"/>
      <point x="568" y="-157"/>
      <point x="543" y="-157" type="curve" smooth="yes"/>
      <point x="516" y="-157"/>
      <point x="492" y="-177"/>
      <point x="477" y="-201" type="curve" smooth="yes"/>
      <point x="469" y="-215"/>
      <point x="450" y="-219"/>
      <point x="436" y="-210" type="curve" smooth="yes"/>
      <point x="422" y="-202"/>
      <point x="418" y="-183"/>
    </contour>
    <contour>
      <point x="467" y="-455" type="curve" smooth="yes"/>
      <point x="380" y="-355"/>
      <point x="303" y="-317"/>
      <point x="233" y="-317" type="curve" smooth="yes"/>
      <point x="207" y="-317"/>
      <point x="184" y="-327"/>
      <point x="183" y="-346" type="curve" smooth="yes"/>
      <point x="182" y="-368"/>
      <point x="215" y="-380"/>
      <point x="248" y="-380" type="curve" smooth="yes"/>
      <point x="345" y="-380"/>
      <point x="418" y="-272"/>
      <point x="418" y="-209" type="curve" smooth="yes"/>
      <point x="418" y="-173"/>
      <point x="394" y="-153"/>
      <point x="362" y="-153" type="curve" smooth="yes"/>
      <point x="330" y="-153"/>
      <point x="308" y="-178"/>
      <point x="287" y="-213" type="curve" smooth="yes"/>
      <point x="282" y="-221"/>
      <point x="270" y="-227"/>
      <point x="261" y="-227" type="curve" smooth="yes"/>
      <point x="257" y="-227" type="line" smooth="yes"/>
      <point x="248" y="-227"/>
      <point x="236" y="-221"/>
      <point x="231" y="-213" type="curve" smooth="yes"/>
      <point x="210" y="-177"/>
      <point x="187" y="-152"/>
      <point x="148" y="-152" type="curve" smooth="yes"/>
      <point x="116" y="-152"/>
      <point x="99" y="-176"/>
      <point x="99" y="-199" type="curve" smooth="yes"/>
      <point x="99" y="-208"/>
      <point x="101" y="-216"/>
      <point x="103" y="-224" type="curve" smooth="yes"/>
      <point x="107" y="-240"/>
      <point x="98" y="-257"/>
      <point x="82" y="-261" type="curve" smooth="yes"/>
      <point x="66" y="-265"/>
      <point x="49" y="-256"/>
      <point x="45" y="-240" type="curve" smooth="yes"/>
      <point x="41" y="-226"/>
      <point x="39" y="-214"/>
      <point x="39" y="-199" type="curve" smooth="yes"/>
      <point x="39" y="-148"/>
      <point x="74" y="-92"/>
      <point x="148" y="-92" type="curve" smooth="yes"/>
      <point x="209" y="-92"/>
      <point x="248" y="-125"/>
      <point x="283" y="-181" type="curve"/>
      <point x="257" y="-167" type="line"/>
      <point x="261" y="-167" type="line"/>
      <point x="235" y="-181" type="line"/>
      <point x="272" y="-122"/>
      <point x="312" y="-93"/>
      <point x="362" y="-93" type="curve" smooth="yes"/>
      <point x="428" y="-93"/>
      <point x="478" y="-133"/>
      <point x="478" y="-209" type="curve" smooth="yes"/>
      <point x="478" y="-294"/>
      <point x="379" y="-440"/>
      <point x="248" y="-440" type="curve" smooth="yes"/>
      <point x="155" y="-440"/>
      <point x="122" y="-386"/>
      <point x="123" y="-344" type="curve" smooth="yes"/>
      <point x="124" y="-301"/>
      <point x="155" y="-257"/>
      <point x="233" y="-257" type="curve" smooth="yes"/>
      <point x="315" y="-257"/>
      <point x="408" y="-297"/>
      <point x="513" y="-415" type="curve" smooth="yes"/>
      <point x="523" y="-427"/>
      <point x="522" y="-447"/>
      <point x="510" y="-458" type="curve" smooth="yes"/>
      <point x="498" y="-468"/>
      <point x="478" y="-467"/>
    </contour>
  </outline>
</glyph>
<glyph name="knPAc2.following" format="1">
  <advance width="449"/>
  <outline>
    <contour>
      <point x="266" y="-254" type="curve" smooth="yes"/>
      <point x="295" y="-288"/>
      <point x="322" y="-308"/>
      <point x="352" y="-308" type="curve" smooth="yes"/>
      <point x="395" y="-308"/>
      <point x="407" y="-267"/>
      <point x="407" y="-212" type="curve" smooth="yes"/>
      <point x="407" y="-154"/>
      <point x="382" y="-58"/>
      <point x="347" y="38" type="curve" smooth="yes"/>
      <point x="341" y="53"/>
      <point x="349" y="71"/>
      <point x="365" y="76" type="curve" smooth="yes"/>
      <point x="380" y="82"/>
      <point x="398" y="74"/>
      <point x="403" y="58" type="curve" smooth="yes"/>
      <point x="442" y="-46"/>
      <point x="467" y="-150"/>
      <point x="467" y="-212" type="curve" smooth="yes"/>
      <point x="467" y="-327"/>
      <point x="421" y="-368"/>
      <point x="352" y="-368" type="curve" smooth="yes"/>
      <point x="308" y="-368"/>
      <point x="265" y="-346"/>
      <point x="220" y="-294" type="curve" smooth="yes"/>
      <point x="210" y="-281"/>
      <point x="211" y="-262"/>
      <point x="223" y="-251" type="curve" smooth="yes"/>
      <point x="236" y="-241"/>
      <point x="255" y="-242"/>
    </contour>
    <contour>
      <point x="122" y="-221" type="curve" smooth="yes"/>
      <point x="100" y="-232"/>
      <point x="83" y="-250"/>
      <point x="83" y="-272" type="curve" smooth="yes"/>
      <point x="83" y="-293"/>
      <point x="101" y="-310"/>
      <point x="129" y="-310" type="curve" smooth="yes"/>
      <point x="165" y="-310"/>
      <point x="191" y="-285"/>
      <point x="217" y="-254" type="curve" smooth="yes"/>
      <point x="228" y="-242"/>
      <point x="247" y="-241"/>
      <point x="260" y="-251" type="curve" smooth="yes"/>
      <point x="272" y="-262"/>
      <point x="273" y="-281"/>
      <point x="263" y="-294" type="curve" smooth="yes"/>
      <point x="223" y="-339"/>
      <point x="181" y="-370"/>
      <point x="129" y="-370" type="curve" smooth="yes"/>
      <point x="57" y="-370"/>
      <point x="23" y="-321"/>
      <point x="23" y="-272" type="curve" smooth="yes"/>
      <point x="23" y="-230"/>
      <point x="48" y="-192"/>
      <point x="94" y="-167" type="curve" smooth="yes"/>
      <point x="108" y="-160"/>
      <point x="127" y="-166"/>
      <point x="135" y="-180" type="curve" smooth="yes"/>
      <point x="142" y="-194"/>
      <point x="136" y="-213"/>
    </contour>
  </outline>
</glyph>
<glyph name="knRAc2.following" format="1">
  <advance width="440"/>
  <outline>
    <contour>
      <point x="138" y="-250" type="curve" smooth="yes"/>
      <point x="212" y="-246"/>
      <point x="280" y="-224"/>
      <point x="313" y="-191" type="curve" smooth="yes"/>
      <point x="345" y="-158"/>
      <point x="359" y="-119"/>
      <point x="359" y="-64" type="curve" smooth="yes"/>
      <point x="359" y="-30"/>
      <point x="353" y="9"/>
      <point x="345" y="40" type="curve" smooth="yes"/>
      <point x="341" y="56"/>
      <point x="350" y="73"/>
      <point x="366" y="77" type="curve" smooth="yes"/>
      <point x="382" y="81"/>
      <point x="399" y="72"/>
      <point x="403" y="56" type="curve" smooth="yes"/>
      <point x="413" y="21"/>
      <point x="419" y="-24"/>
      <point x="419" y="-64" type="curve" smooth="yes"/>
      <point x="419" y="-137"/>
      <point x="399" y="-190"/>
      <point x="355" y="-233" type="curve" smooth="yes"/>
      <point x="314" y="-274"/>
      <point x="234" y="-306"/>
      <point x="140" y="-310" type="curve" smooth="yes"/>
      <point x="124" y="-311"/>
      <point x="110" y="-298"/>
      <point x="109" y="-281" type="curve" smooth="yes"/>
      <point x="108" y="-265"/>
      <point x="121" y="-251"/>
    </contour>
  </outline>
</glyph>
<glyph name="knRI" format="1">
  <advance width="622"/>
  <outline>
    <contour>
      <point x="72" y="227" type="curve" smooth="yes"/>
      <point x="72" y="355"/>
      <point x="179" y="466"/>
      <point x="321" y="466" type="curve" smooth="yes"/>
      <point x="466" y="466"/>
      <point x="564" y="353"/>
      <point x="564" y="227" type="curve" smooth="yes"/>
      <point x="564" y="94"/>
      <point x="471" y="-10"/>
      <point x="319" y="-10" type="curve" smooth="yes"/>
      <point x="169" y="-10"/>
      <point x="72" y="92"/>
    </contour>
    <contour>
      <point x="138" y="227" type="curve" smooth="yes"/>
      <point x="138" y="128"/>
      <point x="211" y="56"/>
      <point x="319" y="56" type="curve" smooth="yes"/>
      <point x="429" y="56"/>
      <point x="498" y="130"/>
      <point x="498" y="227" type="curve" smooth="yes"/>
      <point x="498" y="319"/>
      <point x="426" y="400"/>
      <point x="321" y="400" type="curve" smooth="yes"/>
      <point x="219" y="400"/>
      <point x="138" y="321"/>
    </contour>
    <contour>
      <point x="493" y="281" type="curve" smooth="yes"/>
      <point x="492" y="368"/>
      <point x="471" y="451"/>
      <point x="432" y="488" type="curve" smooth="yes"/>
      <point x="399" y="522"/>
      <point x="346" y="547"/>
      <point x="280" y="547" type="curve" smooth="yes"/>
      <point x="191" y="547"/>
      <point x="140" y="500"/>
      <point x="140" y="456" type="curve" smooth="yes"/>
      <point x="140" y="434"/>
      <point x="150" y="413"/>
      <point x="177" y="392" type="curve" smooth="yes"/>
      <point x="191" y="381"/>
      <point x="194" y="360"/>
      <point x="183" y="346" type="curve" smooth="yes"/>
      <point x="172" y="332"/>
      <point x="151" y="329"/>
      <point x="137" y="340" type="curve" smooth="yes"/>
      <point x="88" y="379"/>
      <point x="74" y="418"/>
      <point x="74" y="456" type="curve" smooth="yes"/>
      <point x="74" y="520"/>
      <point x="127" y="613"/>
      <point x="280" y="613" type="curve" smooth="yes"/>
      <point x="366" y="613"/>
      <point x="435" y="578"/>
      <point x="478" y="536" type="curve" smooth="yes"/>
      <point x="525" y="491"/>
      <point x="558" y="390"/>
      <point x="559" y="281" type="curve" smooth="yes"/>
      <point x="559" y="264"/>
      <point x="544" y="248"/>
      <point x="526" y="248" type="curve" smooth="yes"/>
      <point x="509" y="248"/>
      <point x="493" y="263"/>
    </contour>
  </outline>
</glyph>
<glyph name="knRRAc2" format="1">
  <advance width="0"/>
  <outline>
    <contour>
      <point x="-170" y="-200" type="curve" smooth="yes"/>
      <point x="52" y="-200" type="line" smooth="yes"/>
      <point x="68" y="-200"/>
      <point x="82" y="-214"/>
      <point x="82" y="-230" type="curve" smooth="yes"/>
      <point x="82" y="-246"/>
      <point x="68" y="-260"/>
      <point x="52" y="-260" type="curve" smooth="yes"/>
      <point x="-170" y="-260" type="line" smooth="yes"/>
      <point x="-186" y="-260"/>
      <point x="-200" y="-246"/>
      <point x="-200" y="-230" type="curve" smooth="yes"/>
      <point x="-200" y="-214"/>
      <point x="-186" y="-200"/>
    </contour>
    <contour>
      <point x="-221" y="-177" type="curve" smooth="yes"/>
      <point x="-208" y="-191"/>
      <point x="-191" y="-200"/>
      <point x="-171" y="-200" type="curve" smooth="yes"/>
      <point x="-155" y="-200"/>
      <point x="-140" y="-190"/>
      <point x="-140" y="-171" type="curve" smooth="yes"/>
      <point x="-140" y="-153"/>
      <point x="-152" y="-142"/>
      <point x="-171" y="-142" type="curve" smooth="yes"/>
      <point x="-209" y="-142"/>
      <point x="-231" y="-199"/>
      <point x="-231" y="-254" type="curve" smooth="yes"/>
      <point x="-231" y="-308"/>
      <point x="-203" y="-345"/>
      <point x="-159" y="-345" type="curve" smooth="yes"/>
      <point x="-124" y="-345"/>
      <point x="-104" y="-330"/>
      <point x="-85" y="-305" type="curve" smooth="yes"/>
      <point x="-80" y="-298"/>
      <point x="-69" y="-293"/>
      <point x="-61" y="-293" type="curve" smooth="yes"/>
      <point x="-58" y="-293" type="line" smooth="yes"/>
      <point x="-50" y="-293"/>
      <point x="-39" y="-298"/>
      <point x="-34" y="-304" type="curve" smooth="yes"/>
      <point x="-15" y="-329"/>
      <point x="5" y="-345"/>
      <point x="40" y="-345" type="curve" smooth="yes"/>
      <point x="84" y="-345"/>
      <point x="112" y="-308"/>
      <point x="112" y="-254" type="curve" smooth="yes"/>
      <point x="112" y="-199"/>
      <point x="90" y="-142"/>
      <point x="52" y="-142" type="curve" smooth="yes"/>
      <point x="33" y="-142"/>
      <point x="22" y="-153"/>
      <point x="22" y="-171" type="curve" smooth="yes"/>
      <point x="22" y="-190"/>
      <point x="36" y="-200"/>
      <point x="52" y="-200" type="curve" smooth="yes"/>
      <point x="73" y="-200"/>
      <point x="89" y="-191"/>
      <point x="102" y="-177" type="curve" smooth="yes"/>
      <point x="113" y="-166"/>
      <point x="133" y="-165"/>
      <point x="145" y="-176" type="curve" smooth="yes"/>
      <point x="156" y="-187"/>
      <point x="157" y="-207"/>
      <point x="146" y="-219" type="curve" smooth="yes"/>
      <point x="121" y="-245"/>
      <point x="91" y="-260"/>
      <point x="52" y="-260" type="curve" smooth="yes"/>
      <point x="2" y="-260"/>
      <point x="-38" y="-227"/>
      <point x="-38" y="-171" type="curve"/>
      <point x="-38" y="-117"/>
      <point x="-5" y="-82"/>
      <point x="52" y="-82" type="curve" smooth="yes"/>
      <point x="110" y="-82"/>
      <point x="172" y="-143"/>
      <point x="172" y="-254" type="curve" smooth="yes"/>
      <point x="172" y="-354"/>
      <point x="112" y="-405"/>
      <point x="40" y="-405" type="curve" smooth="yes"/>
      <point x="-17" y="-405"/>
      <point x="-49" y="-383"/>
      <point x="-82" y="-342" type="curve"/>
      <point x="-58" y="-353" type="line"/>
      <point x="-61" y="-353" type="line"/>
      <point x="-37" y="-341" type="line"/>
      <point x="-68" y="-382"/>
      <point x="-102" y="-405"/>
      <point x="-159" y="-405" type="curve" smooth="yes"/>
      <point x="-231" y="-405"/>
      <point x="-291" y="-354"/>
      <point x="-291" y="-254" type="curve" smooth="yes"/>
      <point x="-291" y="-143"/>
      <point x="-229" y="-82"/>
      <point x="-171" y="-82" type="curve" smooth="yes"/>
      <point x="-114" y="-82"/>
      <point x="-80" y="-117"/>
      <point x="-80" y="-171" type="curve" smooth="yes"/>
      <point x="-80" y="-226"/>
      <point x="-121" y="-260"/>
      <point x="-171" y="-260" type="curve" smooth="yes"/>
      <point x="-209" y="-260"/>
      <point x="-240" y="-245"/>
      <point x="-265" y="-219" type="curve" smooth="yes"/>
      <point x="-276" y="-207"/>
      <point x="-275" y="-187"/>
      <point x="-264" y="-176" type="curve" smooth="yes"/>
      <point x="-252" y="-165"/>
      <point x="-232" y="-166"/>
    </contour>
  </outline>
</glyph>
<glyph name="knSHAc2.following" format="1">
  <advance width="445"/>
  <outline>
    <contour>
      <point x="403" y="57" type="curve" smooth="yes"/>
      <point x="421" y="-1"/>
      <point x="428" y="-56"/>
      <point x="428" y="-108" type="curve" smooth="yes"/>
      <point x="428" y="-189"/>
      <point x="405" y="-239"/>
      <point x="295" y="-266" type="curve" smooth="yes"/>
      <point x="256" y="-276"/>
      <point x="231" y="-286"/>
      <point x="231" y="-311" type="curve" smooth="yes"/>
      <point x="231" y="-336"/>
      <point x="269" y="-347"/>
      <point x="310" y="-347" type="curve" smooth="yes"/>
      <point x="394" y="-347"/>
      <point x="458" y="-312"/>
      <point x="458" y="-233" type="curve" smooth="yes"/>
      <point x="458" y="-173"/>
      <point x="398" y="-126"/>
      <point x="344" y="-126" type="curve" smooth="yes"/>
      <point x="311" y="-126"/>
      <point x="278" y="-131"/>
      <point x="252" y="-140" type="curve" smooth="yes"/>
      <point x="236" y="-146"/>
      <point x="219" y="-137"/>
      <point x="214" y="-122" type="curve" smooth="yes"/>
      <point x="208" y="-106"/>
      <point x="217" y="-89"/>
      <point x="232" y="-84" type="curve" smooth="yes"/>
      <point x="264" y="-73"/>
      <point x="305" y="-66"/>
      <point x="344" y="-66" type="curve" smooth="yes"/>
      <point x="428" y="-66"/>
      <point x="518" y="-141"/>
      <point x="518" y="-233" type="curve" smooth="yes"/>
      <point x="518" y="-344"/>
      <point x="438" y="-407"/>
      <point x="310" y="-407" type="curve" smooth="yes"/>
      <point x="201" y="-407"/>
      <point x="171" y="-356"/>
      <point x="171" y="-311" type="curve" smooth="yes"/>
      <point x="171" y="-266"/>
      <point x="192" y="-230"/>
      <point x="281" y="-208" type="curve" smooth="yes"/>
      <point x="351" y="-191"/>
      <point x="368" y="-161"/>
      <point x="368" y="-108" type="curve" smooth="yes"/>
      <point x="368" y="-62"/>
      <point x="361" y="-13"/>
      <point x="345" y="39" type="curve" smooth="yes"/>
      <point x="341" y="55"/>
      <point x="350" y="72"/>
      <point x="365" y="77" type="curve" smooth="yes"/>
      <point x="381" y="81"/>
      <point x="398" y="72"/>
    </contour>
  </outline>
</glyph>
<glyph name="knSSA.base" format="1">
  <advance width="715"/>
  <outline>
    <contour>
      <point x="96" y="470" type="curve" smooth="yes"/>
      <point x="511" y="470" type="line" smooth="yes"/>
      <point x="529" y="470"/>
      <point x="544" y="455"/>
      <point x="544" y="437" type="curve" smooth="yes"/>
      <point x="544" y="419"/>
      <point x="529" y="404"/>
      <point x="511" y="404" type="curve" smooth="yes"/>
      <point x="96" y="404" type="line" smooth="yes"/>
      <point x="78" y="404"/>
      <point x="63" y="419"/>
      <point x="63" y="437" type="curve" smooth="yes"/>
      <point x="63" y="455"/>
      <point x="78" y="470"/>
    </contour>
    <contour>
      <point x="404" y="146" type="curve" smooth="yes"/>
      <point x="438" y="92"/>
      <point x="476" y="60"/>
      <point x="537" y="60" type="curve" smooth="yes"/>
      <point x="589" y="60"/>
      <point x="619" y="96"/>
      <point x="619" y="145" type="curve" smooth="yes"/>
      <point x="619" y="175"/>
      <point x="610" y="204"/>
      <point x="600" y="226" type="curve" smooth="yes"/>
      <point x="593" y="242"/>
      <point x="600" y="262"/>
      <point x="616" y="270" type="curve" smooth="yes"/>
      <point x="632" y="277"/>
      <point x="652" y="270"/>
      <point x="660" y="254" type="curve" smooth="yes"/>
      <point x="674" y="224"/>
      <point x="685" y="185"/>
      <point x="685" y="145" type="curve" smooth="yes"/>
      <point x="685" y="56"/>
      <point x="629" y="-6"/>
      <point x="537" y="-6" type="curve" smooth="yes"/>
      <point x="452" y="-6"/>
      <point x="398" y="34"/>
      <point x="348" y="110" type="curve" smooth="yes"/>
      <point x="339" y="125"/>
      <point x="343" y="146"/>
      <point x="358" y="156" type="curve" smooth="yes"/>
      <point x="373" y="165"/>
      <point x="394" y="161"/>
    </contour>
    <contour>
      <point x="194" y="187" type="curve" smooth="yes"/>
      <point x="152" y="181"/>
      <point x="126" y="156"/>
      <point x="126" y="122" type="curve" smooth="yes"/>
      <point x="126" y="84"/>
      <point x="162" y="58"/>
      <point x="212" y="58" type="curve" smooth="yes"/>
      <point x="269" y="58"/>
      <point x="305" y="89"/>
      <point x="344" y="147" type="curve" smooth="yes"/>
      <point x="354" y="161"/>
      <point x="375" y="165"/>
      <point x="390" y="155" type="curve" smooth="yes"/>
      <point x="404" y="145"/>
      <point x="408" y="124"/>
      <point x="398" y="109" type="curve" smooth="yes"/>
      <point x="343" y="29"/>
      <point x="291" y="-8"/>
      <point x="212" y="-8" type="curve" smooth="yes"/>
      <point x="110" y="-8"/>
      <point x="60" y="54"/>
      <point x="60" y="122" type="curve"/>
      <point x="60" y="184"/>
      <point x="102" y="241"/>
      <point x="184" y="253" type="curve" smooth="yes"/>
      <point x="202" y="255"/>
      <point x="219" y="242"/>
      <point x="222" y="225" type="curve" smooth="yes"/>
      <point x="224" y="207"/>
      <point x="211" y="190"/>
    </contour>
    <contour>
      <point x="339" y="410" type="curve" smooth="yes"/>
      <point x="321" y="393"/>
      <point x="314" y="373"/>
      <point x="314" y="356" type="curve" smooth="yes"/>
      <point x="314" y="328"/>
      <point x="338" y="306"/>
      <point x="373" y="306" type="curve" smooth="yes"/>
      <point x="409" y="306"/>
      <point x="432" y="328"/>
      <point x="432" y="357" type="curve" smooth="yes"/>
      <point x="432" y="374"/>
      <point x="425" y="394"/>
      <point x="407" y="412" type="curve" smooth="yes"/>
      <point x="394" y="424"/>
      <point x="393" y="445"/>
      <point x="405" y="458" type="curve" smooth="yes"/>
      <point x="417" y="471"/>
      <point x="438" y="472"/>
      <point x="451" y="460" type="curve" smooth="yes"/>
      <point x="487" y="428"/>
      <point x="498" y="390"/>
      <point x="498" y="357" type="curve" smooth="yes"/>
      <point x="498" y="296"/>
      <point x="457" y="240"/>
      <point x="373" y="240" type="curve" smooth="yes"/>
      <point x="292" y="240"/>
      <point x="248" y="298"/>
      <point x="248" y="356" type="curve" smooth="yes"/>
      <point x="248" y="389"/>
      <point x="261" y="427"/>
      <point x="295" y="458" type="curve" smooth="yes"/>
      <point x="308" y="470"/>
      <point x="329" y="469"/>
      <point x="341" y="456" type="curve" smooth="yes"/>
      <point x="353" y="443"/>
      <point x="352" y="422"/>
    </contour>
    <contour>
      <point x="530" y="212" type="curve" smooth="yes"/>
      <point x="678" y="-11" type="line" smooth="yes"/>
      <point x="688" y="-26"/>
      <point x="684" y="-47"/>
      <point x="669" y="-56" type="curve" smooth="yes"/>
      <point x="654" y="-66"/>
      <point x="633" y="-62"/>
      <point x="624" y="-47" type="curve" smooth="yes"/>
      <point x="476" y="176" type="line" smooth="yes"/>
      <point x="466" y="191"/>
      <point x="470" y="212"/>
      <point x="485" y="221" type="curve" smooth="yes"/>
      <point x="500" y="231"/>
      <point x="521" y="227"/>
    </contour>
  </outline>
</glyph>
<glyph name="knSSAc2.following" format="1">
  <advance width="449"/>
  <outline>
    <contour>
      <point x="461" y="-146" type="curve" smooth="yes"/>
      <point x="525" y="-391" type="line" smooth="yes"/>
      <point x="529" y="-407"/>
      <point x="519" y="-424"/>
      <point x="504" y="-428" type="curve" smooth="yes"/>
      <point x="488" y="-432"/>
      <point x="471" y="-422"/>
      <point x="467" y="-407" type="curve" smooth="yes"/>
      <point x="403" y="-162" type="line" smooth="yes"/>
      <point x="399" y="-146"/>
      <point x="409" y="-129"/>
      <point x="424" y="-125" type="curve" smooth="yes"/>
      <point x="440" y="-121"/>
      <point x="457" y="-131"/>
    </contour>
    <contour>
      <point x="272" y="-430" type="curve" smooth="yes"/>
      <point x="272" y="-496" type="line" smooth="yes"/>
      <point x="272" y="-512"/>
      <point x="258" y="-526"/>
      <point x="242" y="-526" type="curve" smooth="yes"/>
      <point x="226" y="-526"/>
      <point x="212" y="-512"/>
      <point x="212" y="-496" type="curve" smooth="yes"/>
      <point x="212" y="-430" type="line" smooth="yes"/>
      <point x="212" y="-414"/>
      <point x="226" y="-400"/>
      <point x="242" y="-400" type="curve" smooth="yes"/>
      <point x="258" y="-400"/>
      <point x="272" y="-414"/>
    </contour>
    <contour>
      <point x="266" y="-254" type="curve" smooth="yes"/>
      <point x="295" y="-288"/>
      <point x="322" y="-308"/>
      <point x="352" y="-308" type="curve" smooth="yes"/>
      <point x="395" y="-308"/>
      <point x="407" y="-267"/>
      <point x="407" y="-212" type="curve" smooth="yes"/>
      <point x="407" y="-154"/>
      <point x="382" y="-58"/>
      <point x="347" y="38" type="curve" smooth="yes"/>
      <point x="341" y="53"/>
      <point x="349" y="71"/>
      <point x="365" y="76" type="curve" smooth="yes"/>
      <point x="380" y="82"/>
      <point x="398" y="74"/>
      <point x="403" y="58" type="curve" smooth="yes"/>
      <point x="442" y="-46"/>
      <point x="467" y="-150"/>
      <point x="467" y="-212" type="curve" smooth="yes"/>
      <point x="467" y="-327"/>
      <point x="421" y="-368"/>
      <point x="352" y="-368" type="curve" smooth="yes"/>
      <point x="308" y="-368"/>
      <point x="265" y="-346"/>
      <point x="220" y="-294" type="curve" smooth="yes"/>
      <point x="210" y="-281"/>
      <point x="211" y="-262"/>
      <point x="223" y="-251" type="curve" smooth="yes"/>
      <point x="236" y="-241"/>
      <point x="255" y="-242"/>
    </contour>
    <contour>
      <point x="122" y="-221" type="curve" smooth="yes"/>
      <point x="100" y="-232"/>
      <point x="83" y="-250"/>
      <point x="83" y="-272" type="curve" smooth="yes"/>
      <point x="83" y="-293"/>
      <point x="101" y="-310"/>
      <point x="129" y="-310" type="curve" smooth="yes"/>
      <point x="165" y="-310"/>
      <point x="191" y="-285"/>
      <point x="217" y="-254" type="curve" smooth="yes"/>
      <point x="228" y="-242"/>
      <point x="247" y="-241"/>
      <point x="260" y="-251" type="curve" smooth="yes"/>
      <point x="272" y="-262"/>
      <point x="273" y="-281"/>
      <point x="263" y="-294" type="curve" smooth="yes"/>
      <point x="223" y="-339"/>
      <point x="181" y="-370"/>
      <point x="129" y="-370" type="curve" smooth="yes"/>
      <point x="57" y="-370"/>
      <point x="23" y="-321"/>
      <point x="23" y="-272" type="curve" smooth="yes"/>
      <point x="23" y="-230"/>
      <point x="48" y="-192"/>
      <point x="94" y="-167" type="curve" smooth="yes"/>
      <point x="108" y="-160"/>
      <point x="127" y="-166"/>
      <point x="135" y="-180" type="curve" smooth="yes"/>
      <point x="142" y="-194"/>
      <point x="136" y="-213"/>
    </contour>
    <component base="knPa" xOffset="-91" yOffset="-329"/>
    <component base="knPa" xOffset="-91" yOffset="-329"/>
  </outline>
</glyph>
<glyph name="knSSAc2.kssa" format="1">
  <advance width="0"/>
  <outline>
    <contour>
      <point x="-57" y="-130" type="curve" smooth="yes"/>
      <point x="12" y="-287" type="line" smooth="yes"/>
      <point x="19" y="-302"/>
      <point x="12" y="-320"/>
      <point x="-3" y="-326" type="curve" smooth="yes"/>
      <point x="-18" y="-333"/>
      <point x="-36" y="-326"/>
      <point x="-42" y="-311" type="curve" smooth="yes"/>
      <point x="-111" y="-154" type="line" smooth="yes"/>
      <point x="-118" y="-139"/>
      <point x="-111" y="-121"/>
      <point x="-96" y="-115" type="curve" smooth="yes"/>
      <point x="-81" y="-108"/>
      <point x="-63" y="-115"/>
    </contour>
    <contour>
      <point x="-285" y="-166" type="curve" smooth="yes"/>
      <point x="-256" y="-207"/>
      <point x="-219" y="-231"/>
      <point x="-177" y="-231" type="curve" smooth="yes"/>
      <point x="-142" y="-231"/>
      <point x="-110" y="-210"/>
      <point x="-110" y="-177" type="curve" smooth="yes"/>
      <point x="-110" y="-154"/>
      <point x="-117" y="-138"/>
      <point x="-130" y="-117" type="curve" smooth="yes"/>
      <point x="-139" y="-103"/>
      <point x="-135" y="-84"/>
      <point x="-121" y="-76" type="curve" smooth="yes"/>
      <point x="-107" y="-67"/>
      <point x="-88" y="-71"/>
      <point x="-80" y="-85" type="curve" smooth="yes"/>
      <point x="-59" y="-118"/>
      <point x="-50" y="-142"/>
      <point x="-50" y="-177" type="curve" smooth="yes"/>
      <point x="-50" y="-240"/>
      <point x="-102" y="-291"/>
      <point x="-177" y="-291" type="curve" smooth="yes"/>
      <point x="-237" y="-291"/>
      <point x="-292" y="-261"/>
      <point x="-335" y="-200" type="curve" smooth="yes"/>
      <point x="-344" y="-187"/>
      <point x="-341" y="-168"/>
      <point x="-327" y="-158" type="curve" smooth="yes"/>
      <point x="-314" y="-149"/>
      <point x="-295" y="-152"/>
    </contour>
    <contour>
      <point x="-494" y="-130" type="curve" smooth="yes"/>
      <point x="-507" y="-145"/>
      <point x="-513" y="-161"/>
      <point x="-513" y="-183" type="curve" smooth="yes"/>
      <point x="-513" y="-212"/>
      <point x="-487" y="-233"/>
      <point x="-455" y="-233" type="curve" smooth="yes"/>
      <point x="-406" y="-233"/>
      <point x="-370" y="-207"/>
      <point x="-337" y="-164" type="curve" smooth="yes"/>
      <point x="-327" y="-152"/>
      <point x="-307" y="-149"/>
      <point x="-294" y="-159" type="curve" smooth="yes"/>
      <point x="-282" y="-169"/>
      <point x="-279" y="-189"/>
      <point x="-289" y="-202" type="curve" smooth="yes"/>
      <point x="-336" y="-261"/>
      <point x="-388" y="-293"/>
      <point x="-455" y="-293" type="curve" smooth="yes"/>
      <point x="-525" y="-293"/>
      <point x="-573" y="-242"/>
      <point x="-573" y="-183" type="curve" smooth="yes"/>
      <point x="-573" y="-145"/>
      <point x="-561" y="-117"/>
      <point x="-540" y="-92" type="curve" smooth="yes"/>
      <point x="-529" y="-79"/>
      <point x="-510" y="-78"/>
      <point x="-498" y="-88" type="curve" smooth="yes"/>
      <point x="-485" y="-99"/>
      <point x="-484" y="-118"/>
    </contour>
  </outline>
</glyph>
<glyph name="knTAc2" format="1">
  <advance width="0"/>
  <outline>
    <contour>
      <point x="-122" y="-309" type="curve" smooth="yes"/>
      <point x="-127" y="-290"/>
      <point x="-135" y="-260"/>
      <point x="-135" y="-229" type="curve" smooth="yes"/>
      <point x="-135" y="-146"/>
      <point x="-80" y="-90"/>
      <point x="-9" y="-90" type="curve" smooth="yes"/>
      <point x="64" y="-90"/>
      <point x="110" y="-142"/>
      <point x="110" y="-206" type="curve" smooth="yes"/>
      <point x="110" y="-272"/>
      <point x="75" y="-337"/>
      <point x="-59" y="-337" type="curve" smooth="yes"/>
      <point x="-382" y="-337" type="line" smooth="yes"/>
      <point x="-398" y="-337"/>
      <point x="-412" y="-323"/>
      <point x="-412" y="-307" type="curve" smooth="yes"/>
      <point x="-412" y="-291"/>
      <point x="-398" y="-277"/>
      <point x="-382" y="-277" type="curve" smooth="yes"/>
      <point x="-59" y="-277" type="line" smooth="yes"/>
      <point x="13" y="-277"/>
      <point x="50" y="-248"/>
      <point x="50" y="-206" type="curve"/>
      <point x="50" y="-174"/>
      <point x="26" y="-150"/>
      <point x="-9" y="-150" type="curve" smooth="yes"/>
      <point x="-50" y="-150"/>
      <point x="-75" y="-186"/>
      <point x="-75" y="-229" type="curve" smooth="yes"/>
      <point x="-75" y="-254"/>
      <point x="-67" y="-280"/>
      <point x="-64" y="-295" type="curve" smooth="yes"/>
      <point x="-60" y="-311"/>
      <point x="-70" y="-327"/>
      <point x="-86" y="-331" type="curve" smooth="yes"/>
      <point x="-102" y="-335"/>
      <point x="-118" y="-325"/>
    </contour>
  </outline>
</glyph>
<glyph name="knTTAc2.following" format="1">
  <advance width="462"/>
  <outline>
    <contour>
      <point x="83" y="-186" type="curve" smooth="yes"/>
      <point x="103" y="-195"/>
      <point x="120" y="-202"/>
      <point x="143" y="-202" type="curve" smooth="yes"/>
      <point x="164" y="-202"/>
      <point x="180" y="-188"/>
      <point x="180" y="-168" type="curve" smooth="yes"/>
      <point x="180" y="-151"/>
      <point x="165" y="-139"/>
      <point x="145" y="-139" type="curve" smooth="yes"/>
      <point x="110" y="-139"/>
      <point x="91" y="-184"/>
      <point x="91" y="-231" type="curve" smooth="yes"/>
      <point x="91" y="-279"/>
      <point x="119" y="-318"/>
      <point x="161" y="-318" type="curve" smooth="yes"/>
      <point x="194" y="-318"/>
      <point x="216" y="-302"/>
      <point x="240" y="-269" type="curve" smooth="yes"/>
      <point x="245" y="-263"/>
      <point x="256" y="-257"/>
      <point x="264" y="-257" type="curve" smooth="yes"/>
      <point x="268" y="-257" type="line" smooth="yes"/>
      <point x="276" y="-257"/>
      <point x="287" y="-262"/>
      <point x="292" y="-269" type="curve" smooth="yes"/>
      <point x="317" y="-300"/>
      <point x="340" y="-318"/>
      <point x="374" y="-318" type="curve" smooth="yes"/>
      <point x="411" y="-318"/>
      <point x="431" y="-289"/>
      <point x="431" y="-252" type="curve" smooth="yes"/>
      <point x="431" y="-222"/>
      <point x="419" y="-198"/>
      <point x="403" y="-182" type="curve" smooth="yes"/>
      <point x="385" y="-165"/>
      <point x="358" y="-149"/>
      <point x="325" y="-144" type="curve" smooth="yes"/>
      <point x="309" y="-141"/>
      <point x="298" y="-125"/>
      <point x="300" y="-109" type="curve" smooth="yes"/>
      <point x="303" y="-93"/>
      <point x="319" y="-82"/>
      <point x="335" y="-84" type="curve" smooth="yes"/>
      <point x="382" y="-93"/>
      <point x="421" y="-115"/>
      <point x="445" y="-140" type="curve" smooth="yes"/>
      <point x="471" y="-166"/>
      <point x="491" y="-204"/>
      <point x="491" y="-252" type="curve" smooth="yes"/>
      <point x="491" y="-327"/>
      <point x="445" y="-378"/>
      <point x="374" y="-378" type="curve" smooth="yes"/>
      <point x="322" y="-378"/>
      <point x="283" y="-356"/>
      <point x="244" y="-305" type="curve"/>
      <point x="268" y="-317" type="line"/>
      <point x="264" y="-317" type="line"/>
      <point x="288" y="-305" type="line"/>
      <point x="250" y="-358"/>
      <point x="214" y="-378"/>
      <point x="161" y="-378" type="curve" smooth="yes"/>
      <point x="89" y="-378"/>
      <point x="31" y="-321"/>
      <point x="31" y="-231" type="curve" smooth="yes"/>
      <point x="31" y="-132"/>
      <point x="88" y="-79"/>
      <point x="145" y="-79" type="curve" smooth="yes"/>
      <point x="205" y="-79"/>
      <point x="240" y="-123"/>
      <point x="240" y="-168" type="curve" smooth="yes"/>
      <point x="240" y="-222"/>
      <point x="202" y="-262"/>
      <point x="143" y="-262" type="curve" smooth="yes"/>
      <point x="110" y="-262"/>
      <point x="87" y="-253"/>
      <point x="59" y="-240" type="curve" smooth="yes"/>
      <point x="44" y="-234"/>
      <point x="37" y="-215"/>
      <point x="44" y="-201" type="curve" smooth="yes"/>
      <point x="50" y="-186"/>
      <point x="69" y="-179"/>
    </contour>
    <contour>
      <point x="326" y="-83" type="curve" smooth="yes"/>
      <point x="361" y="-73"/>
      <point x="388" y="-57"/>
      <point x="388" y="-27" type="curve" smooth="yes"/>
      <point x="388" y="-6"/>
      <point x="370" y="10"/>
      <point x="349" y="21" type="curve" smooth="yes"/>
      <point x="334" y="28"/>
      <point x="328" y="47"/>
      <point x="335" y="61" type="curve" smooth="yes"/>
      <point x="342" y="76"/>
      <point x="361" y="82"/>
      <point x="375" y="75" type="curve" smooth="yes"/>
      <point x="422" y="52"/>
      <point x="448" y="14"/>
      <point x="448" y="-27" type="curve" smooth="yes"/>
      <point x="448" y="-79"/>
      <point x="413" y="-119"/>
      <point x="344" y="-141" type="curve" smooth="yes"/>
      <point x="328" y="-145"/>
      <point x="311" y="-136"/>
      <point x="306" y="-121" type="curve" smooth="yes"/>
      <point x="302" y="-105"/>
      <point x="311" y="-88"/>
    </contour>
  </outline>
</glyph>
<glyph name="knTTHAc2.following" format="1">
  <advance width="400"/>
  <outline>
    <contour>
      <point x="324" y="-60" type="curve" smooth="yes"/>
      <point x="443" y="-60"/>
      <point x="502" y="-158"/>
      <point x="502" y="-235" type="curve" smooth="yes"/>
      <point x="502" y="-313"/>
      <point x="443" y="-404"/>
      <point x="326" y="-404" type="curve" smooth="yes"/>
      <point x="204" y="-404"/>
      <point x="149" y="-314"/>
      <point x="149" y="-235" type="curve" smooth="yes"/>
      <point x="149" y="-159"/>
      <point x="206" y="-60"/>
    </contour>
    <contour>
      <point x="323" y="-274" type="curve" smooth="yes"/>
      <point x="302" y="-274"/>
      <point x="282" y="-258"/>
      <point x="282" y="-232" type="curve" smooth="yes"/>
      <point x="282" y="-210"/>
      <point x="301" y="-191"/>
      <point x="323" y="-191" type="curve" smooth="yes"/>
      <point x="345" y="-191"/>
      <point x="364" y="-210"/>
      <point x="364" y="-232" type="curve" smooth="yes"/>
      <point x="364" y="-258"/>
      <point x="344" y="-274"/>
    </contour>
    <contour>
      <point x="324" y="-120" type="curve" smooth="yes"/>
      <point x="246" y="-120"/>
      <point x="209" y="-185"/>
      <point x="209" y="-235" type="curve" smooth="yes"/>
      <point x="209" y="-288"/>
      <point x="248" y="-344"/>
      <point x="326" y="-344" type="curve" smooth="yes"/>
      <point x="401" y="-344"/>
      <point x="442" y="-287"/>
      <point x="442" y="-235" type="curve" smooth="yes"/>
      <point x="442" y="-184"/>
      <point x="403" y="-120"/>
    </contour>
    <contour>
      <point x="323" y="-214" type="curve" smooth="yes"/>
      <point x="314" y="-214"/>
      <point x="304" y="-220"/>
      <point x="304" y="-232" type="curve" smooth="yes"/>
      <point x="304" y="-242"/>
      <point x="313" y="-251"/>
      <point x="323" y="-251" type="curve" smooth="yes"/>
      <point x="333" y="-251"/>
      <point x="342" y="-242"/>
      <point x="342" y="-232" type="curve" smooth="yes"/>
      <point x="342" y="-220"/>
      <point x="332" y="-214"/>
    </contour>
  </outline>
</glyph>
<glyph name="knVA.base" format="1">
  <advance width="692"/>
  <outline>
    <contour>
      <point x="108" y="470" type="curve" smooth="yes"/>
      <point x="483" y="470" type="line" smooth="yes"/>
      <point x="501" y="470"/>
      <point x="516" y="455"/>
      <point x="516" y="437" type="curve" smooth="yes"/>
      <point x="516" y="419"/>
      <point x="501" y="404"/>
      <point x="483" y="404" type="curve" smooth="yes"/>
      <point x="108" y="404" type="line" smooth="yes"/>
      <point x="90" y="404"/>
      <point x="75" y="419"/>
      <point x="75" y="437" type="curve" smooth="yes"/>
      <point x="75" y="455"/>
      <point x="90" y="470"/>
    </contour>
    <contour>
      <point x="184" y="187" type="curve" smooth="yes"/>
      <point x="142" y="181"/>
      <point x="116" y="156"/>
      <point x="116" y="122" type="curve" smooth="yes"/>
      <point x="116" y="85"/>
      <point x="150" y="60"/>
      <point x="194" y="60" type="curve" smooth="yes"/>
      <point x="256" y="60"/>
      <point x="292" y="87"/>
      <point x="322" y="144" type="curve" smooth="yes"/>
      <point x="327" y="153"/>
      <point x="340" y="161"/>
      <point x="351" y="161" type="curve" smooth="yes"/>
      <point x="356" y="161" type="line" smooth="yes"/>
      <point x="366" y="161"/>
      <point x="378" y="154"/>
      <point x="384" y="146" type="curve" smooth="yes"/>
      <point x="418" y="93"/>
      <point x="451" y="60"/>
      <point x="508" y="60" type="curve" smooth="yes"/>
      <point x="557" y="60"/>
      <point x="595" y="100"/>
      <point x="595" y="158" type="curve" smooth="yes"/>
      <point x="595" y="238"/>
      <point x="534" y="332"/>
      <point x="403" y="405" type="curve" smooth="yes"/>
      <point x="387" y="414"/>
      <point x="382" y="435"/>
      <point x="390" y="450" type="curve" smooth="yes"/>
      <point x="399" y="466"/>
      <point x="420" y="471"/>
      <point x="435" y="463" type="curve" smooth="yes"/>
      <point x="596" y="372"/>
      <point x="661" y="254"/>
      <point x="661" y="158" type="curve" smooth="yes"/>
      <point x="661" y="56"/>
      <point x="591" y="-6"/>
      <point x="508" y="-6" type="curve" smooth="yes"/>
      <point x="429" y="-6"/>
      <point x="378" y="33"/>
      <point x="328" y="110" type="curve"/>
      <point x="356" y="95" type="line"/>
      <point x="351" y="95" type="line"/>
      <point x="380" y="112" type="line"/>
      <point x="336" y="31"/>
      <point x="284" y="-6"/>
      <point x="194" y="-6" type="curve" smooth="yes"/>
      <point x="102" y="-6"/>
      <point x="50" y="53"/>
      <point x="50" y="122" type="curve"/>
      <point x="50" y="184"/>
      <point x="92" y="241"/>
      <point x="174" y="253" type="curve" smooth="yes"/>
      <point x="192" y="255"/>
      <point x="209" y="242"/>
      <point x="212" y="225" type="curve" smooth="yes"/>
      <point x="214" y="207"/>
      <point x="201" y="190"/>
    </contour>
  </outline>
</glyph>
<glyph name="knVAc2.following" format="1">
  <advance width="400"/>
  <outline>
    <contour>
      <point x="234" y="-122" type="curve" smooth="yes"/>
      <point x="372" y="-122" type="line" smooth="yes"/>
      <point x="422" y="-122"/>
      <point x="457" y="-106"/>
      <point x="474" y="-82" type="curve" smooth="yes"/>
      <point x="484" y="-69"/>
      <point x="503" y="-65"/>
      <point x="516" y="-74" type="curve" smooth="yes"/>
      <point x="529" y="-84"/>
      <point x="533" y="-103"/>
      <point x="524" y="-116" type="curve" smooth="yes"/>
      <point x="499" y="-152"/>
      <point x="448" y="-182"/>
      <point x="372" y="-182" type="curve" smooth="yes"/>
      <point x="234" y="-182" type="line" smooth="yes"/>
      <point x="218" y="-182"/>
      <point x="204" y="-168"/>
      <point x="204" y="-152" type="curve" smooth="yes"/>
      <point x="204" y="-136"/>
      <point x="218" y="-122"/>
    </contour>
    <contour>
      <point x="340" y="-311" type="curve" smooth="yes"/>
      <point x="369" y="-345"/>
      <point x="396" y="-365"/>
      <point x="431" y="-365" type="curve" smooth="yes"/>
      <point x="464" y="-365"/>
      <point x="481" y="-345"/>
      <point x="481" y="-312" type="curve" smooth="yes"/>
      <point x="481" y="-267"/>
      <point x="438" y="-218"/>
      <point x="355" y="-181" type="curve" smooth="yes"/>
      <point x="340" y="-175"/>
      <point x="333" y="-157"/>
      <point x="340" y="-142" type="curve" smooth="yes"/>
      <point x="346" y="-127"/>
      <point x="364" y="-120"/>
      <point x="379" y="-127" type="curve" smooth="yes"/>
      <point x="496" y="-178"/>
      <point x="541" y="-253"/>
      <point x="541" y="-312" type="curve" smooth="yes"/>
      <point x="541" y="-384"/>
      <point x="500" y="-425"/>
      <point x="431" y="-425" type="curve" smooth="yes"/>
      <point x="380" y="-425"/>
      <point x="339" y="-401"/>
      <point x="294" y="-351" type="curve" smooth="yes"/>
      <point x="284" y="-339"/>
      <point x="285" y="-319"/>
      <point x="297" y="-308" type="curve" smooth="yes"/>
      <point x="309" y="-298"/>
      <point x="329" y="-299"/>
    </contour>
    <contour>
      <point x="182" y="-300" type="curve" smooth="yes"/>
      <point x="168" y="-309"/>
      <point x="161" y="-321"/>
      <point x="161" y="-333" type="curve" smooth="yes"/>
      <point x="161" y="-355"/>
      <point x="179" y="-367"/>
      <point x="204" y="-367" type="curve" smooth="yes"/>
      <point x="238" y="-367"/>
      <point x="267" y="-346"/>
      <point x="290" y="-314" type="curve" smooth="yes"/>
      <point x="299" y="-300"/>
      <point x="318" y="-297"/>
      <point x="331" y="-307" type="curve" smooth="yes"/>
      <point x="345" y="-316"/>
      <point x="348" y="-335"/>
      <point x="338" y="-348" type="curve" smooth="yes"/>
      <point x="303" y="-398"/>
      <point x="256" y="-427"/>
      <point x="204" y="-427" type="curve" smooth="yes"/>
      <point x="135" y="-427"/>
      <point x="101" y="-385"/>
      <point x="101" y="-333" type="curve" smooth="yes"/>
      <point x="101" y="-303"/>
      <point x="116" y="-271"/>
      <point x="150" y="-250" type="curve" smooth="yes"/>
      <point x="164" y="-241"/>
      <point x="183" y="-245"/>
      <point x="191" y="-259" type="curve" smooth="yes"/>
      <point x="200" y="-273"/>
      <point x="196" y="-292"/>
    </contour>
  </outline>
</glyph>
<glyph name="knYAc2.following" format="1">
  <advance width="509"/>
  <outline>
    <contour>
      <point x="154" y="-132" type="curve" smooth="yes"/>
      <point x="175" y="-116"/>
      <point x="198" y="-108"/>
      <point x="225" y="-108" type="curve" smooth="yes"/>
      <point x="277" y="-108"/>
      <point x="315" y="-148"/>
      <point x="315" y="-196" type="curve" smooth="yes"/>
      <point x="315" y="-216"/>
      <point x="311" y="-233"/>
      <point x="302" y="-256" type="curve" smooth="yes"/>
      <point x="297" y="-269"/>
      <point x="294" y="-284"/>
      <point x="294" y="-298" type="curve" smooth="yes"/>
      <point x="294" y="-312"/>
      <point x="299" y="-325"/>
      <point x="310" y="-337" type="curve" smooth="yes"/>
      <point x="321" y="-347"/>
      <point x="339" y="-356"/>
      <point x="362" y="-356" type="curve" smooth="yes"/>
      <point x="417" y="-356"/>
      <point x="452" y="-314"/>
      <point x="452" y="-259" type="curve" smooth="yes"/>
      <point x="452" y="-221"/>
      <point x="431" y="-182"/>
      <point x="388" y="-138" type="curve" smooth="yes"/>
      <point x="344" y="-95"/>
      <point x="323" y="-56"/>
      <point x="323" y="-13" type="curve" smooth="yes"/>
      <point x="323" y="44"/>
      <point x="362" y="91"/>
      <point x="424" y="91" type="curve" smooth="yes"/>
      <point x="449" y="91"/>
      <point x="468" y="84"/>
      <point x="486" y="74" type="curve" smooth="yes"/>
      <point x="500" y="65"/>
      <point x="504" y="46"/>
      <point x="496" y="32" type="curve" smooth="yes"/>
      <point x="487" y="18"/>
      <point x="468" y="14"/>
      <point x="454" y="22" type="curve" smooth="yes"/>
      <point x="446" y="28"/>
      <point x="437" y="31"/>
      <point x="424" y="31" type="curve" smooth="yes"/>
      <point x="398" y="31"/>
      <point x="383" y="10"/>
      <point x="383" y="-13" type="curve" smooth="yes"/>
      <point x="383" y="-42"/>
      <point x="402" y="-67"/>
      <point x="430" y="-96" type="curve" smooth="yes"/>
      <point x="489" y="-154"/>
      <point x="512" y="-209"/>
      <point x="512" y="-259" type="curve" smooth="yes"/>
      <point x="512" y="-350"/>
      <point x="451" y="-416"/>
      <point x="362" y="-416" type="curve" smooth="yes"/>
      <point x="319" y="-416"/>
      <point x="287" y="-399"/>
      <point x="268" y="-379" type="curve" smooth="yes"/>
      <point x="243" y="-355"/>
      <point x="234" y="-326"/>
      <point x="234" y="-298" type="curve" smooth="yes"/>
      <point x="234" y="-276"/>
      <point x="239" y="-255"/>
      <point x="246" y="-236" type="curve" smooth="yes"/>
      <point x="251" y="-221"/>
      <point x="255" y="-210"/>
      <point x="255" y="-196" type="curve" smooth="yes"/>
      <point x="255" y="-180"/>
      <point x="241" y="-168"/>
      <point x="225" y="-168" type="curve" smooth="yes"/>
      <point x="212" y="-168"/>
      <point x="201" y="-172"/>
      <point x="190" y="-180" type="curve" smooth="yes"/>
      <point x="177" y="-190"/>
      <point x="158" y="-187"/>
      <point x="148" y="-174" type="curve" smooth="yes"/>
      <point x="138" y="-161"/>
      <point x="141" y="-142"/>
    </contour>
  </outline>
</glyph>
<glyph name="knYAc2" format="1">
  <advance width="209"/>
  <outline>
    <contour>
      <point x="-146" y="-132" type="curve" smooth="yes"/>
      <point x="-125" y="-116"/>
      <point x="-102" y="-108"/>
      <point x="-75" y="-108" type="curve" smooth="yes"/>
      <point x="-23" y="-108"/>
      <point x="15" y="-148"/>
      <point x="15" y="-196" type="curve" smooth="yes"/>
      <point x="15" y="-216"/>
      <point x="11" y="-233"/>
      <point x="2" y="-256" type="curve" smooth="yes"/>
      <point x="-3" y="-269"/>
      <point x="-6" y="-284"/>
      <point x="-6" y="-298" type="curve" smooth="yes"/>
      <point x="-6" y="-312"/>
      <point x="-1" y="-325"/>
      <point x="10" y="-337" type="curve" smooth="yes"/>
      <point x="21" y="-347"/>
      <point x="39" y="-356"/>
      <point x="62" y="-356" type="curve" smooth="yes"/>
      <point x="117" y="-356"/>
      <point x="152" y="-314"/>
      <point x="152" y="-259" type="curve" smooth="yes"/>
      <point x="152" y="-221"/>
      <point x="131" y="-182"/>
      <point x="88" y="-138" type="curve" smooth="yes"/>
      <point x="44" y="-95"/>
      <point x="23" y="-56"/>
      <point x="23" y="-13" type="curve" smooth="yes"/>
      <point x="23" y="44"/>
      <point x="62" y="91"/>
      <point x="124" y="91" type="curve" smooth="yes"/>
      <point x="149" y="91"/>
      <point x="168" y="84"/>
      <point x="186" y="74" type="curve" smooth="yes"/>
      <point x="200" y="65"/>
      <point x="204" y="46"/>
      <point x="196" y="32" type="curve" smooth="yes"/>
      <point x="187" y="18"/>
      <point x="168" y="14"/>
      <point x="154" y="22" type="curve" smooth="yes"/>
      <point x="146" y="28"/>
      <point x="137" y="31"/>
      <point x="124" y="31" type="curve" smooth="yes"/>
      <point x="98" y="31"/>
      <point x="83" y="10"/>
      <point x="83" y="-13" type="curve" smooth="yes"/>
      <point x="83" y="-42"/>
      <point x="102" y="-67"/>
      <point x="130" y="-96" type="curve" smooth="yes"/>
      <point x="189" y="-154"/>
      <point x="212" y="-209"/>
      <point x="212" y="-259" type="curve" smooth="yes"/>
      <point x="212" y="-350"/>
      <point x="151" y="-416"/>
      <point x="62" y="-416" type="curve" smooth="yes"/>
      <point x="19" y="-416"/>
      <point x="-13" y="-399"/>
      <point x="-32" y="-379" type="curve" smooth="yes"/>
      <point x="-57" y="-355"/>
      <point x="-66" y="-326"/>
      <point x="-66" y="-298" type="curve" smooth="yes"/>
      <point x="-66" y="-276"/>
      <point x="-61" y="-255"/>
      <point x="-54" y="-236" type="curve" smooth="yes"/>
      <point x="-49" y="-221"/>
      <point x="-45" y="-210"/>
      <point x="-45" y="-196" type="curve" smooth="yes"/>
      <point x="-45" y="-180"/>
      <point x="-59" y="-168"/>
      <point x="-75" y="-168" type="curve" smooth="yes"/>
      <point x="-88" y="-168"/>
      <point x="-99" y="-172"/>
      <point x="-110" y="-180" type="curve" smooth="yes"/>
      <point x="-123" y="-190"/>
      <point x="-142" y="-187"/>
      <point x="-152" y="-174" type="curve" smooth="yes"/>
      <point x="-162" y="-161"/>
      <point x="-159" y="-142"/>
    </contour>
  </outline>
</glyph>
<glyph name="knsignvRR.following" format="1">
  <advance width="776"/>
  <outline>
    <contour>
      <point x="374" y="83" type="curve" smooth="yes"/>
      <point x="520" y="83" type="line" smooth="yes"/>
      <point x="670" y="83"/>
      <point x="726" y="10"/>
      <point x="726" y="-78" type="curve" smooth="yes"/>
      <point x="726" y="-171"/>
      <point x="672" y="-218"/>
      <point x="611" y="-218" type="curve" smooth="yes"/>
      <point x="544" y="-218"/>
      <point x="509" y="-172"/>
      <point x="508" y="-124" type="curve" smooth="yes"/>
      <point x="508" y="-68"/>
      <point x="547" y="-14"/>
      <point x="627" y="-14" type="curve" smooth="yes"/>
      <point x="653" y="-14"/>
      <point x="680" y="-17"/>
      <point x="702" y="-25" type="curve" smooth="yes"/>
      <point x="718" y="-30"/>
      <point x="726" y="-48"/>
      <point x="720" y="-63" type="curve" smooth="yes"/>
      <point x="715" y="-79"/>
      <point x="697" y="-87"/>
      <point x="682" y="-81" type="curve" smooth="yes"/>
      <point x="666" y="-75"/>
      <point x="645" y="-74"/>
      <point x="627" y="-74" type="curve" smooth="yes"/>
      <point x="591" y="-74"/>
      <point x="568" y="-96"/>
      <point x="568" y="-122" type="curve" smooth="yes"/>
      <point x="569" y="-142"/>
      <point x="586" y="-158"/>
      <point x="611" y="-158" type="curve" smooth="yes"/>
      <point x="646" y="-158"/>
      <point x="666" y="-123"/>
      <point x="666" y="-78" type="curve" smooth="yes"/>
      <point x="666" y="-16"/>
      <point x="614" y="23"/>
      <point x="520" y="23" type="curve" smooth="yes"/>
      <point x="374" y="23" type="line" smooth="yes"/>
      <point x="358" y="23"/>
      <point x="344" y="37"/>
      <point x="344" y="53" type="curve" smooth="yes"/>
      <point x="344" y="69"/>
      <point x="358" y="83"/>
    </contour>
    <contour>
      <point x="101" y="-208" type="curve" smooth="yes"/>
      <point x="115" y="-218"/>
      <point x="130" y="-229"/>
      <point x="161" y="-229" type="curve" smooth="yes"/>
      <point x="183" y="-229"/>
      <point x="204" y="-213"/>
      <point x="204" y="-185" type="curve" smooth="yes"/>
      <point x="204" y="-166"/>
      <point x="191" y="-148"/>
      <point x="164" y="-148" type="curve" smooth="yes"/>
      <point x="131" y="-148"/>
      <point x="111" y="-181"/>
      <point x="111" y="-216" type="curve" smooth="yes"/>
      <point x="111" y="-258"/>
      <point x="124" y="-292"/>
      <point x="152" y="-320" type="curve" smooth="yes"/>
      <point x="177" y="-345"/>
      <point x="217" y="-357"/>
      <point x="258" y="-357" type="curve" smooth="yes"/>
      <point x="302" y="-357"/>
      <point x="337" y="-344"/>
      <point x="362" y="-319" type="curve" smooth="yes"/>
      <point x="390" y="-291"/>
      <point x="403" y="-248"/>
      <point x="403" y="-193" type="curve" smooth="yes"/>
      <point x="403" y="-140"/>
      <point x="380" y="-50"/>
      <point x="348" y="38" type="curve" smooth="yes"/>
      <point x="342" y="53"/>
      <point x="350" y="71"/>
      <point x="366" y="76" type="curve" smooth="yes"/>
      <point x="381" y="82"/>
      <point x="399" y="74"/>
      <point x="404" y="58" type="curve" smooth="yes"/>
      <point x="440" y="-38"/>
      <point x="463" y="-136"/>
      <point x="463" y="-193" type="curve" smooth="yes"/>
      <point x="463" y="-268"/>
      <point x="442" y="-323"/>
      <point x="404" y="-361" type="curve" smooth="yes"/>
      <point x="369" y="-396"/>
      <point x="320" y="-417"/>
      <point x="258" y="-417" type="curve" smooth="yes"/>
      <point x="201" y="-417"/>
      <point x="145" y="-397"/>
      <point x="110" y="-362" type="curve" smooth="yes"/>
      <point x="70" y="-322"/>
      <point x="51" y="-276"/>
      <point x="51" y="-216" type="curve"/>
      <point x="51" y="-141"/>
      <point x="101" y="-88"/>
      <point x="164" y="-88" type="curve" smooth="yes"/>
      <point x="233" y="-88"/>
      <point x="264" y="-136"/>
      <point x="264" y="-185" type="curve" smooth="yes"/>
      <point x="264" y="-251"/>
      <point x="213" y="-289"/>
      <point x="161" y="-289" type="curve" smooth="yes"/>
      <point x="112" y="-289"/>
      <point x="87" y="-272"/>
      <point x="65" y="-256" type="curve" smooth="yes"/>
      <point x="52" y="-247"/>
      <point x="49" y="-228"/>
      <point x="59" y="-214" type="curve" smooth="yes"/>
      <point x="68" y="-201"/>
      <point x="87" y="-198"/>
    </contour>
  </outline>
</glyph>
